<?xml version="1.0" encoding="UTF-8"?>
<svg id="Capa_5" data-name="Capa 5" xmlns="http://www.w3.org/2000/svg" viewBox="0 0 360 360">
  <defs>
    <style>
      .cls-1 {
        fill: #791544;
      }

      .cls-2 {
        fill: #d7b687;
      }
    </style>
  </defs>
  <circle class="cls-1" cx="180" cy="180" r="163.36"/>
  <g>
    <path class="cls-2" d="m298.74,182.9c-.31.87-.63,1.73-.92,2.6-2.39,7.4-9.14,12.47-16.91,12.52-9.41.06-18.83.04-28.24,0-1.49,0-2.09.34-2.5,1.96-9.77,38.73-34.01,63.19-72.84,73.11-4.09,1.05-8.35,1.48-12.52,2.2h-15.67c-.52-.15-1.03-.38-1.56-.43-12.49-1.13-24.33-4.57-35.31-10.58-26.43-14.5-42.96-36.44-49.12-65.98-.83-3.98-1.27-8.05-1.89-12.08,0-4.11,0-8.21,0-12.32.62-4.03,1.04-8.1,1.89-12.09,6.69-31.58,24.6-54.79,53.88-68.23,53.43-24.52,114.87,3.87,131.55,60.15.63,2.11,1.28,4.24,1.58,6.4.24,1.7,1.02,1.97,2.5,1.96,8.94-.05,17.88-.03,26.82-.02,9.88,0,16.36,5.04,18.85,14.6.05.2.26.36.4.54,0,1.9,0,3.79,0,5.69Zm-51.43-2.74c.25-49.49-40.17-89.91-90.27-90.29-49.63-.37-90.4,40.05-90.61,89.85-.21,49.87,39.97,90.22,90.16,90.53,49.74.31,90.47-40.14,90.71-90.09Zm4.67,12.59s.11.12.24.12c10.12,0,20.25.26,30.35-.11,6.46-.24,11.19-6.49,10.99-13.43-.18-6.25-5.53-11.96-11.74-12.06-9.8-.16-19.61-.05-29.41-.05-.21,0-.43.15-.43.15v25.38Z"/>
    <path class="cls-2" d="m236.72,179.95c.22,43.75-35.54,79.54-79.69,79.76-43.67.22-79.88-35.32-80.09-78.61-.21-44.75,35.06-80.49,79.64-80.71,44.09-.21,79.91,35.35,80.14,79.55Zm-79.98-74.58c-41.4.15-74.76,33.53-74.7,74.76.06,41.24,33.7,74.79,74.85,74.62,41.32-.16,74.94-33.74,74.84-74.77-.09-41.13-33.89-74.76-74.99-74.62Z"/>
    <path class="cls-2" d="m156.33,204.12c4.13-2.64,7.85-5.15,11.69-7.42,2.3-1.36,4.78-2.43,7.22-3.54,10.2-4.63,15.14-13,16.61-23.65.64-4.67.74-9.43.87-14.15.07-2.62.85-4.64,3.27-5.79,2.43-1.16,4.6-.48,6.59,1.12,4.27,3.43,5.98,8.21,7.02,13.31,3.57,17.43,1.89,34.2-7.79,49.39-11.54,18.12-28.46,26.1-49.93,24.7-20.77-1.35-41.83-16.62-47.83-43.49-2.57-11.52-2.28-23.01.94-34.39,1.05-3.71,2.89-6.99,5.96-9.46,2.05-1.66,4.29-2.37,6.8-1.12,2.41,1.2,3.25,3.31,3.23,5.86-.07,6.64.06,13.25,1.99,19.69,2.34,7.78,6.84,13.77,14.29,17.36,1.35.65,2.67,1.36,4.02,2.01,5.54,2.69,11.2,5.21,15.03,9.56Zm-40.44-50.32c-.98.51-1.63.64-1.87,1.02-1.49,2.37-3.44,4.63-4.2,7.23-2.93,10-3.13,20.18-1.07,30.4,5.34,26.43,27.21,41.52,48.9,40.78,15.94-.54,28.54-6.91,37.91-19.51,8.72-11.73,11.47-25.27,10.4-39.6-.35-4.66-1.57-9.29-2.72-13.85-.68-2.68-2.33-4.92-5.25-6.46-.09,1.08-.18,1.84-.22,2.6-.23,4.25-.18,8.53-.73,12.74-1.65,12.73-7.28,22.86-19.5,28.46-2.08.95-4.1,2.02-6.16,3.01-4.29,2.07-8.33,4.44-11.47,8.18-1.85,2.2-4.22,1.82-6.41-.09-2.89-2.51-5.92-4.92-9.16-6.95-3.2-2-6.75-3.42-10.12-5.15-6.81-3.5-11.62-8.81-14.56-15.87-2.97-7.13-3.8-14.59-3.76-22.21,0-1.45,0-2.9,0-4.74Z"/>
    <path class="cls-2" d="m156.84,170.49c2.79-1.54,5.43-3.33,8.32-4.51,7.44-3.03,10.32-8.81,10.6-16.35.06-1.58.02-3.16.09-4.73.08-1.95.82-3.51,2.75-4.3,1.84-.76,3.42-.19,4.83.98,2.79,2.32,3.76,5.56,4.36,8.94,1.97,11.14.37,21.61-6.84,30.61-8.1,10.1-18.99,13.46-31.39,10.67-12.39-2.79-19.77-11.23-23.15-23.21-1.9-6.73-1.95-13.6.03-20.3.7-2.39,2.24-4.64,3.81-6.63,1.15-1.46,3.07-1.88,4.97-.96,1.86.9,2.45,2.42,2.54,4.42.14,3.14.37,6.29.84,9.39.73,4.89,3.65,8.23,7.99,10.47,3.49,1.81,6.93,3.73,10.26,5.53Zm-24.37-23.19c-.13-.03-.25-.06-.38-.09-.33.94-.76,1.86-.98,2.83-1.27,5.46-1.41,10.95-.03,16.4,2.65,10.45,8.82,17.85,19.52,20.42,10.21,2.45,19.17-.37,26.05-8.44,6.18-7.26,7.56-15.93,6.45-25.11-.26-2.16-.98-4.27-1.49-6.4-.58.22-.62.3-.63.37-.02.47-.04.94-.06,1.42-.32,10.01-3.97,17.83-13.82,21.97-2.71,1.14-5.07,3.12-7.54,4.8-1.68,1.14-3.32,1.34-5.07.26-3.55-2.18-7.03-4.48-10.65-6.51-5.42-3.04-8.97-7.43-10.23-13.5-.57-2.76-.77-5.6-1.14-8.41Z"/>
    <path class="cls-2" d="m157.18,125.68c4.15-4.05,8.41-4.9,13.04-2.41,4.45,2.4,6.79,7.82,5.83,13.43-.72,4.24-2.6,7.92-5.38,11.15-1.65,1.91-3.51,3.66-5.09,5.62-2.17,2.69-4.26,5.45-6.21,8.31-1.44,2.11-3.65,2.58-4.67.52-2.51-5.08-6.64-8.79-10.37-12.85-3.65-3.99-6.22-8.47-6.91-13.95-1.04-8.26,6.2-15.33,13.79-13.13,2.03.59,3.8,2.09,5.96,3.32Zm-.35,29.97c1.86-2.08,3.7-4.11,5.53-6.16,1.88-2.12,3.85-4.19,5.59-6.42,2.37-3.02,3.5-6.49,3.05-10.38-.37-3.19-2.73-5.55-5.67-5.7-2.63-.14-5.07,1.96-5.76,4.98-.11.46-.02,1.08-.29,1.36-.76.78-1.67,1.98-2.5,1.97-.81,0-1.72-1.23-2.37-2.08-.39-.52-.32-1.36-.56-2.02-.95-2.63-3.1-4.27-5.41-4.21-2.61.07-4.79,1.85-5.56,4.66-1.25,4.54.41,8.47,3.15,11.86,3.42,4.21,7.19,8.13,10.79,12.15Z"/>
  </g>
</svg>