<?xml version="1.0" encoding="UTF-8"?>
<svg id="Capa_7" data-name="Capa 7" xmlns="http://www.w3.org/2000/svg" viewBox="0 0 360 360">
  <defs>
    <style>
      .cls-1 {
        fill: #002959;
      }

      .cls-2 {
        fill: #d7b687;
      }
    </style>
  </defs>
  <circle class="cls-1" cx="180" cy="180" r="163.36"/>
  <g>
    <path class="cls-2" d="m200.5,109.24h.17c4.89-.2,9.51-.54,13.76-.9,1.84-.17,3.21-1.81,3.05-3.65-.2-1.84-1.81-3.22-3.65-3.01-4.15.37-8.67.67-13.46.87-1.84.1-3.28,1.67-3.18,3.52.07,1.81,1.54,3.18,3.32,3.18Z"/>
    <path class="cls-2" d="m173.2,109.64c3.09.05,10.63.05,13.73,0,1.84-.03,3.32-1.54,3.28-3.42,0-1.81-1.51-3.28-3.35-3.28h-.03c-4.35.03-9.18.03-13.56,0-1.94-.1-3.35,1.44-3.38,3.28-.03,1.88,1.44,3.38,3.32,3.42Z"/>
    <path class="cls-2" d="m145.67,108.33c4.22.4,8.84.7,13.76.9.07,0,.1.03.17.03,1.78,0,3.25-1.41,3.35-3.22.07-1.84-1.37-3.42-3.21-3.48-4.79-.23-9.34-.54-13.43-.9-1.88-.17-3.48,1.17-3.65,3.01-.17,1.84,1.17,3.48,3.01,3.65Z"/>
    <path class="cls-2" d="m173.8,149.83c-4.42-.03-8.57-.13-12.46-.23-1.91-.13-3.42,1.37-3.45,3.25-.07,1.84,1.37,3.38,3.21,3.45,3.95.1,8.17.2,12.66.23,1.84,0,3.35-1.47,3.35-3.32.03-1.84-1.44-3.35-3.32-3.38Z"/>
    <path class="cls-2" d="m211.45,155.69h.2c4.52-.3,8.77-.67,12.66-1.07,1.84-.2,3.18-1.88,2.98-3.72-.2-1.81-1.91-3.15-3.72-2.95-3.78.4-7.94.77-12.36,1.04-1.84.13-3.25,1.71-3.11,3.55.1,1.78,1.57,3.15,3.35,3.15Z"/>
    <path class="cls-2" d="m186.33,156.52h.03c4.49-.03,8.67-.13,12.63-.27,1.84-.03,3.32-1.57,3.25-3.45-.07-1.84-1.57-3.32-3.45-3.22-3.92.1-8.07.2-12.49.23-1.84.03-3.32,1.54-3.32,3.38.03,1.84,1.51,3.32,3.35,3.32Z"/>
    <path class="cls-2" d="m148.89,148.99c-4.39-.27-8.54-.6-12.36-1.04-1.81-.2-3.48,1.14-3.68,2.98-.2,1.84,1.14,3.48,2.98,3.68,3.88.44,8.17.77,12.66,1.07h.2c1.77,0,3.25-1.37,3.35-3.15.1-1.84-1.27-3.42-3.15-3.55Z"/>
    <path class="cls-2" d="m257.02,186.7c0-3.64-2.95-7.37-23-10.21,8.72-15.51,19.66-40.02,19.66-43.37,0-3.6-2.78-7.3-21.75-10.15,3.31-6.77,15.46-33.84,14.99-37.19-1.34-12.3-55.87-12.94-66.91-12.94s-65.58.64-66.91,12.94c-.5,3.5,12.5,32.1,14.99,37.19-18.96,2.84-21.75,6.54-21.75,10.15,0,3.35,10.89,27.79,19.66,43.37-20.05,2.84-23,6.57-23,10.21,0,3.35,33.49,79.83,75.57,100.13.46.22.96.33,1.46.33s.99-.11,1.46-.33c39.95-19.28,75.57-94.77,75.57-100.13Zm-113.39,5.35c-8.7-12.37-16.02-25.8-22.41-39.64.6.17,1.27.27,1.91.4,2.03.34,3.6-.99,3.92-2.68.33-1.81-.87-3.58-2.68-3.92-2.37-.43-4.54-.9-6.54-1.44-.63-1.47-1.22-2.87-1.73-4.11,16.92,5.31,51.11,5.85,63.9,5.85s46.98-.53,63.9-5.85c-.51,1.24-1.1,2.64-1.73,4.11-1.97.53-4.11,1-6.41,1.43-1.84.34-3.01,2.08-2.68,3.88.31,1.67,1.8,2.98,3.92,2.68.59-.1,1.18-.23,1.77-.36-6.39,13.85-13.74,27.31-22.4,39.63-11,.88-23.51,1.35-36.37,1.35s-25.34-.47-36.36-1.35Zm86.7-9.29c10.28,1.32,15.96,2.85,18.56,3.95-3.07,1.3-10.26,3.13-23.93,4.57,1.85-2.78,3.64-5.62,5.37-8.51Zm-6.05-45.19c1.48-2.61,2.96-5.37,4.46-8.28,10.1,1.4,14.86,2.92,16.95,3.86-3.08,1.39-10.21,3.08-21.41,4.42Zm-44.29-58.03c31.98,0,53.94,3.71,59.41,6.7-5.47,2.98-27.43,6.7-59.41,6.7s-53.94-3.71-59.41-6.7c5.47-2.98,27.43-6.7,59.41-6.7Zm-46.99,20.43c-3.17-.53-6.04-1.14-8.62-1.84-.6-1.49-1.14-2.88-1.63-4.15,16.5,5.3,48.99,5.65,57.23,5.65s40.73-.36,57.24-5.65c-.49,1.27-1.04,2.66-1.63,4.15h-.01c-2.54.67-5.39,1.31-8.51,1.84-1.81.3-3.05,2.04-2.75,3.85.34,1.87,2.11,3.04,3.88,2.75,1.47-.27,2.88-.54,4.22-.8-4.6,10.72-10.42,22.69-16.39,32.65-9.73.84-21.73,1.4-36.05,1.4s-26.32-.56-36.05-1.4c-5.89-9.84-11.87-22.11-16.4-32.69,0,0,0,0,.01,0,1.37.3,2.81.57,4.32.84,1.99.33,3.6-1.03,3.88-2.71.3-1.84-.9-3.55-2.75-3.88Zm-1.76,29.33c1.5,2.92,2.98,5.67,4.46,8.28-11.2-1.33-18.33-3.02-21.41-4.42,2.09-.94,6.85-2.47,16.95-3.87Zm-1.6,53.47c1.73,2.9,3.52,5.73,5.37,8.52-13.67-1.44-20.86-3.26-23.93-4.57,2.61-1.1,8.28-2.63,18.56-3.95Zm50.34,97.31c-26.3-13.63-48.76-50.71-60.84-73.99,0,0,.02,0,.03,0,.57.1,1.14.23,1.74.34.2.03.4.03.6.03,1.61,0,3.01-1.14,3.28-2.75.33-1.84-.87-3.58-2.71-3.88-2.48-.44-4.76-.94-6.83-1.47,0,0,0,0,0,0-.68-1.4-1.29-2.67-1.86-3.87,16.45,4.47,48.9,5.61,66.6,5.61,19.93,0,50.95-1.35,66.6-5.61-.57,1.2-1.17,2.47-1.86,3.87,0,0,0,0,0,0-2.04.54-4.29,1-6.73,1.44-1.81.34-3.01,2.08-2.71,3.88.3,1.61,1.71,2.75,3.32,2.75.2,0,.4,0,.57-.03.57-.1,1.11-.2,1.64-.3,0,0,.02,0,.03,0-12.09,23.28-34.54,60.36-60.84,73.99Z"/>
    <path class="cls-2" d="m199.52,203.17c-4.05.1-8.37.2-12.96.23-1.88.03-3.35,1.54-3.32,3.38,0,1.84,1.51,3.32,3.35,3.32,4.66-.03,9.04-.13,13.13-.23,1.88-.07,3.32-1.61,3.25-3.45-.07-1.88-1.57-3.32-3.45-3.25Z"/>
    <path class="cls-2" d="m147.65,202.61c-4.55-.3-8.91-.64-12.86-1.04-1.88-.23-3.48,1.14-3.68,2.98-.2,1.84,1.14,3.48,2.98,3.65,4.05.44,8.51.8,13.16,1.07h.2c1.77,0,3.25-1.37,3.35-3.15.1-1.84-1.31-3.42-3.15-3.52Z"/>
    <path class="cls-2" d="m173.57,203.41c-4.59-.03-8.91-.13-12.96-.23-1.84-.1-3.42,1.37-3.48,3.25-.03,1.84,1.41,3.38,3.25,3.45,4.12.1,8.47.2,13.13.23h.03c1.84,0,3.35-1.47,3.35-3.32.03-1.84-1.47-3.35-3.32-3.38Z"/>
    <path class="cls-2" d="m225.34,201.53c-3.99.44-8.31.77-12.86,1.04-1.88.13-3.28,1.71-3.15,3.55.1,1.77,1.57,3.15,3.32,3.15h.23c4.66-.3,9.08-.64,13.13-1.07,1.84-.2,3.18-1.84,2.98-3.68-.17-1.84-1.81-3.18-3.65-2.98Z"/>
  </g>
</svg>