<?xml version="1.0" encoding="UTF-8"?>
<svg id="Capa_2" data-name="Capa 2" xmlns="http://www.w3.org/2000/svg" viewBox="0 0 360 360">
  <defs>
    <style>
      .cls-1 {
        fill: #002959;
      }

      .cls-2 {
        fill: #d7b687;
      }
    </style>
  </defs>
  <circle class="cls-1" cx="180" cy="180" r="163.36"/>
  <g>
    <path class="cls-2" d="m251.98,139.48H108.02c-1.47,0-2.67-1.19-2.67-2.67v-7.16c.05-3.42,2.67-9.81,12.27-9.81h124.48c1.05-.06,6.95-.26,10.28,2.85,1.48,1.38,2.26,3.21,2.26,5.3v8.81c0,1.47-1.2,2.67-2.67,2.67Zm-141.28-5.34h138.61v-6.14c0-.61-.17-1.03-.56-1.4-1.39-1.3-4.9-1.53-6.38-1.42-.06,0-.12,0-.18,0h-124.56c-6.79,0-6.93,4.32-6.93,4.5v4.46Z"/>
    <path class="cls-2" d="m168.84,125.19c-1.47,0-2.67-1.19-2.67-2.67v-52.68c0-1.47,1.2-2.67,2.67-2.67h22.62c1.47,0,2.67,1.19,2.67,2.67v52.66c0,1.47-1.2,2.67-2.67,2.67s-2.67-1.19-2.67-2.67v-49.99h-17.28v50.02c0,1.47-1.2,2.67-2.67,2.67Z"/>
    <path class="cls-2" d="m168.84,169.74c-1.47,0-2.67-1.19-2.67-2.67v-30.26c0-1.47,1.2-2.67,2.67-2.67s2.67,1.19,2.67,2.67v30.26c0,1.47-1.2,2.67-2.67,2.67Z"/>
    <path class="cls-2" d="m214.08,292.84h-64.92c-23.24,0-25.36-20.09-26.16-27.65-2.72-25.83-7.02-127.23-7.06-128.25-.06-1.47,1.08-2.72,2.55-2.78,1.5-.06,2.72,1.08,2.78,2.55.04,1.02,4.34,102.25,7.04,127.92,1.19,11.31,4.6,22.88,20.85,22.88h64.92c.17,0,17.38-.27,18.19-23.86.8-23.05,5.83-125.91,5.88-126.95.07-1.47,1.29-2.62,2.8-2.53,1.47.07,2.61,1.32,2.53,2.8-.05,1.04-5.08,103.87-5.87,126.87-.79,22.95-15.73,29.02-23.52,29.02Z"/>
    <path class="cls-2" d="m191.46,169.74c-1.47,0-2.67-1.19-2.67-2.67v-30.26c0-1.47,1.2-2.67,2.67-2.67s2.67,1.19,2.67,2.67v30.26c0,1.47-1.2,2.67-2.67,2.67Z"/>
    <path class="cls-2" d="m239.37,171.18h-119.02c-1.47,0-2.67-1.19-2.67-2.67s1.2-2.67,2.67-2.67h119.02c1.47,0,2.67,1.19,2.67,2.67s-1.2,2.67-2.67,2.67Z"/>
    <path class="cls-2" d="m199.47,251.22c-5.93,0-10.75-4.82-10.75-10.75s4.82-10.75,10.75-10.75,10.75,4.82,10.75,10.75-4.82,10.75-10.75,10.75Zm0-16.16c-2.98,0-5.41,2.43-5.41,5.41s2.43,5.41,5.41,5.41,5.41-2.43,5.41-5.41-2.43-5.41-5.41-5.41Z"/>
    <path class="cls-2" d="m160.76,251.22c-5.93,0-10.75-4.82-10.75-10.75s4.82-10.75,10.75-10.75,10.75,4.82,10.75,10.75-4.82,10.75-10.75,10.75Zm0-16.16c-2.98,0-5.41,2.43-5.41,5.41s2.43,5.41,5.41,5.41,5.41-2.43,5.41-5.41-2.43-5.41-5.41-5.41Z"/>
    <path class="cls-2" d="m149.89,277.71c-5.93,0-10.75-4.82-10.75-10.75s4.82-10.75,10.75-10.75,10.75,4.82,10.75,10.75-4.82,10.75-10.75,10.75Zm0-16.16c-2.98,0-5.41,2.43-5.41,5.41s2.43,5.41,5.41,5.41,5.41-2.43,5.41-5.41-2.43-5.41-5.41-5.41Z"/>
    <path class="cls-2" d="m180.29,277.71c-5.93,0-10.75-4.82-10.75-10.75s4.82-10.75,10.75-10.75,10.75,4.82,10.75,10.75-4.82,10.75-10.75,10.75Zm0-16.16c-2.98,0-5.41,2.43-5.41,5.41s2.43,5.41,5.41,5.41,5.41-2.43,5.41-5.41-2.43-5.41-5.41-5.41Z"/>
    <path class="cls-2" d="m210.7,277.71c-5.93,0-10.75-4.82-10.75-10.75s4.82-10.75,10.75-10.75,10.75,4.82,10.75,10.75-4.82,10.75-10.75,10.75Zm0-16.16c-2.98,0-5.41,2.43-5.41,5.41s2.43,5.41,5.41,5.41,5.41-2.43,5.41-5.41-2.43-5.41-5.41-5.41Z"/>
  </g>
</svg>