<?xml version="1.0" encoding="UTF-8"?>
<svg id="Capa_3" data-name="Capa 3" xmlns="http://www.w3.org/2000/svg" viewBox="0 0 360 360">
  <defs>
    <style>
      .cls-1 {
        fill: #d7b687;
      }

      .cls-2 {
        fill: #00503a;
      }
    </style>
  </defs>
  <circle class="cls-2" cx="180" cy="180" r="163.36"/>
  <g>
    <path class="cls-1" d="m256.46,137.04c1.01-20.85-4.14-36.54-15.38-46.65-20.13-18.13-52.02-11.58-53.37-11.29-1.16.25-2.02,1.24-2.1,2.43-1.77,25.95,4.07,44.7,17.36,55.72,10.56,8.75,23.69,10.89,33.99,10.89,3.17,0,6.05-.2,8.52-.48.01.02.02.04.03.07.05.08,4.89,8.37,6.73,17.95.19,1.01.17,1.55.13,1.81-1.25.11-4.42-1.26-6.97-2.96-24.25-16.48-42.19-3.74-49.76,3.83-1.24-5.84-3.17-10.3-3.35-10.71-.6-1.35-2.18-1.96-3.52-1.37-1.35.59-1.96,2.17-1.37,3.52.02.06.73,1.7,1.55,4.23-10.75-3.58-22.62-5.41-34.55-5.26-25.72.33-47.27,12.26-59.11,32.72-5.16,8.92-8.8,19.3-11.14,31.73-1.24,6.58-2.04,13.48-2.47,21.09-.07,1.2-.18,2.46-.3,3.76-.71,7.67-1.67,18.17,7.78,22.9.35.17,25.04,11.33,52.5,11.33,12.68,0,25.94-2.38,37.66-9.32,21.28-12.6,33.01-37.44,34.96-73.79,1.27,1.07,2.5,2.27,3.66,3.7.53.65,1.3.99,2.07.99.59,0,1.18-.19,1.68-.6,1.14-.93,1.32-2.61.39-3.75-4.74-5.85-10.43-9-15.73-10.65,2.25-1.72,5.43-3.55,9.06-3.83,3.67-.29,7.26,1.1,10.67,4.12,6.7,5.93,16.21,9.27,25.27,9.27,3.18,0,6.3-.41,9.22-1.27,8.68-2.54,14.81-8.67,17.25-17.25,6.42-22.6-13.57-38.82-21.34-42.88Zm-50.11-3.92c-11.54-9.58-16.76-26.11-15.55-49.15,7.05-1.07,31.32-3.49,46.73,10.4,9.3,8.39,13.89,21.35,13.72,38.59-14.36-25.08-43.82-38.9-45.22-39.55-1.34-.62-2.92-.03-3.54,1.31-.62,1.34-.03,2.92,1.31,3.54.35.16,34.13,15.99,45.84,43.39-7.69,1.35-28.71,3.58-43.29-8.53Zm2.75,62.9c-1.38,36.07-12.32,60.42-32.52,72.37-34.75,20.57-84.57-1.95-85.05-2.19-5.74-2.87-5.63-9.12-4.85-17.63.13-1.36.25-2.69.32-3.95.41-7.37,1.2-14.05,2.39-20.4,2.22-11.83,5.66-21.66,10.51-30.05,10.87-18.79,30.76-29.75,54.55-30.06,11.99-.17,23.87,1.76,34.48,5.54.51.18,1.04.2,1.53.08.31,1.49.58,3.06.74,4.65,0,.19.01.38.05.57.42,4.95-.21,10.05-3.38,13.49-.78.85-.93,2.09-.37,3.1.55,1.01,1.68,1.54,2.83,1.33.34-.06,4.42-.77,9.74.03.22.07.44.1.66.11,2.63.45,5.53,1.29,8.41,2.76-.01.09-.03.17-.04.26Zm63.56-17.55c-2.46,8.65-8.76,12.16-13.61,13.58-9.58,2.81-21.69-.02-29.45-6.88-4.54-4.02-9.45-5.85-14.65-5.44-7.28.58-12.85,5.47-15.08,7.76-1.79-.22-3.45-.31-4.89-.31h-.05c1.57-3.71,1.94-7.91,1.69-11.96,3.19-4.16,20.16-23.69,45.81-6.26,2.63,1.75,9.16,5.55,13.03,2.98,2.02-1.34,2.7-3.79,2.03-7.27-1.51-7.83-4.74-14.69-6.38-17.84,1.63-.31,2.65-.56,2.86-.62.04-.01.08-.04.12-.05.03-.01.07,0,.11-.02.18-.06.35-.15.5-.25.02-.01.03-.03.05-.04.18-.12.35-.27.49-.42.04-.04.07-.08.11-.12.15-.18.27-.37.37-.59.02-.03.02-.07.04-.1.08-.2.14-.42.17-.64,0-.03.02-.05.02-.08,0-.04,0-.08.01-.13,0,0,0,0,0,0,.03-.27.05-.54.07-.81,7.62,4.87,21.6,18.03,16.63,35.51Z"/>
    <path class="cls-1" d="m173.85,253.76c-10.36,10.36-34.13,9.03-34.38,9.02-1.47-.1-2.74,1.03-2.83,2.5-.09,1.47,1.03,2.74,2.5,2.83.22.01,1.47.09,3.42.09,7.53,0,25.47-1.07,35.06-10.65,1.04-1.04,1.04-2.73,0-3.77-1.04-1.04-2.73-1.04-3.77,0Z"/>
    <path class="cls-1" d="m152.46,178.74c1.45.11,2.74-1.03,2.82-2.5.09-1.47-1.03-2.74-2.5-2.83-14.72-.89-27.01,3.37-36.5,12.68-9.82,9.64-16.43,24.32-19.65,43.64-2.37,14.24-1.93,25.55-1.91,26.02.06,1.43,1.24,2.56,2.67,2.56.04,0,.08,0,.11,0,1.47-.06,2.61-1.31,2.55-2.78-.02-.44-1.6-44.48,19.97-65.64,8.36-8.2,19.26-11.95,32.43-11.16Z"/>
  </g>
</svg>