<?xml version="1.0" encoding="UTF-8"?>
<svg id="Capa_6" data-name="Capa 6" xmlns="http://www.w3.org/2000/svg" viewBox="0 0 360 360">
  <defs>
    <style>
      .cls-1 {
        fill: #791544;
      }

      .cls-2 {
        fill: #d7b687;
      }
    </style>
  </defs>
  <circle class="cls-1" cx="184.24" cy="180" r="163.36"/>
  <g>
    <path class="cls-2" d="m219.76,97.14c-26.11,0-47.36,21.24-47.36,47.36s21.24,47.36,47.36,47.36,47.36-21.24,47.36-47.36-21.24-47.36-47.36-47.36Zm0,88.79c-22.85,0-41.44-18.59-41.44-41.44s18.59-41.44,41.44-41.44,41.44,18.59,41.44,41.44-18.59,41.44-41.44,41.44Z"/>
    <path class="cls-2" d="m272.97,170.25c3.79-7.8,5.98-16.52,5.98-25.76s-2.19-17.96-5.98-25.76c.1-.09.19-.17.29-.27,7.58-7.58,7.58-19.9,0-27.48-7.57-7.57-19.9-7.58-27.48,0-.1.1-.17.19-.27.29-7.8-3.79-16.52-5.98-25.76-5.98s-17.96,2.19-25.76,5.98c-.09-.1-.17-.19-.27-.29-7.57-7.58-19.9-7.58-27.48,0-7.58,7.58-7.58,19.9,0,27.48.1.1.19.17.29.27-3.79,7.8-5.98,16.52-5.98,25.76,0,4.21.46,8.31,1.3,12.28-21.98,21.98-13.17,13.17-62.88,62.88-6.09,6.09-9.45,14.19-9.45,22.81s3.36,16.72,9.45,22.81c6.29,6.29,14.55,9.43,22.81,9.43s16.52-3.14,22.81-9.43c43.54-43.54,31.08-31.08,62.88-62.88,3.96.84,8.06,1.3,12.27,1.3,9.24,0,17.96-2.19,25.76-5.98.09.1.17.19.27.29,3.79,3.79,8.76,5.68,13.74,5.68s9.95-1.89,13.74-5.68c7.58-7.58,7.58-19.9,0-27.48-.1-.1-.19-.17-.29-.27Zm-3.9-75.08c4.94,4.94,5.19,12.76.86,18.06-4.79-7.66-11.26-14.13-18.92-18.92,5.3-4.33,13.12-4.08,18.06.86Zm-98.64,0c4.94-4.94,12.76-5.18,18.06-.86-7.66,4.79-14.13,11.26-18.92,18.92-4.33-5.3-4.09-13.12.86-18.06Zm-22.47,100.61l21.01-21.03c5.04,8.43,12.1,15.48,20.53,20.53l-21.03,21.01-20.5-20.5Zm15.72-32.47c.69,2.04,1.49,4.03,2.39,5.96l-22.29,22.32-4.19-4.19,24.09-24.09Zm-23.27,97.77c-10.27,10.27-26.98,10.27-37.25,0-4.98-4.98-7.72-11.59-7.72-18.63s2.74-13.65,7.72-18.63l5.6-5.6,4.19,4.19-5.6,5.6c-7.96,7.96-7.96,20.91-.01,28.86,3.83,3.87,8.96,6,14.44,6s10.61-2.13,14.43-5.99l5.6-5.6,4.19,4.19-5.6,5.6Zm-2.77-13.98l-5.61,5.61c-2.71,2.74-6.35,4.24-10.24,4.24s-7.53-1.51-10.25-4.25c-5.65-5.65-5.65-14.85,0-20.5l5.6-5.6,20.5,20.5Zm12.56,4.19l-37.25-37.25,22.45-22.45,37.25,37.25-22.45,22.45Zm26.64-26.64l-4.19-4.19,22.32-22.29c1.94.9,3.92,1.7,5.96,2.39l-24.09,24.09Zm-10.36-80.17c0-29.38,23.9-53.28,53.28-53.28s53.28,23.9,53.28,53.28-23.9,53.28-53.28,53.28-53.28-23.9-53.28-53.28Zm102.59,49.32c-4.94,4.94-12.76,5.19-18.06.86,7.66-4.79,14.13-11.26,18.92-18.92,4.33,5.3,4.09,13.12-.86,18.06Z"/>
    <circle class="cls-2" cx="219.76" cy="144.49" r="2.96"/>
    <circle class="cls-2" cx="219.76" cy="132.65" r="2.96"/>
    <circle class="cls-2" cx="219.76" cy="120.81" r="2.96"/>
    <path class="cls-2" d="m196.74,121.47c1.16-1.16,1.16-3.03,0-4.19-1.16-1.16-3.03-1.16-4.19,0-1.16,1.16-1.16,3.03,0,4.19,1.16,1.16,3.03,1.16,4.19,0Z"/>
    <path class="cls-2" d="m186.22,132.44c-1.58-.42-3.2.51-3.62,2.09-.42,1.58.51,3.2,2.09,3.63,1.58.42,3.2-.51,3.62-2.09.42-1.58-.51-3.2-2.09-3.62Z"/>
    <path class="cls-2" d="m184.69,150.83c-1.58.42-2.52,2.05-2.09,3.62.42,1.58,2.05,2.52,3.62,2.09,1.58-.42,2.52-2.05,2.09-3.62-.42-1.58-2.05-2.52-3.62-2.09Z"/>
    <path class="cls-2" d="m192.55,167.51c-1.16,1.16-1.16,3.03,0,4.19,1.16,1.16,3.03,1.16,4.19,0,1.16-1.16,1.16-3.03,0-4.19s-3.03-1.16-4.19,0Z"/>
    <path class="cls-2" d="m211.33,175.94c-1.58-.42-3.2.51-3.63,2.09-.42,1.58.51,3.2,2.09,3.62,1.58.42,3.2-.51,3.62-2.09.42-1.58-.51-3.2-2.09-3.62Z"/>
    <path class="cls-2" d="m228.19,175.94c-1.58.42-2.52,2.05-2.09,3.62.42,1.58,2.05,2.52,3.62,2.09,1.58-.42,2.52-2.05,2.09-3.62-.42-1.58-2.05-2.52-3.63-2.09Z"/>
    <path class="cls-2" d="m242.78,167.51c-1.16,1.16-1.16,3.03,0,4.19,1.16,1.16,3.03,1.16,4.19,0,1.16-1.16,1.16-3.03,0-4.19-1.16-1.16-3.03-1.16-4.19,0Z"/>
    <path class="cls-2" d="m254.83,150.83c-1.58-.42-3.2.51-3.62,2.09-.42,1.58.51,3.2,2.09,3.62,1.58.42,3.2-.51,3.62-2.09.42-1.58-.51-3.2-2.09-3.62Z"/>
    <path class="cls-2" d="m254.83,138.16c1.58-.42,2.52-2.05,2.09-3.63-.42-1.58-2.05-2.52-3.62-2.09-1.58.42-2.52,2.05-2.09,3.62.42,1.58,2.05,2.52,3.62,2.09Z"/>
    <path class="cls-2" d="m242.78,117.28c-1.16,1.16-1.16,3.03,0,4.19,1.16,1.16,3.03,1.16,4.19,0,1.16-1.16,1.16-3.03,0-4.19-1.16-1.16-3.03-1.16-4.19,0Z"/>
    <path class="cls-2" d="m228.19,113.04c1.58.42,3.2-.51,3.63-2.09.42-1.58-.51-3.2-2.09-3.62-1.58-.42-3.2.51-3.62,2.09-.42,1.58.51,3.2,2.09,3.62Z"/>
    <path class="cls-2" d="m209.8,107.33c-1.58.42-2.52,2.05-2.09,3.62.42,1.58,2.05,2.52,3.63,2.09,1.58-.42,2.52-2.05,2.09-3.62-.42-1.58-2.05-2.52-3.62-2.09Z"/>
    <path class="cls-2" d="m209.4,126.55c1.42-.82,1.9-2.63,1.08-4.04-.82-1.42-2.63-1.9-4.04-1.08-1.42.82-1.9,2.63-1.08,4.04.82,1.42,2.63,1.9,4.04,1.08Z"/>
    <path class="cls-2" d="m200.73,130.09c-1.42-.82-3.23-.33-4.04,1.08-.82,1.42-.33,3.23,1.08,4.04,1.42.82,3.23.33,4.04-1.08.82-1.42.33-3.23-1.08-4.04Z"/>
    <circle class="cls-2" cx="196.08" cy="144.49" r="2.96"/>
    <path class="cls-2" d="m197.77,153.77c-1.42.82-1.9,2.63-1.08,4.04.82,1.42,2.63,1.9,4.04,1.08,1.42-.82,1.9-2.63,1.08-4.04-.82-1.42-2.63-1.9-4.04-1.08Z"/>
    <path class="cls-2" d="m210.48,166.48c.82-1.42.33-3.23-1.08-4.04-1.42-.82-3.23-.33-4.04,1.08-.82,1.42-.33,3.23,1.08,4.04,1.42.82,3.23.33,4.04-1.08Z"/>
    <circle class="cls-2" cx="219.76" cy="168.17" r="2.96"/>
    <path class="cls-2" d="m230.12,162.43c-1.42.82-1.9,2.63-1.08,4.04.82,1.42,2.63,1.9,4.04,1.08,1.42-.82,1.9-2.63,1.08-4.04-.82-1.42-2.63-1.9-4.04-1.08Z"/>
    <path class="cls-2" d="m242.83,157.81c.82-1.42.33-3.23-1.08-4.04-1.42-.82-3.23-.33-4.04,1.08-.82,1.42-.33,3.23,1.08,4.04,1.42.82,3.23.33,4.04-1.08Z"/>
    <circle class="cls-2" cx="243.44" cy="144.49" r="2.96"/>
    <path class="cls-2" d="m241.74,135.22c1.42-.82,1.9-2.63,1.08-4.04-.82-1.42-2.63-1.9-4.04-1.08-1.42.82-1.9,2.63-1.08,4.04.82,1.42,2.63,1.9,4.04,1.08Z"/>
    <path class="cls-2" d="m233.08,121.42c-1.42-.82-3.23-.33-4.04,1.08-.82,1.42-.33,3.23,1.08,4.04,1.42.82,3.23.33,4.04-1.08.82-1.42.33-3.23-1.08-4.04Z"/>
    <path class="cls-2" d="m210.99,136.01c-1.42-.82-3.23-.33-4.04,1.08-.82,1.42-.33,3.23,1.08,4.04,1.42.82,3.23.33,4.04-1.08.82-1.42.33-3.23-1.08-4.04Z"/>
    <path class="cls-2" d="m208.03,147.85c-1.42.82-1.9,2.63-1.08,4.04.82,1.42,2.63,1.9,4.04,1.08,1.42-.82,1.9-2.63,1.08-4.04-.82-1.42-2.63-1.9-4.04-1.08Z"/>
    <circle class="cls-2" cx="219.76" cy="156.33" r="2.96"/>
    <path class="cls-2" d="m231.49,147.85c-1.42-.82-3.23-.33-4.04,1.08-.82,1.42-.33,3.23,1.08,4.04,1.42.82,3.23.33,4.04-1.08.82-1.42.33-3.23-1.08-4.04Z"/>
    <path class="cls-2" d="m232.58,137.09c-.82-1.42-2.63-1.9-4.04-1.08-1.42.82-1.9,2.63-1.08,4.04.82,1.42,2.63,1.9,4.04,1.08,1.42-.82,1.9-2.63,1.08-4.04Z"/>
  </g>
</svg>