<?xml version="1.0" encoding="UTF-8"?>
<svg id="Capa_4" data-name="Capa 4" xmlns="http://www.w3.org/2000/svg" viewBox="0 0 360 360">
  <defs>
    <style>
      .cls-1 {
        fill: #002959;
      }

      .cls-2 {
        fill: #d7b687;
      }
    </style>
  </defs>
  <circle class="cls-1" cx="180" cy="180" r="163.36"/>
  <path class="cls-2" d="m215.79,231.96v9.07c3.3.55,8.19-1.18,8.15,4.21-.03,5.3-4.83,3.76-8.17,4.2v8.31c3.16.67,8.31-1.27,8.17,4.34-.13,5.28-4.94,3.66-7.2,3.97-1.81,3.76-3.03,7.14-4.97,10.04-1.84,2.75-4.87,4.2-8.23,4.65-1.52.2-2.45.78-3.2,2.32-4.14,8.44-11.12,13.04-20.43,13.02-9.3-.01-16.22-4.58-20.52-12.97-.46-.89-1.44-1.87-2.36-2.11-8.33-2.1-11.91-6.06-12.84-14.92-1.24,0-2.55.03-3.85,0-2.9-.07-4.59-1.63-4.57-4.16.02-2.45,1.62-3.91,4.42-3.99,1.25-.04,2.5,0,3.94,0v-8.6c-1.36,0-2.76.05-4.15-.01-2.64-.12-4.27-1.79-4.2-4.25.07-2.33,1.63-3.79,4.25-3.88,1.32-.05,2.65,0,4.14,0v-9.02c-.61-.14-1.28-.32-1.95-.45-2.5-.48-3.71-2.03-3.71-4.54-.02-9.97-4.08-18.07-11.36-24.69-14.16-12.88-22.93-28.77-25.72-47.69-5.19-35.26,13.5-69.09,45.47-83.76,2.99-1.37,5.41-.71,6.43,1.64,1.04,2.4,0,4.43-3.09,5.91-18,8.58-30.93,22.05-37.21,40.99-9.46,28.51-3.28,53.82,18.01,74.98,8.19,8.15,14.39,16.93,15.65,28.77h19.24v-63.11c-1.97,0-3.91.02-5.85,0-8.12-.1-14.4-6.25-14.39-14.06,0-7.65,6.19-13.9,13.87-14.03,8.01-.14,14.21,5.81,14.51,13.93.07,1.88.01,3.77.01,5.84h11.83c0-2.08-.1-4.21.02-6.33.42-7.36,5.6-12.78,12.7-13.42,7.27-.65,13.4,3.82,15.13,11.02,1.98,8.22-4.43,16.72-12.86,17-2.24.08-4.48.01-7.09.01,0,3.8,0,7.38,0,10.96,0,.99.03,1.99-.07,2.97-.25,2.37-1.85,3.88-4.03,3.89-2.28,0-4.07-1.62-4.14-4.08-.11-4.05-.04-8.1-.05-12.16,0-.43-.08-.86-.14-1.4h-11v62.88h11.14c0-.94,0-1.9,0-2.85,0-10.27,0-20.53,0-30.8,0-.81-.09-1.65.1-2.42.55-2.17,1.94-3.46,4.25-3.34,2.15.12,3.51,1.3,3.79,3.49.12.98.12,1.98.12,2.96,0,10,0,19.99,0,29.99,0,.97,0,1.94,0,3.05h19.19c.46-2.24.78-4.46,1.37-6.61,2.14-7.84,6.24-14.51,12.29-19.93,11.67-10.46,19.35-23.21,22.74-38.59,8.18-37.02-15.33-74.93-52.15-83.96-10.2-2.5-20.44-2.8-30.76-.88-3.05.57-5.33-.76-5.75-3.33-.37-2.31,1.39-4.37,4.37-4.84,29.57-4.72,54.87,3.64,74.58,26.18,28.6,32.71,25.78,80.4-6.01,110.05-7.71,7.19-12.36,15.51-12.47,26.19-.03,3.47-2.61,4.13-5.41,4.36Zm-8.73.1h-54.34v8.9h54.34v-8.9Zm-54.47,25.68h54.46v-8.21h-54.46v8.21Zm.07,8.46c.12,4.25,2.34,6.48,6.62,6.5,10.35.06,20.7.03,31.06.02,3.69,0,7.38.07,11.07-.07,3.67-.15,5.81-2.77,5.46-6.45h-54.2Zm41.45-114.17c2.38,0,4.35.03,6.31-.02.52-.01,1.05-.23,1.54-.42,2.79-1.06,4.27-3.76,3.66-6.65-.61-2.9-3.15-4.82-6.05-4.59-2.98.24-5.25,2.38-5.44,5.33-.13,2.03-.02,4.08-.02,6.36Zm-28.46.01c0-2.07.06-3.93-.01-5.78-.13-3.56-2.63-6.09-5.85-6.03-2.95.05-5.5,2.46-5.7,5.37-.23,3.4,1.95,6.07,5.44,6.4,1.93.18,3.89.03,6.12.03Zm2.1,129.24c3.82,5.02,8.36,7.04,13.96,6.41,4.25-.48,7.6-2.58,10.21-6.41h-24.18Z"/>
</svg>