<?xml version="1.0" encoding="UTF-8"?>
<svg id="Capa_9" data-name="Capa 9" xmlns="http://www.w3.org/2000/svg" viewBox="0 0 360 360">
  <defs>
    <style>
      .cls-1 {
        fill: #791544;
      }

      .cls-2 {
        fill: #d7b687;
      }
    </style>
  </defs>
  <circle class="cls-1" cx="180" cy="180" r="163.36"/>
  <g id="i5mClu.tif">
    <path class="cls-2" d="m89.91,120.2c1.56-3.66,4.33-4.9,8.26-4.88,24.15.11,48.3.05,72.46.06.71,0,1.42-.02,2.12.05,1.8.19,2.83,1.21,2.98,3.01.14,1.7-1.08,3.12-2.86,3.37-.69.1-1.41.05-2.12.05-23.87,0-47.74,0-71.61,0-.77,0-1.55,0-2.86,0,1.61,2.22,2.84,4.25,4.4,5.99,4.12,4.57,8.34,9.04,12.62,13.46.64.66,1.83,1.11,2.77,1.11,25.07.06,50.15.05,75.22.02.77,0,1.82-.2,2.27-.71,5.63-6.44,11.17-12.95,16.97-19.72-.93-.06-1.52-.14-2.11-.14-6.52,0-13.03,0-19.55,0-.64,0-1.3.08-1.91-.07-1.69-.41-2.77-1.41-2.7-3.28.06-1.84,1.08-2.86,2.87-3.07.7-.08,1.41-.06,2.12-.06,8.36,0,16.72.05,25.07-.06,1.03-.01,2.36-.59,3.03-1.36,8.68-10.01,17.26-20.09,25.87-30.16.14-.16.27-.33.41-.49,1.65-1.89,3.41-2.21,4.98-.91,1.49,1.23,1.51,3.27-.01,5.07-2.56,3.03-5.16,6.03-7.74,9.04-5.24,6.13-10.48,12.26-16.14,18.87,1.22,0,1.94,0,2.65,0,11.69,0,23.37.01,35.06-.01,2.28,0,4.37.36,5.96,2.18,2.18,2.49,2.26,5.56.18,8.58-11.95,17.37-27.42,30.39-47.09,38.23-3.61,1.44-7.19,2.94-10.82,4.32-5.45,2.07-8.41,5.83-8.71,11.79-.44,8.69-5.05,14.28-13.46,17.05,0,4.96,0,9.97,0,14.99,0,.71.03,1.42-.01,2.13-.11,1.91-1.47,3.3-3.2,3.3-1.73,0-3.13-1.37-3.16-3.31-.05-4.68-.02-9.35-.03-14.03,0-.77,0-1.54,0-2.48h-4.12v47.45h4.12c0-.62,0-1.29,0-1.96,0-4.54-.02-9.07.01-13.61.02-2.3,1.28-3.67,3.23-3.64,1.92.03,3.14,1.44,3.15,3.74.02,4.82.11,9.64-.04,14.46-.06,1.95.53,2.86,2.31,3.79,7.09,3.68,14.06,7.59,21.02,11.5,1.84,1.04,3.64,1.63,5.79,1.58,3.76-.07,6.82,2.53,7.42,5.99.88,5.05-.87,9.09-4.67,10.5-.9.34-1.93.47-2.9.47-25,.02-50,.03-75.01.01-4.31,0-7.37-2.97-7.49-7.26-.04-1.41-.1-2.87.19-4.23.66-3.16,3.6-5.55,6.94-5.46,2.45.06,4.5-.66,6.59-1.83,7.22-4.03,14.52-7.92,21.75-11.94.52-.29,1.03-1.15,1.03-1.74.06-15.66.04-31.32.06-46.99,0-1.05-.26-1.56-1.36-1.96-7.67-2.75-11.88-8.75-12.18-16.9-.2-5.35-2.94-8.94-7.83-11.07-7.9-3.43-15.94-6.6-23.58-10.53-14.83-7.62-26.09-19.27-35.48-32.86-.44-.63-.76-1.35-1.13-2.03,0-1.13,0-2.27,0-3.4Zm34.27,28.98c-.06.14-.13.27-.19.41,2.36,1.38,4.62,2.98,7.1,4.1,7.2,3.25,14.48,6.32,21.74,9.43,5.39,2.31,9.1,6.19,10.78,11.8.64,2.14.75,4.45.99,6.69.57,5.28,4.84,9.45,10.14,9.65,3.11.12,6.23.09,9.34.05,6.66-.09,10.97-4.27,11.32-10.9.46-8.56,4.6-14.48,12.6-17.68,4.85-1.94,9.75-3.78,14.49-5.96,4.63-2.14,9.08-4.65,13.61-7-.08-.21-.16-.43-.24-.64-.39-.03-.78-.08-1.17-.08-12.46,0-24.92-.03-37.38.06-.88,0-1.97.67-2.58,1.36-3.8,4.3-7.49,8.69-11.21,13.05-2.21,2.59-3.99,3.08-5.69,1.57-1.73-1.54-1.49-3.18.82-5.86,2.8-3.25,5.58-6.52,8.59-10.04h-63.08Zm77.52-6.89c.71.1.99.17,1.26.17,13.74,0,27.48.02,41.22-.03.76,0,1.7-.36,2.23-.88,3.39-3.31,6.84-6.58,9.99-10.12,2.56-2.86,4.73-6.07,7.4-9.56h-2.9c-11.97,0-23.94.18-35.91-.1-4.18-.1-7.05.95-9.64,4.37-4.18,5.51-8.91,10.59-13.66,16.16Zm-21.69,129.72c12.11,0,24.21-.03,36.32.03,1.94.01,2.44-.76,2.38-2.53-.06-1.83-1.19-1.77-2.46-1.77-24.21,0-48.42,0-72.63,0-.21,0-.43.01-.64,0-1.14-.06-1.63.44-1.68,1.63-.09,2.34.13,2.63,2.61,2.63,12.03,0,24.07,0,36.1,0Zm20.19-10.75c.09-.17.17-.33.26-.5-5.13-2.62-10.15-5.47-15.43-7.75-2.07-.89-4.77-.94-7.06-.58-2.65.42-5.27,1.48-7.71,2.66-3.64,1.76-7.12,3.88-10.67,5.84.04.11.09.21.13.32h40.48Z"/>
  </g>
</svg>