<?xml version="1.0" encoding="utf-8"?>
<svg version="1.1" id="Layer_2" x="0px" y="0px" viewBox="0 0 186 62" style="enable-background:new 0 0 226.77 141.73;" xmlns="http://www.w3.org/2000/svg">
  <style type="text/css">
	.st0{fill:#FFFFFF;}
	.st1{fill:#4BAA92;}
</style>
  <g style="" transform="matrix(0.926395, 0, 0, 0.926395, -11.855662, -34.385239)">
    <rect x="80.86" y="-28.35" transform="matrix(3.423111e-10 -1 1 3.423111e-10 42.5197 184.252)" class="st0" width="65.06" height="198.43"/>
    <g>
      <g>
        <g>
          <path class="st1" d="M67.27,70.87c0-0.03,0-0.06-0.01-0.08c0-0.01,0-0.02-0.01-0.03c0-0.02-0.01-0.03-0.02-0.05 c0-0.01-0.01-0.02-0.01-0.03c-0.01-0.02-0.02-0.03-0.02-0.05c-0.01-0.01-0.01-0.02-0.02-0.03c0,0,0-0.01-0.01-0.01 c-1.66-2.2-4.06-3.6-6.73-3.97c-0.45-1.43-1.12-2.76-1.97-3.96c0.61-1.15,0.84-2.47,0.66-3.8c-0.02-0.12-0.12-0.22-0.24-0.24 c-1.33-0.19-2.65,0.05-3.8,0.66c-1.2-0.85-2.53-1.52-3.96-1.97c-0.37-2.67-1.77-5.07-3.97-6.73c-0.16-0.12-0.39-0.12-0.55,0 c-2.2,1.66-3.6,4.06-3.97,6.73c-1.43,0.45-2.76,1.12-3.96,1.97c-1.15-0.61-2.47-0.84-3.8-0.66c-0.12,0.02-0.22,0.12-0.24,0.24 c-0.19,1.33,0.05,2.65,0.66,3.8c-0.85,1.2-1.52,2.53-1.97,3.96c-2.67,0.37-5.07,1.77-6.73,3.97c0,0,0,0.01-0.01,0.01 c-0.01,0.01-0.01,0.02-0.02,0.03c-0.01,0.01-0.02,0.03-0.02,0.05c0,0.01-0.01,0.02-0.01,0.03c-0.01,0.02-0.01,0.03-0.02,0.05 c0,0.01-0.01,0.02-0.01,0.03c-0.01,0.03-0.01,0.06-0.01,0.08c0,0,0,0,0,0s0,0,0,0c0,0.03,0,0.06,0.01,0.08 c0,0.01,0,0.02,0.01,0.03c0,0.02,0.01,0.03,0.02,0.05c0,0.01,0.01,0.02,0.01,0.03c0.01,0.02,0.02,0.03,0.02,0.05 c0.01,0.01,0.01,0.02,0.02,0.03c0,0,0,0.01,0.01,0.01c1.66,2.2,4.06,3.6,6.73,3.97c0.45,1.43,1.12,2.76,1.97,3.96 c-0.61,1.15-0.84,2.47-0.66,3.8c0.02,0.12,0.12,0.22,0.24,0.24c0.3,0.04,0.6,0.06,0.9,0.06c1.02,0,2.01-0.25,2.9-0.72 c1.2,0.85,2.53,1.52,3.96,1.97c0.37,2.67,1.77,5.07,3.97,6.73c0.08,0.06,0.18,0.09,0.28,0.09c0.1,0,0.19-0.03,0.28-0.09 c2.2-1.66,3.6-4.06,3.97-6.73c1.43-0.45,2.76-1.12,3.96-1.97c0.89,0.47,1.88,0.72,2.9,0.72c0.3,0,0.6-0.02,0.9-0.06 c0.12-0.02,0.22-0.12,0.24-0.24c0.19-1.33-0.05-2.65-0.66-3.8c0.85-1.2,1.52-2.53,1.97-3.96c2.67-0.37,5.07-1.77,6.73-3.97 c0,0,0-0.01,0.01-0.01c0.01-0.01,0.01-0.02,0.02-0.03c0.01-0.01,0.02-0.03,0.02-0.05c0-0.01,0.01-0.02,0.01-0.03 c0.01-0.02,0.01-0.03,0.02-0.05c0-0.01,0.01-0.02,0.01-0.03C67.27,70.92,67.27,70.89,67.27,70.87 C67.27,70.87,67.27,70.87,67.27,70.87C67.27,70.87,67.27,70.87,67.27,70.87z M59.18,66.52c-0.05,0-0.09,0-0.14,0 c-0.93,0-1.83,0.12-2.69,0.36c-0.21-0.5-0.47-0.99-0.76-1.45c0.65-0.3,1.26-0.73,1.78-1.25c0.15-0.15,0.28-0.3,0.41-0.46 C58.35,64.58,58.82,65.53,59.18,66.52z M58.61,59.15l-6.26,6.26c-0.18-1.72,0.41-3.39,1.64-4.62 C55.22,59.57,56.89,58.98,58.61,59.15z M51.24,58.73c0-0.05,0-0.09,0-0.14c1,0.35,1.94,0.83,2.81,1.4 c-0.16,0.13-0.31,0.27-0.46,0.41c-0.53,0.53-0.95,1.13-1.25,1.78c-0.46-0.29-0.95-0.55-1.45-0.76 C51.12,60.55,51.24,59.65,51.24,58.73z M47.35,66.73c1.5-1.18,2.61-2.71,3.25-4.44c0.49,0.21,0.96,0.46,1.4,0.76 c-0.25,0.84-0.32,1.74-0.19,2.65c0.02,0.12,0.12,0.22,0.24,0.24c0.3,0.04,0.6,0.06,0.9,0.06c0.6,0,1.19-0.09,1.76-0.25 c0.29,0.45,0.55,0.92,0.76,1.4c-1.73,0.64-3.26,1.75-4.44,3.25h-1.58c-1.16,0-2.1-0.94-2.1-2.1V66.73z M46.9,51.53 C46.9,51.53,46.9,51.53,46.9,51.53l0,14.39c0,0,0,0,0,0c-2.18-1.77-3.43-4.37-3.43-7.2C43.47,55.9,44.71,53.3,46.9,51.53z M46.44,66.73v1.58c0,1.16-0.94,2.1-2.1,2.1h-1.58c-1.18-1.5-2.71-2.61-4.44-3.25c0.21-0.49,0.46-0.96,0.76-1.4 c0.56,0.17,1.15,0.25,1.76,0.25c0.3,0,0.6-0.02,0.9-0.06c0.12-0.02,0.22-0.12,0.24-0.24c0.13-0.91,0.06-1.81-0.19-2.65 c0.45-0.29,0.92-0.55,1.4-0.76C43.83,64.02,44.94,65.55,46.44,66.73z M42.55,58.58c0,0.05,0,0.09,0,0.14 c0,0.93,0.12,1.83,0.36,2.69c-0.5,0.21-0.99,0.47-1.45,0.76c-0.3-0.65-0.73-1.26-1.25-1.78c-0.15-0.15-0.3-0.28-0.46-0.41 C40.61,59.41,41.56,58.94,42.55,58.58z M35.18,59.15C35.18,59.15,35.18,59.15,35.18,59.15l6.26,6.26 c-1.72,0.18-3.39-0.41-4.62-1.64C35.59,62.55,35,60.87,35.18,59.15z M36.01,63.72c0.13,0.16,0.27,0.31,0.41,0.46 c0.53,0.53,1.13,0.95,1.79,1.25c-0.29,0.47-0.54,0.95-0.76,1.45c-0.87-0.24-1.77-0.36-2.7-0.36c-0.05,0-0.09,0-0.14,0 C34.97,65.53,35.44,64.58,36.01,63.72z M27.56,70.87h14.39c-1.77,2.18-4.37,3.43-7.2,3.43S29.33,73.05,27.56,70.87z M34.61,75.21c0.05,0,0.09,0,0.14,0c0.93,0,1.83-0.12,2.7-0.36c0.21,0.5,0.46,0.98,0.75,1.45c-0.65,0.3-1.26,0.73-1.79,1.25 c-0.15,0.15-0.28,0.3-0.41,0.46C35.44,77.15,34.97,76.21,34.61,75.21z M35.18,82.58l6.26-6.26c0.18,1.72-0.41,3.39-1.64,4.62 C38.57,82.17,36.9,82.76,35.18,82.58z M42.55,83.01c0,0.05,0,0.09,0,0.14c-1-0.35-1.94-0.82-2.81-1.4 c0.16-0.13,0.31-0.27,0.45-0.41c0.53-0.53,0.95-1.13,1.25-1.78c0.46,0.29,0.95,0.55,1.45,0.76 C42.67,81.18,42.55,82.08,42.55,83.01z M46.44,75c-1.5,1.18-2.61,2.71-3.25,4.44c-0.49-0.21-0.96-0.46-1.4-0.76 c0.25-0.84,0.32-1.74,0.19-2.65c-0.02-0.12-0.12-0.22-0.24-0.24c-0.91-0.13-1.81-0.06-2.65,0.19c-0.29-0.45-0.55-0.92-0.76-1.4 c1.73-0.64,3.26-1.75,4.44-3.25h1.58c1.16,0,2.1,0.94,2.1,2.1V75z M45.93,70.87c0.39-0.24,0.72-0.57,0.96-0.96 c0.24,0.39,0.57,0.72,0.96,0.96c-0.39,0.24-0.72,0.57-0.96,0.96C46.65,71.44,46.32,71.11,45.93,70.87z M46.9,90.2V75.81 c2.18,1.77,3.43,4.37,3.43,7.2C50.32,85.83,49.08,88.43,46.9,90.2z M47.35,75v-1.58c0-1.16,0.94-2.1,2.1-2.1h1.58 c1.18,1.5,2.71,2.61,4.44,3.25c-0.21,0.49-0.46,0.96-0.76,1.4c-0.84-0.25-1.74-0.32-2.65-0.19c-0.12,0.02-0.22,0.12-0.24,0.24 c-0.13,0.91-0.06,1.81,0.19,2.65c-0.45,0.29-0.92,0.55-1.4,0.76C49.96,77.71,48.85,76.18,47.35,75z M51.24,83.15 c0-0.05,0-0.09,0-0.14c0-0.93-0.12-1.83-0.36-2.69c0.5-0.21,0.99-0.47,1.45-0.76c0.3,0.65,0.73,1.26,1.25,1.78 c0.15,0.15,0.3,0.28,0.45,0.41C53.18,82.32,52.23,82.79,51.24,83.15z M58.61,82.58l-6.26-6.26c1.72-0.18,3.39,0.41,4.62,1.64 C58.2,79.19,58.79,80.86,58.61,82.58z M57.78,78.02c-0.13-0.16-0.27-0.31-0.41-0.46c-0.53-0.53-1.13-0.95-1.78-1.25 c0.29-0.46,0.55-0.95,0.76-1.45c0.86,0.23,1.77,0.36,2.69,0.36c0.05,0,0.09,0,0.14,0C58.82,76.21,58.35,77.15,57.78,78.02z M66.23,70.87H51.84c0,0,0,0,0,0c1.77-2.18,4.37-3.43,7.2-3.43S64.46,68.68,66.23,70.87C66.23,70.87,66.23,70.87,66.23,70.87z"/>
        </g>
        <g>
          <path class="st1" d="M198.21,81.13v-20.5c0-0.99,1.04-2.11,1.95-2.97c0.08-0.08,0.11-0.21,0.07-0.31 c-0.04-0.11-0.15-0.18-0.27-0.18h-8.24c-0.12,0-0.22,0.07-0.27,0.18c-0.04,0.11-0.02,0.23,0.07,0.31 c0.91,0.87,1.95,1.99,1.95,2.97v8h-11.51v-8c0-0.99,1.04-2.11,1.95-2.97c0.08-0.08,0.11-0.21,0.07-0.31 c-0.04-0.11-0.15-0.18-0.27-0.18h-8.24c-0.12,0-0.22,0.07-0.27,0.18c-0.04,0.11-0.02,0.23,0.07,0.31 c0.91,0.87,1.95,1.99,1.95,2.97v20.5c0,0.99-1.04,2.11-1.95,2.97c-0.08,0.08-0.11,0.21-0.07,0.31c0.04,0.11,0.15,0.18,0.27,0.18 h8.24c0.12,0,0.22-0.07,0.27-0.18c0.04-0.11,0.02-0.23-0.07-0.31c-0.91-0.87-1.95-1.99-1.95-2.97v-8.17h11.51v8.17 c0,0.99-1.04,2.11-1.95,2.97c-0.08,0.08-0.11,0.21-0.07,0.31c0.04,0.11,0.15,0.18,0.27,0.18h8.24c0.12,0,0.22-0.07,0.27-0.18 c0.04-0.11,0.02-0.23-0.07-0.31C199.26,83.24,198.21,82.12,198.21,81.13z"/>
          <path class="st1" d="M119.97,63.92c0.11-0.04,0.18-0.15,0.18-0.27v-6.2c0-0.16-0.13-0.29-0.29-0.29H99.43 c-0.16,0-0.29,0.13-0.29,0.29v6.2c0,0.12,0.07,0.22,0.18,0.27c0.11,0.04,0.23,0.02,0.31-0.07c0.87-0.91,1.99-1.95,2.97-1.95 h4.67v19.23c0,0.99-1.04,2.11-1.95,2.97c-0.08,0.08-0.11,0.21-0.07,0.31c0.04,0.11,0.15,0.18,0.27,0.18h8.24 c0.12,0,0.22-0.07,0.27-0.18c0.04-0.11,0.02-0.23-0.07-0.31c-0.91-0.87-1.95-1.99-1.95-2.97V61.9h4.67 c0.99,0,2.11,1.04,2.97,1.95C119.74,63.94,119.86,63.97,119.97,63.92z"/>
          <path class="st1" d="M90.44,69.57c-1.3-0.71-1.97-0.96-3-1.34c-0.56-0.21-1.26-0.47-2.23-0.87c-2.66-1.1-3.38-1.75-3.51-3.17 c-0.08-0.85,0.16-1.6,0.67-2.18c0.54-0.6,1.36-0.97,2.36-1.06c0.79-0.07,2.89-0.07,5.25,1.42c1.38,0.87,2.43,1.97,2.44,1.98 c0.06,0.06,0.13,0.09,0.21,0.09l0.46-0.01c0.16,0,0.28-0.13,0.28-0.29V57.2c0-0.14-0.11-0.27-0.25-0.28 c-0.14-0.02-0.28,0.07-0.31,0.21c-0.26,1.02-0.48,1.12-0.98,1.12c-0.31,0-0.74-0.11-1.55-0.37c-1.81-0.67-2.64-0.92-4.23-0.92 c-2.71,0-4.97,0.74-6.54,2.15c-1.6,1.43-2.45,3.51-2.45,6.02c0,4.36,3.63,6.66,7.56,8.49c0.91,0.43,2.2,1.06,2.88,1.46 c1.26,0.73,1.89,1.52,1.97,2.48c0.19,2.09-1.16,3.53-3.52,3.74c-1.82,0.16-3.98-0.6-5.25-1.84c-1.54-1.52-2.56-2.93-2.57-2.95 c-0.07-0.1-0.2-0.14-0.32-0.11c-0.12,0.04-0.2,0.15-0.2,0.27v7.66c0,0.16,0.13,0.29,0.29,0.29h0.25c0.11,0,0.21-0.06,0.26-0.16 c0.15-0.31,0.32-0.42,0.67-0.42c0.28,0,0.73,0.13,1.51,0.38c1.79,0.62,3.36,0.91,5.01,0.91c0.18,0,0.35,0,0.53-0.01 c4.96-0.18,8.7-3.87,8.7-8.58C94.86,73.81,93.16,71.06,90.44,69.57z"/>
          <path class="st1" d="M165.56,69.57c-1.3-0.71-1.97-0.96-3-1.34c-0.56-0.21-1.26-0.47-2.23-0.87c-2.66-1.1-3.38-1.75-3.51-3.17 c-0.16-1.79,1.03-3.06,3.03-3.23c0.79-0.07,2.89-0.07,5.25,1.42c1.38,0.87,2.43,1.97,2.44,1.98c0.06,0.06,0.13,0.09,0.21,0.09 l0.46-0.01c0.16,0,0.28-0.13,0.28-0.29V57.2c0-0.14-0.11-0.27-0.25-0.28c-0.14-0.02-0.28,0.07-0.31,0.21 c-0.26,1.02-0.48,1.12-0.98,1.12c-0.31,0-0.74-0.11-1.55-0.37c-1.81-0.67-2.64-0.92-4.23-0.92c-2.71,0-4.97,0.74-6.54,2.15 c-1.6,1.43-2.45,3.51-2.45,6.02c0,4.36,3.63,6.66,7.56,8.49c0.91,0.43,2.2,1.06,2.88,1.46c1.26,0.73,1.89,1.52,1.97,2.48 c0.19,2.09-1.16,3.53-3.52,3.74c-1.82,0.16-3.98-0.6-5.25-1.84c-1.54-1.52-2.56-2.93-2.57-2.95c-0.07-0.1-0.2-0.14-0.32-0.11 c-0.12,0.04-0.2,0.15-0.2,0.27v7.66c0,0.16,0.13,0.29,0.29,0.29h0.25c0.11,0,0.21-0.06,0.26-0.16c0.15-0.31,0.32-0.42,0.67-0.42 c0.28,0,0.73,0.13,1.51,0.38c1.79,0.62,3.36,0.91,5.01,0.91c0.18,0,0.35,0,0.53-0.01c4.96-0.18,8.7-3.87,8.7-8.58 C169.98,73.81,168.28,71.07,165.56,69.57z"/>
          <path class="st1" d="M146.59,81.57l-1.91-4.2c1.21-0.74,1.86-1.7,2.19-2.36c0.02-0.04,0.03-0.09,0.03-0.14v-1.12 c0-0.12-0.07-0.23-0.18-0.28c-0.11-0.05-0.24-0.03-0.33,0.05c-0.55,0.48-1.47,1.01-2.92,1.17l-8.17-18.02 c-0.05-0.1-0.15-0.17-0.26-0.17h-1.35c-0.11,0-0.21,0.07-0.26,0.17l-6.6,14.52c-0.7,0.12-1.34,0.32-1.93,0.6 c-2.38,1.15-2.95,3.26-2.97,3.35c-0.02,0.09,0,0.19,0.06,0.27c0.06,0.08,0.15,0.12,0.25,0.12h1.39c0.17,0,0.31-0.14,0.31-0.31 c0-0.21,0.17-0.39,0.39-0.39c0,0,0.01,0,0.01,0c0.24-0.01,0.51,0,0.83,0.03l-3.05,6.71c-0.76,1-2.24,2.53-2.26,2.55 c-0.08,0.08-0.1,0.21-0.06,0.31c0.05,0.11,0.15,0.17,0.26,0.17h7.31c0.16,0,0.29-0.13,0.29-0.29v-0.25 c0-0.11-0.06-0.21-0.16-0.26c-0.31-0.15-0.42-0.32-0.42-0.67c0-0.28,0.13-0.73,0.37-1.51l2.33-5.64 c1.2,0.36,2.68,0.82,4.53,1.41c2.23,0.71,4.07,1.02,5.61,1.06c0.77,1.85,1.3,3.14,1.32,3.18c0.23,0.56,0.37,1.21,0.37,1.5 c0,0.35-0.1,0.52-0.42,0.67c-0.1,0.05-0.16,0.15-0.16,0.26v0.25c0,0.16,0.13,0.29,0.29,0.29h7.31c0.12,0,0.22-0.07,0.26-0.17 c0.04-0.11,0.02-0.23-0.06-0.31C148.83,84.1,147.35,82.57,146.59,81.57z M134.33,64.99c0.32,0.77,2.04,4.9,3.68,8.85 c-0.65-0.23-1.35-0.5-2.1-0.83c-1.53-0.68-2.95-1.18-4.27-1.51L134.33,64.99z"/>
        </g>
      </g>
    </g>
  </g>
</svg>