<?xml version="1.0" encoding="UTF-8"?>
<svg id="Capa_8" data-name="Capa 8" xmlns="http://www.w3.org/2000/svg" viewBox="0 0 360 360">
  <defs>
    <style>
      .cls-1 {
        fill: #d7b687;
      }

      .cls-2 {
        fill: #00503a;
      }
    </style>
  </defs>
  <circle class="cls-2" cx="180" cy="180" r="163.36"/>
  <g>
    <path class="cls-1" d="m195.03,169.78c.42-.95.82-1.92,1.2-2.9,11.33-29.12,2.6-60.26-19.29-73.37-.03-.02-.04-.05-.06-.07-.08-.06-.18-.07-.26-.13-1.99-1.17-4.06-2.25-6.26-3.11-13.04-5.07-27.64-3.72-41.1,3.79-13.24,7.39-23.81,19.92-29.78,35.25-5.97,15.34-6.63,31.71-1.87,46.11,6.58,19.9,23.27,33.57,43.85,33.57s43-14.99,53.57-39.15Zm-90.64,3.33c-4.24-12.82-3.62-27.48,1.74-41.28,5.36-13.79,14.81-25.02,26.61-31.61,7.01-3.92,14.34-5.9,21.49-5.9,4.64,0,9.21.84,13.55,2.53.38.15.74.35,1.11.51-2.04,1.93-4.21,3.5-6.47,5.09-5.7,4-12.16,8.52-16.7,20.2-4.54,11.68-2.84,19.38-1.34,26.17,1.46,6.64,2.73,12.38-1.03,22.05-3.76,9.67-8.57,13.04-14.14,16.95-2.96,2.08-6,4.26-8.9,7.39-7.25-5.01-12.77-12.61-15.91-22.09Zm23.55,26.16c-.38-.15-.74-.35-1.12-.51,2.04-1.94,4.21-3.5,6.47-5.09,5.7-4,12.15-8.52,16.7-20.2,4.54-11.68,2.84-19.38,1.34-26.17-1.46-6.64-2.73-12.38,1.03-22.04,3.76-9.67,8.57-13.04,14.14-16.95,2.96-2.07,5.99-4.26,8.88-7.37,17.4,12.06,23.86,38.48,14.18,63.35-.35.89-.71,1.77-1.09,2.63-11.72,26.79-38.32,40.99-60.55,32.35Z"/>
    <path class="cls-1" d="m258.49,190.5c-.34-.71-.69-1.44-1.04-2.13-10.01-19.43-27.34-32.89-46.36-36.02-1.97-.32-3.78,1-4.1,2.94-.32,1.95,1,3.78,2.94,4.1,16.55,2.72,32.33,15.07,41.18,32.26.33.63.63,1.27.93,1.91l.31.65c12.35,26.76,5.28,56.33-16.1,67.33-.39.2-.79.33-1.18.52-.1-2.85.17-5.54.49-8.33.8-6.97,1.71-14.87-4.07-26.09-5.76-11.23-12.69-15.11-18.81-18.54-5.34-2.99-10.39-5.82-14.9-13.62l-1.84-3.45c-.92-1.72-3.02-2.32-4.76-1.43-1.73.9-2.4,3.08-1.53,4.83,1.03,2.06.5,1.17,1.93,3.6,0,0,0,0,0,.01,5.49,9.51,11.92,13.11,17.6,16.29,5.99,3.36,11.17,6.26,15.95,15.57,4.79,9.3,4.11,15.19,3.33,22.02-.42,3.62-.8,7.37-.39,11.64-20.74,5.07-44.99-7.73-57.28-31.67-2.89-5.64-4.94-11.5-6.1-17.41-.38-1.93-2.26-3.2-4.19-2.82-1.93.38-3.2,2.26-2.82,4.19,1.29,6.57,3.56,13.06,6.75,19.29,11.77,22.91,33.53,36.65,54.48,36.65,7.28,0,14.95-2.02,20.58-4.91,24.79-12.76,33.27-46.44,19.29-76.73l-.32-.68Z"/>
  </g>
</svg>