<?xml version="1.0" encoding="utf-8"?>
<!-- Generator: Adobe Illustrator 27.4.1, SVG Export Plug-In . SVG Version: 6.00 Build 0)  -->
<svg version="1.1" id="Layer_1" xmlns="http://www.w3.org/2000/svg" xmlns:xlink="http://www.w3.org/1999/xlink" x="0px" y="0px"
	 viewBox="0 0 425.2 283.5" style="enable-background:new 0 0 425.2 283.5;" xml:space="preserve">
<g>
	<g>
		<g>
			<g>
				<path d="M119.2,156.5c5.1-1.2,9.9-2.3,14.7-3.4c0-1.6,0.1-3.1,0-4.6c-0.4-7.7-0.7-15.5-1.1-23.2c-0.2-3.3,2.3-5.7,4.4-6.3
					c1.8-0.6,3.6-0.8,5.5,0c1.8,0.7,2.9,2,3,4c0.2,4.3,0.5,8.6,0.7,12.9c0.5,8.3,0.9,16.5,1.4,24.8c0.3,5.8,0.6,11.6,0.9,17.3
					c0.2,3.4,0.3,6.8,0.6,10.2c0.2,2.5-1,4.2-3.1,5.4c-1.6,0.9-3.3,1.2-5.1,1c-2.9-0.4-4.8-2.5-5.1-5.2c-0.2-2.6-0.3-5.2-0.5-7.7
					c-0.2-4.6-0.4-9.3-0.7-13.9c0-0.3-0.1-0.6-0.1-0.8c-1.7-0.3-12.7,2.4-15.3,3.7c0,0.4,0,1,0,1.5c0.1,7.2,0.2,14.4,0.3,21.7
					c0,2.8-1.3,4.6-3.7,5.8c-1.6,0.8-3.2,1-5,0.6c-2.4-0.6-4.2-2.4-4.5-5.3c-0.2-2.3-0.2-4.7-0.2-7c-0.2-19.5-0.3-38.9-0.5-58.4
					c0-1.9-0.1-3.7-0.1-5.6c0-2.1,0.6-4,2.1-5.4c2.2-2,4.7-2.6,7.5-1.6c2.3,0.8,3.4,2.4,3.4,4.8c0.1,7.7,0.2,15.3,0.3,23
					c0,3.5,0.1,7,0.1,10.5C119.2,155.3,119.2,155.8,119.2,156.5z"/>
				<path d="M341,100.1c0,2.4-0.1,4.7,0,7c0.3,9.7,0.5,19.3,0.8,29c0.1,4.4,0.4,8.9,0.5,13.3c0.1,4.1,0.4,10.9-0.1,13.2
					s-2.3,5.4-6.5,5.4c-1.6,0-3.1-0.4-4.1-1.4c-0.9-0.9-1.6-2-1.9-3.3c-0.9-2.9-1-5.9-1.1-8.9c-0.3-6.9-0.6-13.9-0.9-20.8
					c-0.3-7-0.6-14-0.9-21.1c-0.1-2.4-0.2-4.8-0.4-7.2c0-0.5-0.1-1-0.2-1.7c-1.9,0.5-3.8,1-5.6,1.4c-3.9,1-7.9,1.9-11.8,2.8
					c-2,0.4-3.9,0.2-5.9-0.6c-3.4-1.6-5-8.2-0.4-11.2c1.8-1.1,3.9-1.5,5.9-2c5.4-1.2,10.9-2.4,16.3-3.7c9.5-2.2,19-4.5,28.6-6.7
					c1.6-0.4,3.2-0.4,4.7,0c3.3,0.9,5.7,4.8,3.8,8.6c-0.7,1.4-1.8,2.4-3.3,3c-3.3,1.4-6.8,2-10.2,2.9C346,98.9,343.5,99.4,341,100.1
					z"/>
				<path d="M269.6,140.1c0.2,6.6-1.6,12.4-5.9,17.3c-1.8,2.1-4.1,3.9-6.7,5.2c-2.8,1.4-5.6,1.8-8.6,1.3c-2.6-0.4-5.1-1.1-7.4-2.5
					c-3.7-2.2-5.9-5.5-7-9.6c-1.2-4.5-1.2-8.9-0.4-13.5c0.9-5,3.1-9.3,6.5-13c2.5-2.7,5.8-4,9.5-4.5c5.5-0.7,9.9,1.4,13.7,5
					c3.3,3.1,5.5,6.8,6.2,11.4C269.5,138.2,269.5,139.2,269.6,140.1z M256.1,140.3c0.2-1.5-0.2-3-0.9-4.5c-0.7-1.4-1.7-1.9-3.3-1.6
					c-2.6,0.5-4,2.3-4.8,4.6c-0.4,1.2-0.6,2.5-0.8,3.8c-0.3,2.3,0,4.5,1.1,6.5c0.8,1.4,1.9,1.9,3.5,1.6c1.4-0.3,2.4-1.2,3.1-2.4
					C255.5,145.9,256.1,143.2,256.1,140.3z"/>
				<path d="M276.9,133.5c0-2.3,0.2-3.5,0.4-5.3c0.2-1.8,0.9-3.7,1.6-4.8c1.1-1.4,2.3-2.1,4.2-2.3s3.9,0.3,5.4,1.4
					c1.5,1.1,1.5,2.7,1.6,4.2c0.2,3.3,0.5,6.7,0.6,10c0.1,3.1,0.5,6.1,1.2,9.1c0.2,1.1,1.1,3.3,3.4,3.3c1.9,0,4.2-3.1,5-4.7
					c1.4-3.1,1.8-6.3,2.5-9.6c0.4-1.9,0.7-3.8,1.2-5.7c0.4-1.8,1.2-3.6,2.5-5.1c0.9-1.1,2-1.9,4.5-1.9s3.8,1.2,4.7,3.3
					c0.5,1.1,0.7,2.3,0.7,3.5c0,3.4-0.5,6.8-1.4,10.1c-0.7,2.5-1.4,5-2.1,7.4c-1.5,4.8-3.7,9.2-7.1,13c-5.6,5.8-17.3,5.5-21.9-1
					c-4.3-5.9-4.8-8.9-6-14.2C277.1,140.9,276.9,135.8,276.9,133.5z"/>
				<path d="M62.7,167.8c0-8.3,2.9-13.4,6.4-17.9c4.9-6.2,11.6-9.1,17.6-9.1c3.8-0.1,7.5,0.4,10.5,3.1c2.3,2.1,2.8,4.7,1.6,7.1
					s-2.9,3.3-5.3,3.1c-1.6-0.1-3.2-0.4-4.8-0.6c-2.5-0.3-5,0.1-7.1,1.7c-4.2,3.3-6.1,7.5-5.7,12.8c0.2,3.3,1.6,6.1,4.6,7.8
					c1.6,0.9,3.4,1.2,5.3,1.2c2.1,0,4.2-0.2,6.3-0.4c1.2-0.1,2.3,0,3.3,0.6c2.3,1.4,3.2,4.6,2.1,7.1c-2.3,4.5-9.1,5.3-12.2,5.5
					c-3.1,0.1-8.2-0.3-11.7-2.4C67.5,184,62.7,178.2,62.7,167.8z"/>
				<path d="M195.2,172.8c2.2,0.4,7.3-0.3,9.9,1.1s2.1,7.3,0.3,9.7c-1.1,1.5-2.7,2.1-4.5,2.2c-3.3,0.1-12.4-0.6-14.7-1.4
					c-2.2-0.8-3.8-3.4-4-6.2c-0.1-3.3-0.3-6.7-0.3-10c-0.1-14.3-0.2-28.5-0.3-42.8c0-1.4,0.2-2.8,0.5-4.1c0.7-2.8,3.1-4.5,5.6-4.5
					c5.1,0,6.4,2.4,6.7,5.8c0.9,11.4,0.5,22.8,0.6,34.1C195.2,161.5,195.2,172.3,195.2,172.8z"/>
				<path d="M223.7,165c2.3,0,4.3-0.4,6.8,0c2.9,0.4,3.4,4.2,3.4,6.6c0,2.5-0.4,4.7-2.7,5.8c-3.7,1.7-12.8,1.5-15.6,1
					c-2.4-0.5-3.7-2.1-4-4.5c-0.3-2.6-0.6-5.2-0.9-7.8c-0.5-5.8-0.9-11.5-1.4-17.3c-0.4-5.1-0.8-10.1-1.2-15.2
					c-0.3-4.2-0.7-8.4-0.9-12.6c-0.1-1.4,0-2.8,0.3-4.1c0.6-2.7,3-4.4,5.4-4.5c2.8-0.2,4.2,0.6,5.1,1.5c0.9,0.9,1.4,2,1.6,3.2
					c1,6.1,1.5,12.3,2,18.5c0.5,7.2,1.1,14.5,1.7,21.7C223.4,159.9,223.5,162.5,223.7,165z"/>
				<path d="M172.1,170c0,1.1-0.2,2.2-0.4,3.2c-0.7,2.8-2.8,4-5.4,4.5c-4.3,0.9-7.6-2-7.7-6.9c-0.1-5.2-0.1-10.4-0.2-15.6
					c-0.1-6.7-0.3-13.5-0.5-20.2c-0.1-3.8,2.9-7.2,6.7-7.6c3.5-0.4,7.5,2.4,7.5,6.6c0,2.1,0,4.1,0,6.2c0,2.1,0,4.1,0,6.2
					c0,2.1,0,4.1,0,6.2C172,152.5,172.1,164.2,172.1,170z"/>
				<path d="M171.9,114.6c0,1.8-0.5,3.3-1.4,4.7c-1.7,2.5-4.2,3.1-7,2.9c-2.3-0.3-5.2-2.5-5.7-4.9c-0.6-2.9,0.2-5.3,2.1-7.4
					c2-2.3,4.8-3,7.7-2.3c1.7,0.4,3.2,2.6,3.5,3.4S171.9,112.9,171.9,114.6z"/>
			</g>
			<g>
				<path d="M349.3,162.8c0-3.1,2.5-5.7,5.7-5.7c3.1,0,5.7,2.5,5.7,5.7c0,3.1-2.6,5.7-5.7,5.7C351.8,168.5,349.3,166,349.3,162.8z
					 M359.5,162.8c0-2.5-2-4.5-4.5-4.5c-2.5,0-4.5,2-4.5,4.5c0,2.5,2,4.5,4.5,4.5C357.4,167.3,359.5,165.3,359.5,162.8z
					 M354.7,163.6h-0.6v2.1H353V160h2.1c1,0,1.9,0.6,1.9,1.8c0,0.9-0.5,1.5-1.2,1.8l1.4,2.2H356L354.7,163.6z M355.1,162.5
					c0.5,0,0.9-0.3,0.9-0.7c0-0.4-0.3-0.8-0.8-0.8h-1v1.5H355.1z"/>
			</g>
		</g>
		<g>
			<path d="M254.5,179.9c-0.7,0.3-1.3,0.6-1.8,0.9c-0.3,0.1-0.6,0.3-0.9,0.4c-0.7,0.2-1.3-0.1-1.6-0.6c-0.2-0.6-0.1-1.2,0.6-1.6
				c0.9-0.5,1.9-1,2.9-1.5c1.4-0.7,2.8-1.3,4.3-1.9c0.2-0.1,0.4-0.2,0.7-0.3c0.6-0.1,1.1,0,1.4,0.7c0.3,0.6,0.1,1.1-0.4,1.5
				c-0.3,0.2-0.6,0.4-1,0.6c-0.5,0.2-1,0.5-1.6,0.7c0.4,2.1,0.9,4.2,1.3,6.4c0.3,1.4,0.6,2.8,0.7,4.2c0.1,0.9,0.1,1.8-0.2,2.7
				c-0.6,1.9-3,2.7-4.6,1.5c-0.7-0.5-0.9-1.1-0.6-1.7c0.3-0.6,0.9-0.8,1.7-0.6c1.1,0.3,1.2,0.2,1.3-0.9c0-0.6-0.1-1.2-0.2-1.8
				c-0.5-2.6-1-5.2-1.6-7.8C254.7,180.5,254.6,180.2,254.5,179.9z"/>
			<path d="M329.7,185.2c0,0.4-0.2,1.2-0.7,1.7c-0.8,0.9-1.9,1.7-2.9,2.4c-0.6,0.4-1.3,0.2-1.6-0.4c-0.3-0.5-0.3-1.1,0.3-1.6
				c0.4-0.4,0.9-0.7,1.3-1c1.4-0.9,1.2-1.9,0.3-3.1c-0.3-0.4-0.8-0.7-1.2-1c-1.7-1.3-2.1-2.7-1.6-4.7c0.4-1.5,1.3-2.6,2.4-3.6
				c0.4-0.3,0.9-0.5,1.4-0.6c0.6-0.1,1.1,0.2,1.3,0.8c0.2,0.6-0.1,1-0.6,1.4c-0.7,0.5-1.4,1.1-1.8,1.7c-0.6,1-0.8,2.3,0.6,3.2
				C328.6,181.5,329.7,183.6,329.7,185.2z"/>
			<path d="M279.6,185.1c-1.6,0-1.7,0.1-1.9,1.4c-0.3,2.5-0.6,5-1,7.6c0,0.3-0.1,0.7-0.2,1c-0.3,0.8-0.9,1.2-1.6,1.1
				c-0.6-0.1-1-0.7-0.9-1.5c0.1-1.2,0.3-2.3,0.4-3.5c0.6-5.1,1.7-10,3-14.9c0.3-1,0.3-2.1,1.6-2.3c1.2-0.2,2.5,0,3.4,1.1
				c0.9,1.1,1.5,2.3,1.5,3.7c0.1,1.7-0.2,3.4-1.5,4.7c-0.4,0.4-0.4,0.9-0.3,1.4c0.6,3.6,1.2,7.2,1.8,10.9c0,0.2,0,0.4,0,0.6
				c-0.1,0.7-0.6,1.3-1.2,1.3c-0.6,0-1.1-0.4-1.3-1.1c-0.2-1.2-0.4-2.4-0.6-3.6c-0.2-1.7-0.4-3.4-0.7-5
				C280,186.8,279.8,185.9,279.6,185.1z M278.5,182.4c1.7-0.2,2.4-0.8,2.7-2.1c0.4-1.7,0-3-1.2-3.8
				C279.5,178.5,279,180.4,278.5,182.4z"/>
			<path d="M265.4,186.6c-0.2,1.3-0.5,2.6-0.7,3.9c-0.1,0.5-0.2,0.9-0.3,1.4c-0.2,0.8-0.8,1.1-1.5,0.9c-0.6-0.1-1.1-0.7-1-1.5
				c0.1-0.9,0.3-1.8,0.5-2.6c0.7-4.1,1.6-8.1,3.1-12c0.4-1,0.9-1.9,1.5-2.9c0.5-0.8,1.3-1.3,2.3-1.1c0.8,0.2,1.3,0.8,1.4,2.1
				c0.4,4.1,0.7,8.3,0.7,12.4c0,1.2,0.2,2.3,0.2,3.5c0,0.5-0.1,1-0.2,1.5c-0.2,0.7-0.8,1-1.4,0.9c-0.6-0.1-1-0.6-1-1.3
				c0-1.6-0.1-3.2-0.1-4.8c0-0.2-0.1-0.4-0.1-0.6C267.7,186.4,266.6,186.5,265.4,186.6z M266,184c1-0.2,1.8-0.3,2.8-0.4
				c-0.1-2.2-0.3-4.3-0.4-6.3c0-0.3-0.2-0.3-0.3,0C267.1,179.3,266.5,181.5,266,184z"/>
			<path d="M290.2,190.1c-0.2,1.3-0.5,2.6-0.7,3.9c-0.1,0.5-0.2,0.9-0.3,1.4c-0.2,0.8-0.8,1.1-1.5,0.9c-0.6-0.1-1.1-0.7-1-1.5
				c0.1-0.9,0.3-1.8,0.5-2.6c0.7-4.1,1.6-8.1,3.1-12c0.4-1,0.9-1.9,1.5-2.9c0.5-0.8,1.3-1.3,2.3-1.1c0.8,0.2,1.3,0.8,1.4,2.1
				c0.4,4.1,0.7,8.3,0.7,12.4c0,1.2,0.2,2.3,0.2,3.5c0,0.5-0.1,1-0.2,1.5c-0.2,0.7-0.8,1-1.4,0.9c-0.6-0.1-1-0.6-1-1.3
				c0-1.6-0.1-3.2-0.1-4.8c0-0.2-0.1-0.4-0.1-0.6C292.4,189.9,291.3,190,290.2,190.1z M290.8,187.6c1-0.2,1.8-0.3,2.8-0.4
				c-0.1-2.2-0.3-4.3-0.4-6.3c0-0.3-0.2-0.3-0.3,0C291.8,182.9,291.2,185,290.8,187.6z"/>
			<path d="M315.9,177.9c-0.4,2.2-0.7,4.3-1.1,6.6c0.5,0,0.8-0.1,1.2-0.1c0.6,0,1.2,0,1.8,0.1c1,0.2,1.4,0.8,1.3,1.6
				c-0.1,0.7-0.6,1-1.6,0.9c-0.4,0-0.9-0.1-1.3,0c-1.4,0.2-1.9,0.6-2.1,2c-0.2,1.2-0.3,2.3-0.5,3.7c0.5,0.1,0.9,0.2,1.3,0.2
				c0.7,0,1.3,0,2,0c0.8,0,1.2,0.4,1.3,1.1c0.1,0.6-0.4,1.4-1.1,1.4c-1.7,0.1-3.5,0.1-5.2-0.4c-1-0.3-1.2-1-1-2.2
				c0.3-2.1,0.7-4.3,1-6.4c0.4-2.7,0.9-5.4,1.3-8.1c0.1-0.4,0.1-0.7,0.2-1.1c0.4-1.4,0.5-1.6,2-1.8c1.2-0.1,2.3-0.3,3.5-0.4
				c0.3,0,0.7,0,1,0c0.7,0.2,1,0.7,1,1.3c-0.1,0.7-0.4,1-1.1,1.1c-0.6,0.1-1.3,0.1-2,0.1C317.3,177.7,316.6,177.8,315.9,177.9z"/>
			<path d="M301.2,182.3c-0.5,3.7-0.7,7.4-0.6,11.1c0,0.1,0,0.3,0,0.4c0.1,2,1.2,2.6,3.1,1.9c2.6-1,4.3-4.4,3.5-7
				c-0.4-1.2-1.2-2.1-2.2-2.7c-1.3-0.8-1.6-1.8-1.4-3.3c0.3-1.8,0.4-3.7,0.7-5.6c0.1-0.9-0.4-1.6-1.2-1.6c-0.7-0.1-1.3,0.4-1.4,1.3
				C301.5,178.6,301.4,180.5,301.2,182.3z M303.2,187.9c2.2,1.4,2.2,3.3,0,5C303.2,191.2,303.2,189.7,303.2,187.9z"/>
		</g>
	</g>
</g>
</svg>
