<?xml version="1.0" encoding="utf-8"?>
<!-- Generator: Adobe Illustrator 25.2.0, SVG Export Plug-In . SVG Version: 6.00 Build 0)  -->
<svg version="1.1" id="Livello_1" xmlns="http://www.w3.org/2000/svg" xmlns:xlink="http://www.w3.org/1999/xlink" x="0px" y="0px"
	 viewBox="0 0 76.4 16.3" style="enable-background:new 0 0 76.4 16.3;" xml:space="preserve">
<style type="text/css">
	.st0{fill:#98989A;}
</style>
<g>
	<g>
		<path class="st0" d="M26.7,11.9c-0.4,1.9-2.6,4.4-6.2,4.4s-6.7-2.9-6.7-6.7c0-3.5,2.8-6.8,6.6-6.8s6.7,3,6.7,6.9
			c0,0.5,0,0.7-0.1,1h-9.5c0.2,1.5,1.5,2.4,3,2.4c1.2,0,1.8-0.5,2.3-1.2C22.8,11.9,26.7,11.9,26.7,11.9z M23.3,8.1
			C23.2,7.4,22.4,6,20.5,6c-2,0-2.7,1.4-2.9,2.2L23.3,8.1L23.3,8.1z"/>
		<path class="st0" d="M34.7,2.8c-4.6,0-6.8,3.6-6.8,6.7s2.2,6.7,6.8,6.7c1.1,0,2.1-0.4,3-1.1l0.4,0.7h3.4V9.5
			C41.4,6.4,39.2,2.8,34.7,2.8z M34.7,13c-1.8,0-3.3-1.5-3.3-3.5S32.9,6,34.7,6S38,7.5,38,9.5C38,11.6,36.5,13,34.7,13z"/>
		<path class="st0" d="M51.8-0.1v3.5c-0.9-0.4-1.9-0.6-3-0.6c-4.6,0-6.8,3.6-6.8,6.7s2.2,6.7,6.8,6.7s6.8-3.6,6.8-6.7v-9.6
			C55.6-0.1,51.8-0.1,51.8-0.1z M48.8,13c-1.8,0-3.3-1.5-3.3-3.5S47,6,48.8,6s3.3,1.5,3.3,3.5C52.1,11.6,50.6,13,48.8,13z"/>
		<path class="st0" d="M63,2.8c-3.7,0-6.7,3-6.7,6.7s3,6.7,6.7,6.7c3.7,0,6.7-3,6.7-6.7S66.7,2.8,63,2.8z M63,13
			c-1.9,0-3.5-1.6-3.5-3.5S61,6,63,6c1.9,0,3.5,1.6,3.5,3.5S64.9,13,63,13z"/>
		<path class="st0" d="M6.7,13c-1.9,0-3.5-1.6-3.5-3.5S4.8,6,6.7,6c1.4,0,2.6,0.8,3.2,2.1h3.4c-0.6-3-3.4-5.3-6.6-5.3
			C3,2.8,0,5.8,0,9.5s3,6.7,6.7,6.7c3.3,0,6.1-2.4,6.6-5.6H10C9.5,12,8.3,13,6.7,13z"/>
	</g>
	<path class="st0" d="M70.9,13.5c0-1.6,1.2-2.7,2.7-2.7s2.7,1.1,2.7,2.7s-1.2,2.8-2.7,2.8C72.1,16.2,70.9,15.1,70.9,13.5z"/>
</g>
</svg>
