<?xml version="1.0" encoding="utf-8"?>
<!-- Generator: Adobe Illustrator 27.4.1, SVG Export Plug-In . SVG Version: 6.00 Build 0)  -->
<svg version="1.1" id="Layer_1" xmlns="http://www.w3.org/2000/svg" xmlns:xlink="http://www.w3.org/1999/xlink" x="0px" y="0px"
	 viewBox="0 0 2363.6 1700.8" style="enable-background:new 0 0 2363.6 1700.8;" xml:space="preserve">
<style type="text/css">
	.st0{fill-rule:evenodd;clip-rule:evenodd;}
</style>
<g>
	<g>
		<path d="M88.9,197.8V1503c0,0,469.4-151.1,1069.6-150.9c600.1,0.2,1070.1,150.9,1070.1,150.9V197.8H88.9z M2185.9,1445
			c0,0-451.3-136.6-1027.4-136.8C582.4,1308.1,131.7,1445,131.7,1445V240.8h2054.2V1445z"/>
	</g>
	<g>
		<path d="M1318.3,948.8c-15.9-10.7-46.5,3.5-78.8,23.2c-51.6,31.4-107.7,78-116.3,68.7c-18.3,0.8,56.7-118.2,56.7-118.2
			c134.1-120.3,231.5-186.2,297.2-258.6c9.8-11,42.1-44,68.7-84c11.9-17.8,15-26,17.7-38.5c2.5-12.2-11.1-14.5-18.9-17.5
			c-23.2-8.8-87.4,18.9-121.6,41.9c-61.9,41.8-92.2,65.9-142.7,124.3c-52.8,61.1-76.9,93.9-140.2,210c-2.3,4.3-51.5,42.8-77,59.8
			c-29.5,19.7-105.1,75-123.3,52.6c41.2-28.8,108.1-77.3,138-116.5c17.8-23.4,21.2-41.8,5.3-51.6c-20.6-12.6-65-8.7-114.2,19.2
			c-47.4,26.8-79.8,79.4-91.6,141.3c-0.9,4.9-94.3,78.4-116.7,68.1c-12.9-5.9-1.9-44,60-149.9C882,818,966.9,708.4,975.7,695.8
			c17.5-25.3-12.1-25.3-23.8-23.8c-5.7,0.8-49.7,30.6-78.5,52.4c-55.2,45.1-131,115.3-169.7,154.2c46.9-75.4,83.5-127.4,112.8-175.8
			c42-69.6,83.1-118.2,64.6-127.2c-27.4-8.2-61.3,24.8-111.1,72.1c-44.5,42.3-106.7,106.2-139.3,134c29-37.1,80.6-115.4,119.3-175.9
			c74-115.1,121.4-199.1,110.8-208.3c-24.9-23.7-85.5,27.3-138.5,80.8C592.7,609,463.9,761.9,353.1,911.9
			c-45.7,61.9-94.5,138.3-126.3,194.2c-2,3.5,8.2,10.1,13,3.7c91.1-123.3,178.1-235.4,268.5-343.5
			c64.8-77.4,172.4-195.5,247.7-264.2C717,559.4,633.2,700.5,574.4,794.1c-56.7,90.3-121.7,194.7-129.2,213.7
			c-4.9,12.2,12.8,32.7,26.7,17c53.6-62.1,86.7-102,132.5-156c33.2-39.2,111.1-118.8,153-152.1c-12.7,23.2-73.7,106.5-109.3,170.2
			c-22.1,39.5-67.4,113.7-68.5,124.2c-1,10.5,14.6,34.5,26.7,25.9c48.1-47.7,181.6-184.1,242-234.2
			c-69.3,83.2-144.8,221.3-139.8,264.6c1.6,14.3,11.7,57.8,63.9,46.7c45.8-9.7,127-73.5,127-73.5c4.6,10.6,24.3,23.8,38.7,23.8
			c41-0.2,86.3-29.5,151.1-70.3c-17.4,45.3-29.2,70.7-26.5,83.7c2.1,10,8.2,19.5,26.4,19.8c4.8,0.1,18,0.6,59.3-23
			c29.5-18.4,92.5-60.4,105.1-68.6c-11.7,20.1-33.4,49.7-30.3,58.8c4.6,14,31.9,11.4,47.5-2.2c7.6-6.7,16.3-22.7,30.7-48.7
			C1317.5,984.8,1329.3,956.2,1318.3,948.8z M1475.2,583.3c7.2,9-33.5,51.8-52.6,68.8c-60.1,53.4-111.1,109.1-196.9,174
			C1278.4,734.2,1460.1,564.5,1475.2,583.3z M934.5,979.2c0,0,3.7-35.1,41.2-76.3c20.8-22.9,47.7-32.4,57.1-28.6
			c14.2,6.3-15.3,34.6-28.4,46.3C975,947,934.5,979.2,934.5,979.2z"/>
		<path d="M1378.4,848.6c-12.1-22.8-42.7-14.4-59.4,16.6c-9.2,17.1-5.4,38.3,14.3,41.8C1361.5,911.9,1389.9,870.4,1378.4,848.6z"/>
		<path d="M1763.7,1088.2c-10.5,0.1-20.6-3.1-25.2-9.8c-4.4-6.5-5.4-12.7-4.8-21.2c3.5-45.5,66.9-111.9,75.9-121.6
			c5.7-9.2-3.9-23.4-24.8-14c-14.7,6.6-26,17.4-26,17.4s-16-17.4-40.2-19.7c-28.1-2.7-55.4,9.6-72.7,22.2c0,0-46.7,7.5-73.1,9.8
			c62.6-116.7,149-207.3,158.9-222.9c3.8-6,7.2-13.4-1.5-14.8c-10.4-1.6-23.7,0.4-33.1,7.9c-42.7,34.3-103.1,113.8-103.1,113.8
			s-90,56.8-133.6,83.7c49.5-88.2,99.2-167.2,170.2-254.8c3.7-4.6,6.7-7.9,2.7-8.9c-6.8-1.7-24.9,1.5-30.1,3.4
			c-16.7,6.5-27.5,17.6-40.1,32.1c-78.8,90.7-171.4,250.8-171.4,250.8s-12,3.5-29.8,6.8c-25.8,4.9,7.9,26.2,2.9,43
			c-9.5,31.6-13.5,37.8-20.7,60.6c-5.1,16.6,31.4,22,38,7.3c32.7-72.5,49-95.4,49-95.4s96.4-65.1,141.4-92.9
			c-15,28.7-53.3,83.6-53.3,83.6s-9.9,0-30.4,2.2c-5.4,0.6-10.5,11.6-9.2,13.6c10.8,15.7,17.7,20,11.2,33.3
			c-10.2,20.9-11.9,31.3-23.7,58.5c-10.8,24.9,37.5,21,48.1-2.6c27.9-62.5,39.4-75.9,39.4-75.9l58.4-11.3c0,0-10.2,8.8-21.1,23.7
			c-17.6,24.2-28.2,62.5,18.7,76.1c28.1,8.1,64-11.6,85.6-27.3c-11.7,31.1,2.9,59.8,28.4,73c55.2,28.8,146.1-46,170.5-78.6
			C1860.6,1056.3,1800.3,1088,1763.7,1088.2z M1679,1030.3c-15.8,5.7-36.4,5.7-38-10.9c-2.3-22.9,21.6-44,39.2-52.9
			c24.4-12.4,48.3-3.5,47.7,13.5C1727.4,992.4,1704.4,1020.9,1679,1030.3z"/>
	</g>
	<path class="st0" d="M1962.8,670h21.6c11,0,22.9,2.2,22.9,16.1c0,16.6-13.1,17.3-27.5,17.3h-17V670z M1946.5,761.5h16.3v-45.1h17.2
		l28.6,45.1h17.5l-30-46.3c15.6-1.7,27.6-9.5,27.6-28.5c0-20.1-11.7-30-36.6-30h-40.5V761.5z M1907.5,708.8c0-42.9,32.1-76,74-76
		c41.5,0,73.5,33.1,73.5,76c0,43.9-32,76.9-73.5,76.9C1939.6,785.7,1907.5,752.7,1907.5,708.8 M1891.2,708.8
		c0,51.5,41.2,90.1,90.3,90.1c48.9,0,89.9-38.6,89.9-90.1c0-50.5-41-89.1-89.9-89.1C1932.4,619.7,1891.2,658.2,1891.2,708.8"/>
</g>
</svg>
