<?xml version="1.0" encoding="utf-8"?>
<!-- Generator: Adobe Illustrator 27.4.1, SVG Export Plug-In . SVG Version: 6.00 Build 0)  -->
<svg version="1.1" id="Capa_1" xmlns="http://www.w3.org/2000/svg" xmlns:xlink="http://www.w3.org/1999/xlink" x="0px" y="0px"
	 viewBox="0 0 185 234.2" style="enable-background:new 0 0 185 234.2;" xml:space="preserve">
<style type="text/css">
	.st0{fill:#6D5446;}
</style>
<g>
	<path class="st0" d="M82.3,204.7c0,1.8,0.4,4.9,0.4,4.9s-1.8-2.4-3-3.6l-13.3-12.3h-0.6v26.5h5.1v-10.9c0-1.8-0.4-4.9-0.4-4.9
		s1.8,2.4,3,3.6l13.3,12.5h0.6v-26.7h-5.1C82.3,193.8,82.3,204.7,82.3,204.7z"/>
	<polygon class="st0" points="98.3,211.4 108.8,211.4 108.8,206.7 98.3,206.7 98.3,198.4 110.2,198.4 110.2,193.8 92.8,193.8 
		92.8,220.1 110.8,220.1 110.8,215.2 98.3,215.2 	"/>
	<polygon class="st0" points="48.4,211.4 58.9,211.4 58.9,206.7 48.4,206.7 48.4,198.4 60.3,198.4 60.3,193.8 42.9,193.8 
		42.9,220.1 60.9,220.1 60.9,215.2 48.4,215.2 	"/>
	<path class="st0" d="M38.2,203.7c0-6.5-4.4-9.9-11.7-9.9h-7.3v26.3h5.5v-6.5h1.6c0.4,0,1,0,1.6-0.2l4.2,6.7h6.3l-5.5-8.3
		C36.4,210.4,38.2,207.7,38.2,203.7z M26.3,208.7h-1.6v-10.3h1.6c4.2,0,6.3,1.4,6.3,5.3C32.6,207.3,30.6,208.7,26.3,208.7z"/>
	<path class="st0" d="M136.3,193.8h-6.1l-6.9,9.3c-0.8,1-1.6,2.6-2.2,4c0.2-1.2,0.4-3,0.4-4.4v-9.1h-5.5v26.3h5.3v-7.3l2.6-3
		l7.1,10.3h6.5l-10.1-14.1L136.3,193.8z"/>
	<path class="st0" d="M151,193.6h-0.4l-11.5,26.5h5.3l1.2-3h10.7l1.2,3h5.7L151,193.6z M147.2,212.6l1.8-4.6
		c0.8-1.8,1.6-4.6,1.6-4.6s0.8,2.8,1.6,4.6l1.8,4.6H147.2z"/>
	<polygon class="st0" points="163,41.4 129.4,41.4 127.4,45 159.1,45 159.1,181.5 22.9,181.5 22.9,45 52.8,45 55,41.4 19.2,41.4 
		19.2,185.1 163,185.1 	"/>
	<path class="st0" d="M49,54.5c-0.4,0.2-0.8,0.4-1,0.8c-0.6,0.6-1.2,1.2-1.8,1.8c-1,1.4-1.6,3.2-2.2,4.4c-0.2,0.6-0.4,1.4-0.6,2v0.2
		c-0.2,0.6-0.4,1.4-0.8,2l-0.2,0.4c-0.2,0.6-0.6,1.2-0.8,1.8c-0.2,0.8-0.6,1.6-0.6,2.6c0,0.6,0.2,1.2,0.2,1.6c0.2,0.4,0.2,0.8,0.4,1
		l0.6,1.2v0.2c-0.2,0.4-0.2,0.8-0.4,1.2c-0.6,2.4-1,5.3-0.8,8.3c0.2,1.6,0.4,3,1,4.2c0.6,1.4,1.4,2.6,2.4,3.8
		c0.4,0.4,0.6,0.6,0.8,0.8c-0.2,0.8-0.6,1.8-0.8,3.2c-0.6,3-1.2,6.7-1,10.5c0.2,1.8,0.4,3.6,1,5.3s1.2,3.4,2.2,4.9
		c0.6,0.8,1,1.6,1.6,2.2c0.6,0.6,1,1.2,1.8,2c0.6,0.6,1.4,1.4,2,2c0.6,0.6,1,1,1.6,1.6c1,1,2.2,2.2,3.2,3.6c1,1.4,1.6,2.8,2,4.2
		c0.4,1.4,0.4,2.4,0.4,3.2c0,0.2,0,0.4,0,0.6v0.2l0,0c-0.2,0.2-0.4,0.4-0.6,0.4c-0.2,0.2-0.6,0.4-0.8,0.6c-0.2,0.2-0.6,0.4-0.8,0.8
		c-0.2,0.4-0.4,0.8-0.4,1.4c0,0.4,0,0.6,0.2,0.8c0.2,0.4,0.4,0.6,0.6,0.8c0.6,0.4,1.2,0.4,1.4,0.4h0.2c0.2,0,0.4,0,0.6,0
		c0.2,0,0.6,0,1,0l0,0c0,0,0,0,0.2,0.2l0,0c0.6,0.4,1.2,1,2,1.4c0.6,0.2,1,0.4,1.4,0.4h0.2c0.6,0,1.2-0.2,1.6-0.8
		c0.2,0,0.2-0.2,0.4-0.4l0.2-0.2v-0.2c0,0,0-0.2,0.2-0.2c0.2-0.4,0.2-0.8,0-1c0-0.4-0.2-0.8-0.2-1V140c0-0.2-0.2-0.4-0.2-0.4
		c0.2-0.4,0.4-1.2,0.4-3.4c0.2-3,0.2-5.7-0.2-7.9c-0.4-2.8-1.2-5.5-2.6-7.7c-0.8-1.4-1.8-2.6-2.6-3.8c-0.6-0.8-1.2-1.6-1.8-2.4
		c-0.8-1.2-1.2-2.2-1.6-3c-0.4-1-0.4-2-0.2-3c0.2-0.8,0.2-1.2,0.4-1.8c0-0.4,0.2-0.6,0.2-1c1-0.4,2.2-1,3.2-1.4
		c0.4-0.2,0.8-0.4,1-0.6h0.2c0.2,0,0.4,0.2,0.6,0.2c0.8,0.2,1.8,0.2,2.6-0.2c0,0.2,0.2,0.2,0.2,0.4l0,0c0,0.4,0,0.6,0,1
		c0,0.2,0,0.4,0,0.6c0,0.4,0,0.8,0,1.4c0.2,2,0.2,4,0.6,5.9c0.2,1.8,0.6,3.8,1,5.9c0.6,1.8,1,3.6,1.4,5.5c0.4,1.6,0.6,3.4,0.8,5.5
		c0.2,3.4,0.4,7.3,0.4,11.3c0,1.8-0.2,3.8-0.2,5.7c0,0.8-0.2,1.8-0.2,2.6c0,1-0.2,2-0.2,3.2c0,0.8,0,1.4,0,1.8
		c0.2,0.6,0.4,1.2,0.6,1.8c0.6,1,1.4,1.2,1.8,1.4h0.2c0.4,0.2,0.8,0.2,1.2,0.4c0.6,0.2,1,0.2,1.6,0.2c0.2,0,0.6,0,1,0
		c0.2,0,0.2,0,0.2,0c0.2,0,0.4,0.2,0.4,0.2c0.4,0.2,0.8,0.2,1.4,0.2c1,0,1.8,0,2.8-0.4c0.2,0,0.4-0.2,0.6-0.4c0.8,0.2,1.6,0.2,2.6,0
		c0.8-0.2,1.6-0.4,2.4-0.6c0.4,0.2,0.6,0.4,0.8,0.4c0.6,0.6,1.4,1,2.4,1.2c0.6,0.2,1,0.2,1.6,0.2c0.2,0,0.6,0,1,0c0.2,0,0.2,0,0.2,0
		c0.2,0,0.4,0.2,0.4,0.2c0.4,0.2,0.8,0.2,1.4,0.2c0.2,0,0.2,0,0.4,0c0.8,0,1.6-0.2,2.4-0.4c0.2,0,0.4-0.2,0.4-0.4
		c0.8,0.2,1.6,0.2,2.6,0s2.2-0.4,3.2-1c0.4-0.2,0.6-0.6,0.6-0.8c0,0,0-0.2,0.2-0.2c0.2-0.4,0.4-0.8,0.4-1.4c1,0,2.2,0,3.2-0.2
		c0,0.4,0.2,0.8,0.4,1.2c0.2,0.2,0.4,0.4,0.6,0.6c0,0,0,0.2,0.2,0.2c0.6,0.6,1.4,1.2,2.4,1.4c0.8,0.2,1.6,0.4,2.6,0.4
		c0.2,0,0.2,0,0.2,0c0.2,0,0.2,0.2,0.4,0.2c0.4,0.2,0.8,0.2,1.4,0.4c1,0.2,1.8,0.2,2.8,0c0.2,0,0.4-0.2,0.6-0.4
		c0.8,0.2,1.8,0.4,2.8,0.4c1.4,0,2.4-0.2,3.6-0.6c0.4-0.2,0.6-0.6,0.8-0.8c0.4-0.2,0.8-0.6,1-1.2c0.4-0.6,0.4-1.6,0.4-2.8
		c0-0.6,0-1.2-0.2-2c0-0.2,0-0.4,0-0.6c0-0.6-0.2-1-0.2-1.4c0-1.2,0-2.4,0.4-3.8c0.2-0.6,0.2-1.4,0.4-2c0.2-0.8,0.4-1.4,0.4-2.2
		c0.6-3,0.4-6.3,0.2-8.9l-0.2-2c0-0.6,0-1.2,0.2-1.8c0.2-0.6,0.2-1,0.6-1.6c0.2,0.6,0.4,1.2,0.6,1.6c1,2,2.2,3.6,3.6,4.6
		c0.6,0.4,1.2,0.6,1.4,0.6l0,0c0.2,0,0.4,0,0.4-0.2c0.2,0,0.4,0,0.6-0.2c0.4-0.2,0.6-0.6,0.6-1c0-0.4,0-1-0.2-1.4
		c-0.2-0.6-0.4-1.2-0.8-1.6c-0.4-0.6-0.6-1.2-0.8-2c-0.2-1.2-0.6-2.4-0.8-3.8c0-1.4,0.2-2.6,0.4-3.6c0.2-1.2,0.6-2.4,1-3.8
		c0.2-0.8,0.2-1.2,0.2-1.6c0.8-1.8,1.6-3.2,2.2-4.6c1-2.2,1.6-4.2,2.2-6.1c0-0.2,0.2-0.4,0.2-0.6s0-0.4,0-0.4c0.2-0.4,0.2-1,0.4-1.4
		c0.2-0.8,0.2-1.6,0.4-2.4c0-0.2,0-0.4,0-0.6c0.2-2,0-4-0.4-5.9c-0.6-3.2-2.2-6.3-3.2-8.3l-0.2-0.4v-0.2l-1.2-2.2c0-0.2,0-0.4,0-0.4
		c0-0.4-0.2-0.8-0.2-1.2l-0.4-1.6c0-0.2-0.2-0.4-0.2-0.6s-0.2-0.4-0.2-0.8c-0.6-1.2-1.2-2.2-1.8-3.2c-0.2-0.2-0.4-0.6-0.6-0.8
		c-1-1.6-1.8-3-2.8-4c-1-1.2-2.4-2.2-4-3c-0.4-0.2-0.6-0.4-1-0.4c-0.4-0.2-0.8-0.4-1.2-0.6c-0.6-0.4-1.2-0.8-1.8-1.2
		c-1.2-0.8-2.4-1.8-3.6-2.8c-0.8-0.8-1.8-1.6-2.8-2.2c-0.2-0.2-0.2-0.2-0.2-0.2c-0.2-0.2-0.4-0.4-0.8-0.6c-1.2-1-2.6-1.8-3.8-2.4
		c-0.2,0-0.2-0.2-0.4-0.2c-1.6-0.8-3-1.2-4.6-1.6c-0.8-0.2-1.4-0.2-2.2-0.4c0.6-0.4,1.2-1,1.6-1.6c0.2-0.4,0.2-0.6,0.2-0.8
		c0.2-0.2,0.6-0.2,0.8-0.4c0.8-0.4,1.4-1.2,1.8-2.2c0-0.2,0.2-0.2,0.2-0.4c0.4,0,0.8-0.2,1.2-0.4c0.4-0.2,0.6-0.2,1-0.4
		c0.2-0.2,0.6-0.4,0.8-0.6c0.4-0.4,1-0.8,1.4-1.4c0.4-0.4,0.8-1,1-1.8c0.2-0.2,0.2-0.8,0.2-1.2c0-0.6-0.2-1.2-0.8-1.6l0,0
		c0.4-0.6,0.8-1.2,1-1.6c0.4-1,0.6-2.2,0.4-3.4c0-0.2-0.2-0.4-0.2-0.4c0.2-0.2,0.2-0.4,0.4-0.6c0.4-0.6,0.6-1.4,0.8-2.2
		c0.2-0.8,0.2-1.4,0.2-2.4c0-0.4-0.2-0.6-0.4-1c0.4-0.6,0.6-1.2,0.6-1.8c0-0.2,0-0.6,0-0.8c0.6-0.4,1-0.8,1.4-1.2
		c0.6-0.6,1-1.2,1.4-1.8c0.4-0.8,0.6-1.6,0.6-2.4c0-0.4,0-0.8-0.2-1c1-0.8,1.8-1.4,2.4-2.2c0.8-0.8,1.6-2.2,1.6-4c0-0.4,0-1-0.2-1.2
		c0-0.4,0-0.6-0.2-0.8c-0.2-0.4-0.6-0.6-1.2-0.8c-0.8-0.2-1.4,0-2.6,0.4c-1,0.4-2,0.8-3.4,1.6l-6.3,3.6c-1,0.6-2,1.2-3.2,1.6
		c-1,0.6-2,1-3.2,1.4c-1.6,0.6-3.2,1.2-4.6,1.8c-3,1-6.1,2-8.9,3.6c-1,0.4-2,1.2-3.2,2.2c-1,0.8-1.6,2-2.2,3.4l0,0
		c-0.2,0-0.4,0.2-0.6,0.2c-0.4,0.2-1,0.4-2,0.6c-1.4,0.4-2.8,0.4-4.4,0.6c-0.8,0.2-1.8,0.2-2.6,0.4c-1.2,0.2-2.6,0.4-3.8,1
		c-0.8,0.2-1.4,0.6-1.8,1c-0.4,0.2-0.6,0.6-0.8,0.8c-0.2,0.2-0.4,0.6-0.6,1c-0.6,1.2-1,2.6-1,4c0,1.2,0,2.4,0.4,3.8
		c0.2,1.4,0.6,2.8,1,4.2c0.2,1,0.6,1.8,0.8,2.8c0,0.2,0.2,0.6,0.2,0.8c-0.2,0-0.2,0-0.4,0h-0.2c-0.4-0.2-1-0.2-1.4-0.4
		c-1-0.2-2-0.6-3-0.8c-0.8-0.2-1.8-0.4-2.8-0.4c-0.8,0-1.6,0.2-2.4,0.4c-3.2,1-5.9,2.6-8.5,4.2L49,54.5z M136.1,131.1l-0.2,0.8
		c-0.2,0-0.2-0.2-0.4-0.2c-1.2-1-2.2-2.6-2.6-4.2l0,0c0.2,0,0.4-0.2,0.4-0.4c0.2-0.2,0.6-0.6,0.6-1c0.2-0.2,0-0.2,0-0.4
		c-0.2,0-0.2,0-0.2,0.2c-0.2,0.4-0.6,0.6-1,0.6c0-0.2-0.2-0.4-0.2-0.6c0.4-0.2,0.6-0.2,0.8-0.4c0.2-0.2,0.4-0.4,0.6-0.6
		c0.2,0.8,0.4,1.6,0.8,2.4C134.9,128.7,135.7,129.9,136.1,131.1c0.2,0,0.2,0.2,0.2,0.4L136.1,131.1z M57.2,103.6
		c-1,0.4-2.2,1-3.2,1.2c-1.2,0.2-2.2,0.4-3.4,0.2c-0.2,0-0.2,0-0.2,0s0,0,0.2,0c2-0.6,4.2-1.4,6.1-2.6c1.8-1.2,3.6-2.6,5.1-4.4
		c0.2-0.4,0.4-0.6,0.4-0.8c0.4,0.2,0.6,0.6,0.8,0.8c0.2,0.4,0.6,0.6,0.6,1c0,0.2,0.2,0.4,0.2,0.4c-0.2,0.2-0.4,0.2-0.6,0.6
		c-0.8,0.8-1.8,1.4-2.6,2C59.5,102.6,58.5,103.2,57.2,103.6z M71.6,97c0.2-0.4,0.4-0.6,0.4-0.8c0.4-0.4,0.6-1,0.6-1.6
		c0-0.6,0-1.2-0.2-1.8c0-0.4-0.2-0.4-0.4-0.2c-0.2,0-0.2,0.2-0.2,0.4c0,0.8-0.2,1.6-0.6,2c0-0.4,0-0.8-0.2-1.2
		c-0.2-0.6-0.4-0.6-0.6-0.6c-0.2,0-0.2,0.2-0.2,0.6c0.2,1.4-0.2,3-1,4c0-0.8,0-1.6,0-2.4c0-0.8-0.2-0.8-0.4-0.8s-0.4,0.2-0.4,0.8
		c0,1-0.2,2.2-0.6,3.2c-0.2,0.8-0.8,1.4-1.4,1.8c0.6-1.2,0.8-2.4,0.6-3.6c0-0.8-0.2-1-0.4-1c-0.2,0-0.2,0.2-0.2,1
		c0,1.2-0.4,2.4-1,3.4c-0.4,0.4-0.8,1-1.2,1h-0.2c-0.2,0-0.2,0-0.4,0c0.2-0.2,0.4-0.2,0.4-0.4c0.2-0.2,0.4-0.4,0.6-0.8l0.2-0.2
		c0-0.2,0-0.2,0-0.4c0-0.2,0-0.2,0-0.2c0-0.6-0.2-1-0.4-1.2c-0.2-0.4-0.6-0.8-1-1.2c-0.4-0.4-0.8-0.6-1.2-1
		c-0.4-0.2-0.8-0.4-1.4-0.6c-0.4,0-0.6,0-0.8,0.2c0,0.2,0,0.2,0,0.2l0.2,0.2l0,0c-0.2,0.2-0.2,0.4-0.4,0.6c-1.2,1.6-2.6,3.2-4.2,4.4
		c-1.6,1.2-3.6,2.2-5.7,2.8c-1.2,0.4-1.4,0.6-1.4,0.8c0,0,0,0.2,0.2,0.2c0.2,0.2,0.6,0.6,1.2,0.8c0.8,0.2,1.4,0.2,2.2,0.2
		c-0.4,0-1,0-1.4,0c-0.4,0-0.6,0.2-0.6,0.6c0,0.4,0,0.8,0.4,0.8c1,0,1.8-0.2,2.8-0.4c0.8-0.2,1.4-0.8,2-1.4c0.2,0,0.2,0,0.4-0.2
		c-0.2,0.2-0.2,0.6-0.4,1c-0.4,0.6-1,1-1.6,1.4c-0.8,0.4-1.8,1-2.6,1c-0.2,0-0.4,0-0.4,0.2s-0.2,0.2-0.2,0.4c0,0.2,0,0.4,0,0.6
		s0.4,0.2,0.8,0.2c1.2-0.2,2.2-0.8,3-1.4c0.2-0.2,0.6-0.4,0.8-0.8c0,0.2,0,0.4,0,0.6c-0.8,1.2-1.8,2.2-3,2.6
		c-0.4,0.2-0.4,0.4-0.2,0.8c0,0.4,0.2,0.6,0.8,0.4c0.8-0.4,1.6-1,2-1.8c0.2-0.2,0.4-0.4,0.6-0.8c0,0.2,0.2,0.6,0.2,0.8
		c-0.2,0.4-0.2,0.6-0.4,1s-0.6,0.8-1,0.8c-0.2,0-0.2,0.4-0.2,0.8s0.2,0.6,0.6,0.6c0.6-0.4,1.2-1,1.4-1.6c0.4,1.2,1,2.2,1.8,3
		c0.2,0.4,0.6,0.8,0.8,1.2l0,0c-0.2,1-0.6,2-1.6,2.4c-0.4,0-0.4,0.2-0.4,0.4s0,0.4,0.6,0.2c0.6-0.2,1.4-0.4,1.8-1
		c0.2-0.2,0.6-0.6,0.8-1c0.2,0.2,0.2,0.4,0.4,0.6c-0.2,0-0.2,0-0.4,0.2c-0.2,1-1,2-2.2,2.4c-0.4,0-0.4,0.2-0.4,0.4
		c0,0.2,0,0.4,0.6,0.2c1.2-0.2,2.4-1.2,3-2.2c0.2,0.2,0.2,0.4,0.4,0.6l-0.2,0.2c-0.2,0.6-0.4,1-1,1.4c-0.4,0.4-1.2,0.8-1.8,1
		c-0.4,0.2-0.4,0.2-0.4,0.4c0,0.2,0.2,0.4,0.6,0.2c0.8-0.2,1.4-0.4,2.2-0.8c0.6-0.2,1-0.8,1.4-1.2c0.2,0.2,0.2,0.4,0.4,0.4
		c0,0,0,0,0,0.2l-0.2,0.2c0,0.6-0.4,1-0.8,1.4s-1.2,0.6-1.8,0.8c-0.4,0.2-0.4,0.2-0.4,0.4c0,0.2,0.2,0.4,0.6,0.2
		c0.8-0.2,1.4-0.2,2.2-0.6c0.4-0.2,1-0.6,1.2-1.2c0.6,1.2,1,2.4,1.4,3.6c-0.2,0-0.6,0-0.8,0c-0.6,0-1,0.2-1.4,0.4
		c-0.2,0.2-0.2,0.2-0.2,0.4c0,0.2,0.2,0.2,0.4,0.2c0.8-0.2,1.4,0,2.2,0.4h0.2c0,0.2,0,0.2,0,0.4c0,0,0,0,0,0.2c-0.4,0-0.8-0.2-1.2,0
		c-0.6,0-1.2,0.2-1.8,0.4c-0.4,0.2-0.4,0.2-0.2,0.4c0,0.2,0.2,0.2,0.4,0.2c1-0.2,2.2,0,3,0.6h0.2c0,0.2,0,0.4,0,0.6
		c-0.4-0.2-1-0.4-1.4-0.4c-0.8,0-1.4,0-2.2,0.4c-0.4,0.2-0.4,0.4-0.2,0.6c0.2,0.2,0.2,0.2,0.6,0c1-0.4,2.4,0.2,3,0.8
		c0.2,0.2,0.4,0.2,0.4,0c0,0.4,0,0.6,0,1c-0.2-0.2-0.6-0.6-1-0.6c-0.8-0.4-1.8-0.2-2.4,0c-0.4,0.2-0.4,0.4-0.4,0.4
		c0,0.2,0.2,0.2,0.6,0.2c0.6-0.2,1.4,0,1.8,0.2c0.4,0.2,0.8,0.8,1,1.4c0.2,0.2,0.2,0.2,0.4,0.2c0,0.2,0,0.6,0,0.8
		c-0.2-0.2-0.4-0.6-0.8-0.8s-0.8-0.6-1.2-0.6c-0.4,0-1,0-1.4,0c-0.6,0-0.6,0.2-0.4,0.4c0,0.2,0.2,0.2,0.6,0.2c0.8,0,1.4,0.2,1.8,0.6
		c0.4,0.4,0.6,1.2,0.8,1.8c0,0.2,0.2,0.4,0.4,0.4c0,0,0,0,0,0.2c-0.2,0.8,0,1.6,0.2,2.4c0,0.4,0.2,0.8,0.2,1s0,0.2,0,0.4l0,0
		c0,0-0.2,0-0.2,0.2c-0.4,0.4-0.8,0.2-1.4,0c-0.4-0.2-1-0.8-1.4-1.2c0-0.2,0-0.6,0-1c-0.2-0.6-0.4-1.2-1-1.6c-0.4-0.2-0.4,0-0.6,0.4
		c-0.2,0.4-0.2,0.6-0.2,0.8c0.4,0.2,0.6,0.4,0.8,0.6h-0.2c-0.8,0-1.4,0-2,0.2c-0.2,0-0.4,0-0.6,0c0,0,0,0-0.2-0.2v-0.2
		c0-0.4,0.2-0.8,0.6-1.2c0.4-0.4,0.8-0.8,1.2-1.2c0.2-0.2,0.2-0.2,0.4-0.4l0,0v-0.2l0,0v-0.2V136c0,0,0,0,0-0.2c0.2-0.6,0.2-2-0.2-4
		c-0.4-1.6-1.2-3.2-2.2-4.6c-1-1.4-2-2.8-3.2-4c-0.8-1-1.8-1.8-2.6-2.8c0.2,0,0.4-0.2,0.8-0.2c0.6-0.2,1-0.6,1.4-0.8
		c0.2-0.2,0.2-0.4,0-0.4c-0.2-0.2-0.2-0.2-0.4,0c-0.8,0.4-1.6,0.4-2.6,0.4h-0.2c-0.2-0.2-0.4-0.6-0.6-0.8c0.6-0.2,1-0.4,1.6-0.6
		c0.2-0.2,0.2-0.2,0.2-0.4c0-0.2-0.2-0.2-0.4-0.2c-0.8,0.2-1.6,0.2-2.2-0.2l0,0c-0.2-0.2-0.4-0.6-0.6-0.8h0.2c0.6,0,1-0.2,1.6-0.4
		c0.4-0.2,0.2-0.4,0.2-0.4c-0.2-0.2-0.2-0.2-0.4-0.2c-0.8,0.2-1.6,0-2.4-0.4c-1.4-2.6-2.2-5.5-2.2-8.5c-0.2-3.2,0.4-6.7,1.2-9.9
		c0.6-3.4,0.6-4.4,0.2-4.6c0-0.4-0.2-0.8-0.8-1.4c-1.8-1.8-2.8-4-3.2-6.7c-0.4-2.6,0-5.3,0.4-7.7c0.2-0.8,0.2-1.4,0.2-1.6l0,0l0,0
		c0-0.2,0-0.2-0.2-0.2v-0.2l0,0c0-0.4-0.2-0.8-0.4-1.2c0-0.2-0.2-0.6-0.4-1c-1-0.2-1-0.6-1-1c0-0.6,0.2-1.4,0.6-2
		c0.2-0.6,0.6-1.4,1-2c0.4-0.6,0.6-1.4,1-2.2c0.2-0.8,0.4-1.4,0.8-2.2c0.4-1.4,1-2.8,2-3.8c0.4-0.6,1-1,1.4-1.4
		c0.2-0.2,0.6-0.4,0.8-0.6l1-0.6c2.6-1.6,5.3-3,8.1-3.8c1.2-0.4,2.6-0.2,4.2,0.2c1.4,0.4,2.8,0.8,4.4,1.2c1,0.2,1.8,0.4,2.2,0.4
		c-1.2,0.8-2.2,1.6-3.4,2.4c-1,0.6-1.8,1.2-2.4,1.4c-0.6,0.4-1,0.4-1.2,0.4s-0.4-0.2-0.4-0.4l-0.2-0.2c0,0-0.2,0,0,0.2
		c0,0.2,0,0.6,0.6,0.8c0.6,0.2,1.2,0.2,1.8-0.2c0.8-0.4,1.6-0.8,2.6-1.4c1.6-1,3.2-2.2,4.9-3c0.8-0.4,1.8-0.8,2.4-0.6
		c0.8,0.2,1.8,0.4,2.6,0.6c1,0.2,1.8,0.6,2.8,1c0.2,0,0.6,0.2,0.8,0.2l0.6,0.2c0,0,0.2,0,0.2,0.2c0,0,0,0,0,0.2v0.4
		c0.2,2,0.4,3.8,1,5.9c0.4,2,1,3.8,1.6,5.7c0.2,0.4,0.2,1,0.4,1.4c0,0.4,0.2,0.8,0.2,1.4c0,0.8,0,1.8,0,2.8c-0.2,1.8-0.6,3.6-1,5.5
		c-0.6,1.8-1.2,3.6-2,5.3c-0.6,1-1,1.8-1.4,2.2c-0.4,0.6-0.6,0.8-0.8,0.8l-0.2,0.2l0,0c0,0,0-0.2-0.2-0.4l-0.4-1
		c-0.2-0.4-0.4-0.8-0.6-1.2c-0.2-0.2-0.4-0.4-0.6-0.6c0,0-0.2-0.2,0,0l-0.2-0.2l-0.2-0.2c-0.6-0.6-1.4-1-2.2-1.4
		c-0.2-0.2-0.6-0.4-0.8-0.6l0,0c-1-0.8-2-1.6-2.2-2.6c-0.6-1.4-0.4-3.2-0.4-4.9c0-0.8,0-1.6,0-2.6c0-0.8-0.2-1.8-0.6-2.6
		c-0.6-1-1-1.4-1.4-1.6c-0.4-0.2-0.4-0.2-0.4,0c0,0,0,0.2,0.2,0.4c0.2,0.2,0.6,0.6,1,1.6c0.6,1.4,0.6,3.2,0.6,4.9s-0.2,3.4,0.2,5.3
		c0.2,0.4,0.4,0.8,0.6,1.2c0.2,0.2,0.4,0.6,0.6,0.8c-0.2,0.6-0.6,1-1,1.6c-0.2,0.2,0,0.4,0.4,0.6c0.2,0.2,0.6,0.4,0.8,0.2
		c0.2-0.6,0.6-1,0.6-1.6c0.2,0.2,0.4,0.4,0.6,0.6c-0.2,0.6-0.8,1.2-1.2,1.6c-0.2,0.2,0,0.4,0.2,0.8c0.2,0.2,0.6,0.4,0.8,0.2
		c0.4-0.6,0.8-1.2,1-2l0.2,0.2c0.2,0.2,0.6,0.4,0.8,0.6c-0.4,0.8-0.8,1.4-1.6,1.8c-0.2,0.2,0,0.4,0.2,0.8c0.2,0.2,0.4,0.6,0.8,0.2
		c0.6-0.6,1-1.4,1.2-2.2c0.2,0.2,0.4,0.2,0.4,0.4l0.2,0.2l0.2,0.2c0,0,0,0,0.2,0c-0.4,0.8-1,1.4-1.6,2c-0.2,0.2,0,0.4,0.2,0.8
		c0.2,0.2,0.6,0.4,0.8,0.2c0.4-0.6,0.8-1.4,1-2c0,0.2,0.2,0.4,0.2,0.6s0.2,0.2,0.2,0.4c-0.4,0.6-0.8,1.2-1.2,1.6
		c-0.2,0.2,0,0.4,0.4,0.6c0.2,0.2,0.6,0.4,0.8,0.2c0.4-0.6,0.6-1,0.8-1.6c0.2,0.2,0.4,0.4,0.8,0.4l0,0l0,0c-0.4,0.6-0.8,1.2-1.2,1.8
		c-0.2,0.2,0,0.4,0.4,0.6c0.2,0.2,0.6,0.4,0.8,0.2c0.4-0.8,0.8-1.6,1-2.4c0.4,0,0.8-0.2,1-0.4c-0.2,0.8-0.6,1.4-1,2.2
		c-0.2,0.4,0,0.6,0.4,0.6c0.4,0.2,0.6,0.2,0.8-0.2c0.4-1.2,0.6-2.6,0.8-3.8c0.4-0.6,0.8-1.2,1.2-2c0.2-0.4,0.4-0.8,0.6-1.2
		c-0.2,1.4-0.6,2.6-1.2,4c-0.2,0.6,0,0.8,0.2,0.8s0.4,0.2,0.8-0.6c0.6-2,1-4.2,1.2-6.5c0.2-0.4,0.4-1,0.4-1.4c0.2,2,0.2,3.8-0.4,5.7
		c-0.2,0.6,0,0.6,0.2,0.8c0.2,0,0.4,0,0.6-0.6c0.6-2,0.4-4.2-0.2-6.1c0-0.4-0.2-0.6-0.2-0.6c0.4-1.8,0.8-3.8,1-5.9c0-1,0-2,0-3
		c0-0.6-0.2-1-0.2-1.6c-0.2-0.6-0.4-1-0.4-1.4c-0.6-1.8-1.2-3.6-1.6-5.5c-0.2-1.2-0.6-2.4-0.8-3.6l0,0h0.2c0.4,0,0.6,0,0.8,0
		s0.6,0,0.8-0.2c-0.2,0.6,0,0.8,0,0.8c0.2,0,0.4-0.2,0.6-1c0.2-0.4,0.4-1.2,0.6-2c0.2-1,0.4-2.2,0.2-3.6c-0.2-2.4-0.6-4.9-1.2-7.3
		c-0.2-1.2-0.4-2.4-0.6-3.6s-0.2-2.4-0.2-3.6c0-2.4,0.4-4.6,1.4-6.9c0.4-1,1.2-2,1.8-2.8C89,26.6,90,26,91,25.4
		c4.2-2,8.9-3.2,13.5-5.1c1.2-0.4,2.2-1,3.4-1.4c1.2-0.6,2.2-1,3.2-1.6l6.5-3.4c1.2-0.8,2.2-1.2,3-1.6c0.8-0.4,1.2-0.6,1.4-0.6
		c0,0.2,0,0.6,0,1c0,1-0.4,2-1.2,2.8c-0.6,0.8-1.6,1.6-2.4,2.4c-1.8,1.4-3.8,2.6-6.1,3.6c-1,0.6-1.2,0.8-1.2,1s0.4,0.2,1.8-0.2
		c1.8-0.8,3.6-1.6,5.3-2.8c0,0.2,0,0.4,0,0.6c0,1-0.4,2-1.2,2.8c-0.8,0.8-1.8,1.6-3,2.2c-2.2,1.2-4.6,2-7.1,2.8
		c-0.4,0.2-0.8,0.2-1,0.2c0,0,0-0.2,0.2-0.2c0-0.2-0.2-0.4-0.4-0.4c-0.2,0-0.4,0-0.6,0.2c-0.2,0.6-0.4,1.4-1,1.6
		c-0.2,0-0.2,0.2-0.2,0.2c0,0.2,0,0.2,0.4,0.2c0.4,0,0.8-0.4,1-0.8c0,0,0-0.2,0.2-0.2s0.6,0,1.6-0.2c2.4-0.6,5.1-1.4,7.3-2.4
		c0.2,0,0.2-0.2,0.4-0.2l0,0c0,0.8-0.6,1.6-1.2,2.2c-0.6,0.6-1.4,1.2-2.2,1.8c-1.6,1-3.4,1.8-5.3,2.4H106c0-0.2,0.2-0.2,0.2-0.4
		c0.2-0.4,0-0.4-0.2-0.6c-0.2,0-0.4-0.2-0.6,0.2c-0.2,0.4-0.4,0.8-0.6,1.2c-0.2,0.4-0.6,0.8-1,0.8c-0.2,0-0.4,0-0.4,0.2
		c0,0,0,0.2,0.4,0.4c0.4,0,0.6,0,0.8-0.2c0.2-0.2,0.4-0.4,0.6-0.6c0,0,0,0,0-0.2c0.2,0,0.6,0,1-0.2c1.8-0.6,3.8-1.2,5.7-2.2
		c0.8-0.4,1.8-1,2.6-1.8v0.2c0.2,0.4,0,1,0,1.6c-0.2,0.6-0.2,1.2-0.6,1.6c-0.6,1-1.4,2-2.2,2.8c-2,1.6-4.4,2.4-6.9,2.8
		c-0.6,0-0.8,0-1.2,0.2l0.2-0.2c0.2-0.2,0-0.4-0.4-0.4c-0.2,0-0.4-0.2-0.6,0c-0.2,0.6-0.8,1.2-1.4,1.2c-0.2,0-0.2,0.2-0.2,0.2
		c0,0.2,0,0.2,0.4,0.2c0.6,0,1-0.2,1.6-0.6c0.2,0,0.6,0.2,1.8,0c2.6-0.2,5.3-1.2,7.5-2.8c0.4-0.4,0.8-0.6,1.2-1
		c0.2,0.6,0.2,1.4-0.2,2c-0.2,0.8-0.8,1.4-1.2,2c-1.2,1.2-2.6,2.2-4.2,2.6c-0.2,0-0.4,0-0.4,0c0.2-0.2,0.2-0.4,0.4-0.4
		c0.2-0.2,0-0.4-0.2-0.4c-0.2-0.2-0.4-0.2-0.6,0c-0.2,0.6-0.8,1.2-1.4,1.6c-0.2,0-0.2,0.2-0.2,0.2c0,0.2,0,0.2,0.4,0.2
		s0.8-0.2,1.2-0.6c0,0,0,0,0.2,0s0.6,0,1,0c1.4-0.2,2.8-1,4-1.8c0,0,0.2,0,0.2,0.2c0.2,0,0.4,0.2,0.4,0.2l0.2,0.2c0,0.2,0,0.4,0,0.6
		c-0.2,0.4-0.4,0.8-0.6,1.4c-0.2,0.4-0.6,0.8-1,1.2c-0.2,0.2-0.4,0.4-0.6,0.4c-0.2,0.2-0.4,0.2-0.6,0.4c-1,0.4-2,0.6-3.2,0.6
		c-1,0-2.2,0-3.2-0.2c-0.4-0.2-0.6-0.2-0.8-0.2c0.2-0.2,0.4-0.4,0.6-0.4c0.2-0.2,0-0.4-0.2-0.6c-0.2-0.2-0.4-0.2-0.6,0
		c-0.4,0.6-1,1-1.6,1.2c-0.2,0-0.2,0-0.2,0.2s0,0.2,0.2,0.2c0.4,0,0.8,0,1-0.2l0,0c0.2,0.2,0.6,0.4,1.2,0.6c1.2,0.4,2.2,0.4,3.4,0.4
		c0.2,0,0.4,0,0.4,0c-0.2,0.6-0.6,1-1,1.4c-0.4,0.4-1.2,0.6-1.8,0.8c-1.4,0.4-2.8,0.2-4.2,0c-0.8-0.2-1,0-1,0.2c0,0.2,0,0.4,1,0.6
		c1.4,0.2,2.8,0.4,4.2,0.2c-0.2,0.4-0.6,0.8-1.2,1.2c-0.6,0.4-1.2,0.6-1.8,0.8c-1.2,0.4-2.6,0.6-4,0.2c-0.8-0.2-0.8-0.2-1-0.2v0.2
		c0,0.2,0.4,0.4,0.8,0.4c1.2,0.4,2.6,0.4,3.8,0.2c-0.2,1-0.8,1.8-1.6,2.6c-0.8,0.8-1.8,1.2-2.8,0.8c-0.6-0.2-0.8-0.4-0.8-0.2v0.2
		c0,0.2,0.2,0.4,0.6,0.4c0.6,0.4,1.4,0.4,2,0.2c0.6-0.2,1.2-0.4,1.8-0.8c0.8-0.6,1.4-1.4,2-2.2c0.2,0.2,0.2,0.4,0.4,0.4
		c-0.2,0-0.4,0.2-0.6,0.6c-0.4,1-1.4,2-2.6,2.6c-1,0.6-2.4,1-3.6,0.8c-0.8-0.2-1-0.2-1,0c0,0.2,0,0.4,0.8,0.6c1.4,0.2,3,0,4.2-0.6
		c1.2-0.6,2.4-1.6,3.2-2.8c0.2,0.2,0.2,0.6,0.4,1v0.2h-0.2c-0.2,0-0.4,0.2-0.8,0.6c-1.2,1.2-2.8,2-4.6,2.2c-1.8,0.4-3.6,0.2-5.3-0.4
		c-0.4-0.2-0.8-0.4-1-0.4c-0.2,0-0.2,0-0.4,0c0,0,0,0.2,0,0.4c0.2,0.2,0.4,0.4,1,0.6c1.8,0.8,3.8,1,5.7,0.8c1-0.2,2-0.4,2.8-0.6
		c1-0.4,1.8-0.8,2.6-1.6c0.2-0.2,0.2-0.2,0.2-0.4c0.2,0.8,0.2,1.4,0.2,2.2s0.2,1,0.4,1c0.2,0,0.4,0,0.4-1c0-1.4,0-2.6-0.4-4
		c-0.2-0.6-0.4-1.4-0.6-2l0,0c1.6,1.4,2.4,3.4,2.4,5.7c0,0.6,0.2,0.8,0.4,0.8c0.2,0,0.4,0,0.4-0.8c0-1.2,0-2.4-0.4-3.4
		c-0.2-0.6-0.4-1.4-0.8-2c1.4,1.4,2.6,3.4,2.8,5.5c0,0.6,0.2,0.8,0.4,0.8c0.2,0,0.4,0,0.4-0.8c0-1.8-0.6-3.6-1.6-5.1
		c1.8,1.2,2.8,3.2,3,5.7c0,0.6,0,0.8,0.2,0.8s0.4,0,0.4-0.8c0.2-1.2,0-2.4-0.6-3.6c-0.2-0.6-0.6-1.2-1-1.8c0.2,0,0.4,0.2,0.6,0.2
		c0,0.2,0,0.2,0.2,0.4c0.6,0.8,1.2,1.8,1.6,2.6c0.4,1,0.8,1.8,0.8,2.8c0,0.6,0,0.6,0.2,0.8h0.2c0,0,0.2-0.2,0.2-0.6
		c0.2-1.2-0.2-2.2-0.6-3.2c-0.2-0.6-0.4-1-0.6-1.4c0.2,0,0.2,0.2,0.4,0.2c0,0.2,0,0.4,0.2,0.6c1.4,1.6,2.2,3.8,2,6.1
		c0,0.6,0,0.8,0.2,0.8s0.4,0,0.4-0.8c0.2-1.4,0-3-0.4-4.4c0.6,0.8,1.4,1.8,1.8,2.8c0.4,1,0.6,2.2,0.4,3.4c-0.2,0.6,0,0.8,0.2,0.8
		s0.4,0,0.6-0.8c0.2-1.2,0.2-2.4,0-3.6c1.2,1.2,1.8,3.2,1.6,5.1c0,0.6,0,0.8,0.2,0.8s0.4,0,0.4-0.8c0.2-1,0.2-2,0-3l0,0
		c0.6,0.6,1,1.4,1.2,2.2s0.2,1.8,0.2,2.6c0,0.6,0,0.6,0.2,0.8c0.2,0,0.4,0,0.4-0.6c0.2-1,0.2-2,0.2-3c0-0.4-0.2-0.8-0.2-1l0.2,0.2
		c0,0.2,0,0.2,0.2,0.4c0.6,0.6,0.8,1.6,1.2,2.4c0.2,0.8,0.4,1.8,0.2,2.8c-0.2,0.6,0,0.6,0.2,0.8c0.2,0,0.4,0,0.6-0.6
		c0.2-1,0.2-2,0.2-3c0-0.4-0.2-0.8-0.2-1.4l0.2,0.2c0,0,0,0.2,0.2,0.2c0.6,0.8,1.2,1.8,1.4,2.8c0.2,1,0.2,2.2,0,3.2
		c-0.2,0.6,0,0.8,0,0.8c0.2,0,0.4,0,0.6-0.6c0.4-1.2,0.6-2.4,0.4-3.6c0-0.6-0.2-1.2-0.4-1.6c0.2,0.2,0.4,0.2,0.6,0.4
		c0.6,0.6,1,1.6,1,2.4c0.2,1,0,2,0,3c-0.2,0.6,0,0.8,0.2,0.8s0.4,0,0.4-0.6c0.2-1,0.4-2.2,0.4-3.2c0-0.2,0-0.2,0-0.4
		c0.2,0.2,0.4,0.4,0.4,0.6v0.2c0.6,1.6,0.8,3.2,0.2,4.9c-0.2,0.4,0,0.6,0.2,0.6s0.4,0,0.6-0.4c0.4-0.8,0.6-1.6,0.6-2.6
		c0.2,0.6,0.4,1.4,0.4,2.2c0,1.2-0.2,2.2-0.6,3.4c-0.4,0.6-0.2,0.8,0,0.8s0.4,0,0.6-0.6c0.6-1,0.8-2.2,1-3.4l0.2,0.2v0.2
		c0.4,1.8,0.2,4-0.8,5.9c-0.2,0.6-0.2,0.6,0,0.8c0.2,0,0.4,0.2,0.6-0.4c0.4-0.8,0.8-1.6,1-2.6c0.2,1.8-0.2,3.8-1.2,5.7
		c-0.4,0.6-0.4,0.8-0.2,0.8c0.2,0.2,0.4,0.2,0.8-0.4c0.8-1,1.2-2,1.6-3.2c0,0.8,0,1.8,0,2.6c-0.2,1.2-0.6,2.4-1.2,3.6
		c-0.8,1.4-0.8,1.6-0.6,1.8s0.4,0.2,0.8-0.6c0.8-1.2,1.4-2.4,1.6-3.6c0.2-0.6,0.2-1.4,0.4-2c0,0,0,0,0,0.2c0.2,1.2,0.4,2.6,0.2,3.8
		c-0.2,1.2-0.6,2.6-1.2,3.8c-0.4,0.8-0.4,0.8-0.2,1c0.2,0,0.4,0,0.8-0.6c0.8-1.2,1.4-2.4,1.6-3.8c0.2-0.8,0.2-1.6,0.4-2.4
		c0,0.2,0.2,0.4,0.2,0.4c-0.2,0.2-0.2,0.4-0.2,0.8c0,1.4,0,2.8-0.4,4.2c-0.4,1.4-0.8,2.8-1.8,3.8c-0.6,0.6-0.6,0.8-0.6,1
		s0.4,0.2,1-0.4c1-1.2,1.8-2.6,2.2-4c0.4-1,0.6-2,0.6-3c0,0.2,0.2,0.4,0.2,0.6c-0.2,0.2-0.4,0.4-0.4,1c0,1.4-0.2,3-0.6,4.4
		c-0.4,1.4-1.2,2.8-2.2,3.8c-0.6,0.6-0.8,0.8-0.6,1c0,0.2,0.4,0.2,1-0.4c1.2-1,2.2-2.6,2.8-4c0.2-0.4,0.2-0.6,0.4-1
		c0,1.2-0.4,2.2-0.8,3.4c-0.6,1.2-1.4,2.4-2.4,3.2c-0.6,0.4-0.8,0.6-0.6,0.8c0,0.2,0.2,0.2,1-0.4c1.2-0.8,2.2-2,2.8-3.4
		c0.2-0.4,0.4-0.8,0.6-1c0,0.2,0,0.4,0,0.4c-0.2,0-0.2,0.2-0.4,0.4c-0.2,1-0.4,2-0.8,2.8c-0.4,0.8-1,1.6-1.8,2.2
		c-0.6,0.2-0.6,0.4-0.4,0.6c0,0.2,0.2,0.2,0.8,0c0.6-0.4,1.2-0.8,1.8-1.4l0,0c-0.2,1.4-0.8,2.8-2,3.4c-0.4,0.2-0.4,0.2-0.4,0.4
		s0.2,0.4,0.6,0.2c0.2,0,0.6-0.2,0.8-0.4c-0.4,0.8-0.6,1.8-1,2.6c-1.2,2.6-2.4,5.1-3.8,7.5l-2,3.8l-0.8,1.6l0,0l-1.4,2.2
		c-0.6,1.2-1.2,2.6-1.6,4.2c-0.2,0.8-0.2,1.6-0.2,2.2l0.2,2.2c0.2,2.8,0.2,5.7-0.2,8.3c-0.2,0.6-0.2,1.4-0.4,2v0.2
		c0-0.2-0.2-0.4-0.2-0.6c-0.4-0.6-0.8-1.4-1.4-1.8c-0.4-0.4-0.6-0.2-0.8,0c-0.2,0.2-0.2,0.4,0.2,0.6c0.6,0.4,1,1,1.4,1.6
		c0.2,0.4,0.4,0.8,0.6,1.2c0,0.4-0.2,0.6-0.2,1v0.2c-0.2-0.4-0.6-1-1-1.4c-0.8-0.8-1.6-1.6-2.2-2.2c-0.4-0.4-0.8-0.2-1,0
		c-0.2,0.2-0.4,0.6,0.2,1c0.8,0.6,1.6,1.2,2.4,1.8c0.6,0.6,1.2,1.2,1.4,2c0,0.4-0.2,1-0.2,1.4c-0.2-0.2-0.4-0.6-0.6-0.8
		c-0.6-0.8-1.4-1.6-2-2.2c-0.4-0.4-0.8-0.2-1,0c-0.2,0.2-0.4,0.6,0,1c0.8,0.6,1.6,1.2,2.2,1.8c0.4,0.4,1,1,1.2,1.6
		c0,0.8,0.2,1.6,0.4,2.2l0,0c-0.2-0.4-0.4-0.8-0.6-1.2c-0.6-1-1.6-2-2.6-2.6c-0.6-0.4-0.8,0-1,0.2c-0.2,0.4-0.2,0.6,0.4,1
		c1,0.4,1.8,1,2.4,2c0.6,0.8,1.2,1.8,1.6,2.8c0.2,0.4,0.2,0.6,0.2,0.6c0,0.4,0,0.8,0,1c-0.2-0.8-0.6-1.4-1-2.2
		c-0.4-0.8-1-1.6-1.8-2.2c-0.6-0.4-0.8,0-0.8,0.4c-0.2,0.4-0.2,0.6,0.2,0.8c0.6,0.4,1.2,0.8,1.6,1.6c0.4,0.6,0.8,1.2,1.2,2
		c-0.2,0-0.2,0-0.4,0c-0.2,0-0.2,0.2-0.4,0.2c0-0.2-0.2-0.2-0.2-0.4c-0.2-0.4-0.4-0.6-0.6-1c-0.2-0.2-0.4,0-0.6,0.2
		c-0.8,0.6-1,0.8-0.8,1c0.2,0.2,0.6,0.4,0.8,0.6l0,0c-0.4,0.2-1,0.2-1.4,0.4c-1,0.2-2,0.2-3,0h-0.2c0-0.2,0.2-0.2,0.2-0.6
		c0-0.8,0.2-1.8,0-2.6c0,0,0,0,0-0.2c0-0.4,0.2-0.8,0.4-1.2c0.2-0.4,0.6-0.6,1-0.8c0.2,0,0.2-0.2,0.2-0.2s0-0.2-0.4,0
		c-0.4,0.2-0.8,0.4-1.2,0.8c-0.2,0.2-0.2,0.4-0.4,0.6c-0.2-0.6-0.6-1-1-1.4c-0.6-0.4-1.2-0.4-1.8-0.4c-0.8,0-0.8,0.2-0.8,0.4
		s0.2,0.2,0.8,0c0.6,0,1,0.2,1.4,0.4c0.4,0.2,0.6,0.8,0.8,1.2c0.2,1,0.2,2,0,3.2c0,0.2,0,0.2,0,0.4l0,0c-0.6,0.2-1.2,0.4-2,0.4
		c-0.6,0-1.4,0-1.8-0.4l-0.2-0.2c0-0.2-0.2-0.4-0.2-0.4v-0.2c0.2-1.2,0-2.4-0.2-3.6c-0.2-0.6-0.4-1.2-1-1.6
		c-0.4-0.4-1.2-0.6-1.8-0.4l0,0c0.6-1.8,1.4-3.8,2.2-5.7c0.6-1.2,1.2-2.6,1.4-4c0.4-1.4,0.6-2.8,0.6-4.4c0-1.4-0.2-2.8-0.4-4.2
		c-0.2-1.4-0.6-2.8-0.8-4.2c-0.2-1.4-0.4-2.8-0.6-4c0-1.4,0.2-2.6,0-4.2c0-1-0.4-1.6-0.6-2.2c0,0,0-0.2-0.2-0.2c0,0,0-0.2-0.2-0.2
		c0-0.2-0.2-0.4-0.4-0.4c0,0,0,0,0-0.2c0,0,0,0-0.2-0.2c0.6-0.8,1-1.6,1.2-2.4c0.8-0.6,1.4-1.6,2-2.4c0.6-1,1-2.2,1.4-3.4
		c0-0.8-0.2-0.8-0.6-0.8c-0.4,0-0.6,0-0.8,0.6c0,1-0.4,2-0.8,3c-0.2,0.6-0.6,1-1,1.6c0,0,0,0,0-0.2c0-0.6-0.4-0.4-0.8-0.4
		c-0.4,0-0.6,0.2-0.6,0.6c0,0.6,0,1,0,1.6c0,0,0,0,0,0.2s0,0.4-0.2,0.6c-0.2-0.4-0.2-0.8-0.4-1.2c0.2-0.8,0.4-1.6,0.4-2.2
		c0.2-0.2,0.4-0.4,0.6-0.4c1-1,1.8-2.2,2.4-3.4c0.2-0.8,0-1-0.4-1.2c-0.4,0-0.6,0-1,0.6c-0.4,1.2-1,2.2-1.8,3.2
		c-0.2,0.2-0.2,0.2-0.4,0.4h-0.2c-0.4,0-0.6,0.2-0.6,0.6c0,0,0,0,0,0.2c0,0,0,0-0.2,0.2v-0.2c0-0.4-0.2-0.6-0.6-0.6
		c0.2-0.2,0.4-0.4,0.6-0.6c1-1,1.6-2.2,2.2-3.6c0-0.2,0-0.2,0-0.4c0.6-0.2,1.2-0.4,1.8-0.8c0.4-0.2,0.2-0.6-0.2-0.8
		c-0.2-0.2-0.6-0.4-0.8-0.2c-0.4,0.4-1.2,0.8-1.8,1.2h-0.2c-0.2,0-0.6,0.2-0.8,0.2c-0.4,0-0.4,0.2-0.4,0.4c0,0.2,0,0.4,0.4,0.4
		c0.2,0,0.2,0,0.4,0c-0.4,1.2-0.8,2.2-1.6,3.2c-0.4,0.4-0.6,0.8-1,1.2c-0.2,0-0.4-0.2-0.6,0c0-0.4,0.2-0.8,0.2-1
		c0-0.2,0.2-0.2,0.2-0.4c1-1.2,1.8-2.6,2.2-4c0-0.2,0-0.4,0-0.6c0.2,0,0.6-0.2,0.8-0.2c1-0.2,2-0.6,2.8-1.6c0.4-0.6,0.2-0.8-0.2-1
		c-0.4-0.2-0.6-0.2-1,0c-0.4,0.6-1.2,1.2-2,1.4c-0.8,0.4-1.6,0.6-2.6,0.6c0-0.2,0-0.2,0.2-0.4c0-0.4,0.2-0.6,0-0.8h0.2
		c1-0.2,2-0.4,2.8-1c0.8-0.4,1.6-1.2,2.2-2c0.4-0.6,0-0.8-0.2-1c-0.4-0.2-0.6-0.2-0.8,0.2c-0.8,1.4-2.2,2.6-4,3
		c-0.4,0-0.6,0.2-0.6,0.2l0,0c-0.4,0-0.6,0-0.8,0.8c-0.4,1.4-0.8,2.8-1.6,4c-0.2,0.2-0.2,0.4-0.4,0.6v-0.2c0-0.4,0-0.8,0-1
		c-0.2-0.2-0.2-0.2-0.4-0.2c0-0.2,0.2-0.2,0.2-0.4c0.8-1,1.4-2.2,2-3.4c0.4-0.8,0.2-1-0.2-1c-0.4-0.2-0.6-0.2-1,0.6
		c-0.4,1.2-1,2.4-1.6,3.4c-0.2,0.4-0.6,0.8-1,1.2c0,0,0,0,0-0.2c0-0.4-0.2-0.6-0.2-0.8c-0.2-0.2-0.4,0-0.6,0l0,0
		c0.6-0.6,1-1.2,1.6-2c1-1.6,1.8-3.2,2.2-5.1c0.2-1.2-0.2-1.4-0.6-1.4s-0.6,0-0.8,1c0,0.2,0,0.4-0.2,0.6c0-0.4,0-0.6,0-1
		c-0.2-1-0.4-2-1-3c-0.4-0.6-0.6-0.4-1-0.2c-0.2,0.2-0.4,0.4-0.2,1c0.6,0.6,1,1.4,1.2,2.4c0.2,0.8,0.4,1.8,0.4,2.8l0,0
		c-0.2,0.4-0.4,0.8-0.6,1.2c0-1-0.4-2.2-0.8-3.2c-0.4-1.2-1-2.2-1.4-3.4c-0.4-0.6-0.8-0.6-1-0.4c-0.4,0.2-0.6,0.4-0.2,1
		c0.6,1,1.2,2,1.8,3c0.4,1,1,2.2,1,3.2c0,0.4,0,0.4,0,0.6c-0.2,0.4-0.4,0.8-0.8,1c0-0.8-0.2-1.6-0.6-2.4c-0.4-0.8-0.8-1.6-1.4-2.4
		c-0.4-0.4-0.6-0.2-1,0c-0.2,0.2-0.4,0.4-0.2,0.8c0.6,0.6,1,1.2,1.4,2c0.4,0.8,0.6,1.4,0.8,2.4c0,0.2,0,0.2,0,0.4
		c-0.6,0.6-1.2,1.2-1.8,1.8c-0.8,0.6-1,0.8-0.8,1c0,0.2,0.4,0.2,1.2-0.4c0.2-0.2,0.4-0.2,0.6-0.4c-0.2,0.6-0.6,1.4-0.8,2.4
		c0,0.2,0,0.2,0,0.4c-0.2,0-0.2,0.2-0.2,0.4v0.2c-0.2,1.4-0.2,3-0.2,4.4c0,1.8,0.2,3.6,0.4,5.5c0,0.8,0,1.8,0,2.6c0,0.4,0,0.8,0,1.2
		c0,0.4-0.2,0.8-0.2,1.4c-0.2,1.6-0.2,3,0,4.6c0,0,0-0.2-0.2-0.2c-0.4-0.4-1-0.8-1.6-1c-0.4-0.2-0.4,0-0.4,0.2c0,0.2,0,0.2,0.4,0.4
		c1,0.4,1.6,1.4,2,2.6c0,0.2,0,0.2,0.2,0.2v0.2c-0.4-0.6-1-1.2-1.6-1.4c-0.4-0.2-0.6,0-0.6,0c0,0.2,0,0.4,0.2,0.4
		c0.4,0.4,0.8,1,1.2,1.6c0.2,0.4,0.4,1,0.6,1.4c-0.4-0.4-0.8-0.6-1.2-0.8c-0.4-0.2-0.6-0.2-0.8,0c0,0.2,0,0.4,0.4,0.6
		c0.8,0.6,1.2,1.2,1.8,1.8c0.4,0.6,0.8,1.4,1,2.2c0,0.2,0.2,0.2,0.2,0.4l0.2,0.6l0,0c-0.2-0.2-0.2-0.4-0.4-0.6
		c-0.8-0.8-1.6-1.6-2.6-2c-0.6-0.2-0.8-0.2-0.8,0s0,0.4,0.6,0.6c0.8,0.4,1.6,1.2,2.2,2c0.6,0.8,1,1.8,1.2,2.8l0,0
		c-0.2-0.2-0.2-0.2-0.4-0.4c-1-1-2-1.6-3-2.4c-0.6-0.4-0.8-0.4-1-0.2c-0.2,0.2-0.2,0.4,0.6,0.8c1,0.8,2,1.6,2.6,2.4
		c0.6,0.6,1,1.6,1.2,2.4c0,0.2,0,0.2,0,0.4l-0.2-0.2c-0.8-1-1.6-1.8-2.6-2.6c-0.6-0.4-0.8-0.4-0.8-0.2c-0.2,0.2-0.2,0.4,0.4,0.8
		c0.8,0.8,1.6,1.6,2.2,2.6c0.4,0.6,0.6,1.4,0.8,2c-0.4-0.6-1-1-1.6-1.4c-0.4-0.2-0.6-0.2-0.6,0s0,0.4,0.2,0.6c1,0.8,1.8,2.2,2.2,3.4
		c0,0.2,0.2,0.2,0.4,0.2c0.2,0.8,0.2,1.6,0.4,2.2c0.2,1.2,0,1.8-0.2,2.2c-1.2,1-3,1.6-4.6,1.4h-0.2c0-0.2,0.2-0.2,0.2-0.6
		c0-0.8,0-1.8-0.2-2.6c0,0,0,0,0-0.2c0-0.4,0-0.8,0.2-1.2s0.6-0.8,0.8-1c0.2-0.2,0.2-0.2,0.2-0.2s0,0-0.4,0c-0.4,0.2-0.8,0.6-1,1
		c-0.2,0.2-0.2,0.4-0.2,0.8c-0.2-0.6-0.6-1-1.2-1.4c-0.6-0.4-1.2-0.4-1.8-0.2c-0.8,0.2-0.8,0.4-0.8,0.4c0,0.2,0.2,0.2,0.8,0
		c0.6,0,1,0,1.4,0.2c0.4,0.2,0.6,0.6,0.8,1.2c0.4,1,0.4,2,0.2,3c0,0.2,0,0.2,0,0.4l0,0c-0.6,0.4-1.2,0.6-2,0.6
		c-0.6,0.2-1.4,0.2-1.8-0.2l-0.2-0.2c0-0.2-0.2-0.4-0.2-0.4v-0.2c0-1.2-0.2-2.4-0.6-3.4c-0.2-0.6-0.6-1.2-1-1.4
		c-0.6-0.4-1.2-0.4-1.8-0.2c-0.8,0.2-0.8,0.4-0.6,0.6c0,0.2,0.2,0,0.8-0.2c0.6-0.2,1,0,1.4,0.2c0.4,0.4,0.6,0.8,0.8,1.2
		c0.4,1,0.4,2.2,0.4,3.2c0,0.2,0,0.4,0,0.4c-1,0.2-2.2,0.2-3-0.2l-0.2-0.2c0-0.2-0.2-0.2-0.2-0.4c-0.2-0.2-0.2-0.6-0.4-1.4
		c0-0.4,0-0.8,0-1.2s0-1,0-1.6c0.2-2,0.6-4.2,0.8-6.5c0.2-1.4,0.2-2.8,0-4.2c0.4,0.2,0.8,0.4,1,0.8c0.2,0.2,0.4,0.2,0.4,0
		c0.2-0.2,0.2-0.2,0-0.4c-0.4-0.6-1-1.2-1.6-1.8c0-0.4,0-0.6-0.2-1c0-0.2,0-0.4,0-0.6c0.6,0.4,1.2,0.8,1.6,1.2
		c0.2,0.2,0.4,0.2,0.4,0.2c0.2,0,0.2-0.2,0-0.6c-0.2-0.6-0.6-1-1-1.4c-0.4-0.4-0.8-0.8-1.4-1.2c0-0.4-0.2-0.8-0.2-1.2
		c0.6,0.2,1,0.6,1.6,0.8c0.2,0.2,0.4,0,0.4-0.2c0.2-0.2,0.2-0.2,0-0.4c-0.6-0.6-1.4-1.2-2-1.8c0,0,0,0-0.2,0c0-0.4-0.2-0.8-0.2-1.2
		h0.2c0.4,0.2,0.6,0.2,1,0.6c0.2,0.2,0.2,0,0.4,0c0.2-0.2,0.2-0.2,0-0.4c-0.2-0.4-0.6-0.6-1-0.8c-0.2-0.2-0.6-0.4-0.8-0.6
		c-0.2-1.8-0.4-3.4-0.8-5.3c-0.4-2.2-0.8-4.2-1.2-6.3c-0.4-2-0.6-4.2-1.2-6.5c-0.2-1-0.6-2.2-1-3.2c-0.2-0.2-0.2-0.6-0.4-0.8
		c-0.2-0.2-0.2-0.4-0.2-0.6c-0.2-0.4-0.2-1-0.4-1.4c-0.2-2,0-4.2,0.4-6.3c0.4-2.6,0.8-4,1-4.9c0.2-0.8,0-1,0-1c-0.2,0-0.2,0.2-0.6,1
		c-0.2-0.2-0.4-0.2-0.6-0.4c0-0.2,0-0.4-0.2-0.4h-0.2c-0.6-0.6-1.2-1.4-1.4-2.4c-0.2-0.4-0.2-0.4-0.4-0.4c-0.2,0-0.4,0.2-0.2,0.6
		c0,0.2,0,0.2,0.2,0.4c0,0.2-0.2,0.4-0.2,0.6s-0.2,0.4-0.2,0.6l0,0c-0.2,0-0.4,0.2-0.2,0.6c0,0,0,0,0,0.2c0,0.6-0.2,1.2-0.2,1.6
		c-0.2,0.4-0.4,0.8-0.8,1.2c0-0.2,0-0.4,0-0.6c0-0.4,0-0.6,0-0.8l0,0c0.4-1.2,0.2-1.4,0-1.4s-0.4,0-0.6,1.2c-1,2.8-2.6,5.3-4.9,7.3
		l0,0c0.8-0.8,1.4-1.6,2-2.4c1-1.6,1.4-3.2,2-5.1c0.4-1,0.2-1.2,0-1.2s-0.4,0-0.8,1c-0.6,1.6-1.2,3.2-2.2,4.6
		c-0.6,0.8-1.2,1.4-1.8,2c0-0.2,0.2-0.4,0.2-0.6c0.2-0.2,0.2-0.4,0.2-0.4c0.2-0.2,0.2-0.4,0.4-0.6c1.2-1.6,2-3.4,2.4-5.3
		c0.4-1.2,0.2-1.4,0-1.4s-0.4,0-0.6,1.2c-0.6,1.8-1.4,3.4-2.6,4.9c-0.6,0.6-1.2,1.2-1.8,1.6c0-0.2,0.2-0.4,0.2-0.4
		c0.2-0.4,0.2-0.6,0-0.6l0,0c0.4-0.4,0.6-0.6,1-1c0.6-0.8,1.2-1.4,1.6-2.4c0.4-0.8,0.6-1.8,0.8-2.6c0.2-1.2,0-1.4-0.2-1.4
		s-0.4,0.2-0.4,1.2c-0.4,1.8-1.2,3.2-2.4,4.4c-0.8,0.8-1.6,1.4-2.4,2.2l0,0c0.4-0.4,0.6-0.6,1-1c0,0,0.2,0,0.2-0.2
		c0.2-0.2,0.4-0.4,0.4-0.6C70.8,98.2,71.2,97.6,71.6,97z M71.2,96.4C71.2,96.4,71.2,96.2,71.2,96.4C71.2,96.2,71.2,96.2,71.2,96.4
		L71.2,96.4z M83.9,40.6c0.2,1.2,0.4,2.4,0.6,3.6c0.2,1.2,0.6,2.4,0.8,3.8c-0.2-0.2-0.2-0.2-0.4,0c-0.8,0.6-1.8,1-2.8,1.4
		c-1-0.2-2-0.2-3.2,0c-0.4,0.2-0.4,0.4-0.2,0.8c0.2,0.4,0.4,0.6,0.6,0.6c0.6-0.2,1.2-0.4,2-0.6c0,0,0.2,0,0.4,0h0.2
		c0.2,0,0.4,0,0.6,0c0.4,0,0.4,0,0.4-0.2c0.8-0.2,1.6-0.4,2.4-0.6l0,0c0,0.2,0,0.4,0,0.6c-0.2,0-0.4,0-0.6,0.2
		c-1.2,0.6-2.4,1.2-3.6,1.6c0,0,0-0.2-0.2-0.2c-0.6-0.2-1.2-0.2-1.8-0.4c-0.2,0-0.2,0.4-0.2,0.6c0,0.2,0,0.4,0,0.6
		c-0.4,0.2-1,0.2-1.4,0.4c-0.2,0-0.2,0-0.4,0c-1-0.2-1.8-0.6-2.8-0.6c-0.6,0-1.2,0-1.6,0.2c-0.4,0.2-0.8,0.2-1,0.4
		c0,0-0.2-0.2-0.4-0.2c0,0,0,0-0.2,0c0-0.6,0-1.4-0.4-2.8c-0.6-2.4-1.6-4.6-2-6.9c-0.6-2.2-0.8-4.6,0.2-6.7c0.4-1,1.4-1.6,2.4-2
		s2.2-0.8,3.4-1c2.4-0.4,4.9-0.6,7.3-1.2c1.2-0.2,1.8-0.6,2.4-0.8c-0.6,2-1,4-1,6.1C83.7,38.1,83.7,39.4,83.9,40.6z M85.3,53.7
		c-0.4,0.2-1,0.4-1.4,0.6l-1,0.6c0-0.2,0-0.4-0.2-0.6c0-0.2-0.2-0.2-0.2-0.2c0.4,0,0.8-0.2,1.2-0.2c0.8-0.2,1.4-0.4,2.2-0.6
		c0,0.2,0,0.6,0,0.8l0,0C85.5,53.7,85.5,53.7,85.3,53.7z M85.5,55.1c0,0.2,0,0.4-0.2,0.6h-0.2c-0.4,0.2-0.8,0.4-1.2,0.6
		c-0.2,0-0.4,0.2-0.4,0.2l0,0h-0.2h-0.2c0-0.4,0-0.6-0.2-1l1.2-0.2C84.7,55.3,85.1,55.3,85.5,55.1z M85.5,51.7
		c-1.4,0.8-3,1.4-4.6,1.6c-0.2,0-0.4,0-0.6-0.2c-0.2,0-0.6-0.2-1-0.2c2.2-0.4,4-1.4,6.1-2c0,0,0.2,0,0.2-0.2c0,0.2,0,0.2,0,0.4
		s0,0.4,0,0.4C85.7,51.7,85.7,51.7,85.5,51.7z M105.2,54.3L105.2,54.3L105.2,54.3L105.2,54.3z M103.5,54.1L103.5,54.1L103.5,54.1
		L103.5,54.1z M107,54.7C107.2,54.7,107.2,54.7,107,54.7C107.2,54.7,107.2,54.7,107,54.7C107.2,54.7,107.2,54.7,107,54.7z
		 M120.1,63.6L120.1,63.6L120.1,63.6L120.1,63.6z M136.5,83.6c0-0.2,0-0.2,0-0.4c0,0,0,0.2,0.2,0.2
		C136.7,83.4,136.5,83.6,136.5,83.6z M140.1,92.9C140.1,92.7,140.1,92.7,140.1,92.9C140.1,92.7,140.1,92.7,140.1,92.9
		C140.1,92.7,140.1,92.9,140.1,92.9z M132,122c0.4-0.2,0.8-0.4,1.2-0.8c0,0.2,0,0.4,0,0.6c-0.4,0.2-0.6,0.6-1,0.6
		c-0.2,0-0.2,0-0.4,0c0,0,0,0,0-0.2C132,122.2,132,122.2,132,122z M133.3,123.6c0.2,0,0.2-0.2,0.4-0.4c0,0.2,0,0.2,0,0.4l0,0
		c-0.4,0.4-0.8,0.8-1.4,0.8c0-0.2,0-0.4,0-0.6C132.4,124,132.8,123.8,133.3,123.6z M133.5,119.4c-0.2,0.2-0.4,0.4-0.6,0.6l0.8-1.4
		c0,0.2,0,0.4,0,0.6C133.7,119.2,133.7,119.2,133.5,119.4z M113.6,155.8c-1,0.2-2.2,0-3-0.6c0,0,0,0-0.2-0.2c0,0,0-0.2,0-0.4
		c0-0.4,0-1.2,0.4-2.8c0.2-0.6,0.2-1,0.4-1.6h0.2c0.6,0,1,0,1.4,0.4c0.4,0.4,0.6,0.8,0.6,1.4c0.2,1,0.2,2.2,0,3.2
		C113.6,155.6,113.6,155.6,113.6,155.8z M105,147.9c1,0.2,2.2,0.2,3.4,0.2c0.8,0,1.4-0.2,2.2-0.4c0,0.2,0,0.2-0.2,0.4
		c-0.2-0.2-0.4-0.2-0.6-0.2c-0.8,0.4-1.6,0.8-2.6,1c-0.8,0.2-1.8,0.4-2.8,0.2c-0.2,0-0.4,0-0.6,0c-0.2-0.6-0.2-1.2-0.2-1.8
		c0-1.8,0-3.4,0-5.5c0-1,0-1.8-0.2-2.8l-0.2-2c0-0.2,0-0.4,0.2-0.4c0.4-1.8,0.8-3.8,0.8-5.7c0.2,0,0.2,0,0.4,0c1.6,0.2,3,0,4.6-0.4
		c1.4-0.4,3-1,4.2-1.6c0.2,0,0.4-0.2,0.4-0.2c0,0.2,0,0.6,0.2,0.8l0,0c-0.2-0.2-0.6-0.2-1,0c-2.4,1.4-5.1,2.6-7.9,2.6
		c-0.8,0-1,0-1,0.4c0,0.2,0,0.4,1,0.6c1.6,0.2,3,0,4.4-0.4c1.4-0.4,2.6-0.8,3.8-1.2c0,0.2,0,0.4-0.2,0.4s-0.4,0-0.6,0.2
		c-2.2,1.2-4.6,2.2-7.3,2.2c-0.8,0-1,0-1,0.4c0,0.2,0,0.4,0.8,0.6c2.4,0.4,5.1-0.2,7.3-1.2c0,0.2,0,0.4-0.2,0.6c-0.2,0-0.4,0-0.6,0
		c-2,1-4,1.8-6.3,1.8c-0.6,0-0.8,0-0.8,0.4c0,0.2,0,0.4,0.8,0.6c2.2,0.4,4.4,0,6.7-0.8c0,0.2,0,0.2,0,0.4h-0.2
		c-2,0.8-4.2,1.4-6.5,1.4c-0.6,0-0.8,0-0.8,0.4c0,0.2,0,0.4,0.8,0.6c2.2,0.4,4.4,0,6.7-0.4c0,0.2,0,0.2,0,0.4c0,0,0,0-0.2,0
		c-2,0.8-4,1.4-6.3,1.4c-0.6,0-0.8,0-0.8,0.4c0,0.2,0,0.4,0.8,0.6c2.2,0.4,4.4,0,6.5-0.4c0,0,0,0,0,0.2c-2,0.8-4.4,1.4-6.9,1.4
		c-0.8,0-0.8,0-0.8,0.4c0,0.2,0,0.4,0.8,0.6c1.2,0.2,2.6,0.2,3.8,0c1.2,0,2.2-0.2,3.4-0.6c0,0.2-0.2,0.4-0.2,0.4c-0.2,0-0.4,0-0.6,0
		c-2,0.8-4.4,1.4-6.7,1.2c-0.6,0-0.8,0-0.8,0.4c0,0.2,0,0.4,0.8,0.6c2,0.4,4.2,0.2,6.5-0.2l0,0c-0.2,0-0.2,0-0.6,0
		c-1.8,1-3.8,1.4-5.9,1.4c-0.6,0-0.8,0-0.8,0.4C104.1,147.5,104.1,147.7,105,147.9z M109.8,149.7c-0.2,0-0.2,0-0.4,0
		c-1.6,0.8-3.2,1.4-5.1,1.4c0-0.4-0.2-0.8-0.2-1.4h0.2c1,0.2,2,0.2,3,0.2C108.2,149.9,109,149.9,109.8,149.7L109.8,149.7z
		 M108.8,151.7c-1.4,0.6-2.8,1-4.2,1.2c0-0.2,0-0.2,0-0.4c0-0.2,0-0.2,0-0.4C106,152.3,107.4,152.1,108.8,151.7z M109.4,111.7
		c0.2,0,0.2-0.2,0.4-0.2l0,0C109.6,111.5,109.4,111.5,109.4,111.7z M109.6,112.9v0.2l0,0C109.4,113.1,109.4,113.1,109.6,112.9
		C109.4,113.1,109.4,112.9,109.6,112.9z M109.6,115.2h0.2c0.2,0.2,0.4,0.2,0.6,0.4c0,0,0,0.2-0.2,0.2c0,0,0,0,0,0.2
		c-0.4,0-0.6,0.2-1,0.2c-0.2,0-0.2,0-0.4,0l0,0V116C109,115.6,109.4,115.4,109.6,115.2z M110.6,113.1L110.6,113.1c0,0,0-0.2,0-0.4
		l0.2,0.2C110.8,113.1,110.8,113.1,110.6,113.1z M111,116.8C110.8,116.8,110.8,116.8,111,116.8C110.8,116.8,110.8,116.8,111,116.8
		C110.8,116.8,110.8,116.8,111,116.8z M110.6,114.5C110.6,114.8,110.6,114.8,110.6,114.5C110.6,114.8,110.6,114.8,110.6,114.5
		C110.6,114.8,110.6,114.8,110.6,114.5z M112.2,120.2c0,0,0,0.2-0.2,0.2l0,0c-0.8,0.4-1.4,0.8-2.2,1.2c0.2-0.2,0.4-0.4,0.6-0.8
		C111,120.8,111.6,120.6,112.2,120.2z M112.4,125.1c-1.2,0.8-2.6,1.4-4,2c-1.4,0.6-2.8,1-4.2,1l0,0c0-0.4,0-0.8,0-1.2
		c1.6,0,3-0.2,4.4-0.6l0,0c-0.2,0.2,0,0.2,0,0.4c0.2,0.2,0.4,0.2,1-0.4c0.2-0.2,0.4-0.4,0.6-0.4c1-0.4,2-0.8,3-1.2
		c0.2,0,0.2-0.2,0.2-0.2c0,0.2,0,0.4,0,0.6C113,124.9,112.8,124.9,112.4,125.1z M113.4,126.5c0,0.2,0,0.6,0.2,0.8
		c-0.2-0.2-0.6-0.2-1,0c-2.4,1.4-5.3,2.6-8.1,2.6c-0.2,0-0.4,0-0.4,0c0-0.2,0-0.4,0-0.6s0-0.4,0-0.6c1.6,0.2,3.2-0.2,4.6-0.6
		c1.6-0.4,3-1,4.4-1.6C113.2,126.7,113.4,126.5,113.4,126.5z M103.3,119c-0.2,0.2-0.2,0.4-0.4,0.6c-0.2,0-0.4,0-0.6,0s-0.4,0-0.6,0
		v-0.2c0,0,0,0,0.2,0C102.5,119.2,102.9,119.2,103.3,119z M102.9,117.4L102.9,117.4L102.9,117.4L102.9,117.4z M102.5,115.8
		c-0.2-0.2-0.2-0.2-0.4-0.4c0,0,0-0.2,0.2-0.2c0.2-0.2,0.2-0.4,0.4-0.6c0.2,0,0.2,0,0.4,0c0.2,0.2,0.4,0.2,0.6,0.4l0.2,0.2
		c0,0.2-0.2,0.2-0.2,0.4C103.3,115.6,102.9,115.6,102.5,115.8z M104.1,116.2c0.4,0,0.6,0,1-0.2c0.2,0.2,0.2,0.2,0.4,0.4
		c-0.2,0.2-0.2,0.2-0.2,0.4c-0.4,0.2-1,0.2-1.4,0.4c0-0.2-0.2-0.2-0.2-0.4C103.7,116.6,103.9,116.4,104.1,116.2z M105.2,118.6
		c0.4-0.2,0.8-0.4,1.4-0.4c-0.2,0.4-0.4,0.6-0.6,1c-0.4,0.2-1,0.2-1.4,0.4C104.8,119.2,105,118.8,105.2,118.6z M107.6,115.8
		c0.2,0,0.2,0.2,0.4,0.2c0,0,0,0,0,0.2c0,0,0,0.2,0.2,0.2c-0.6,0.2-1,0.2-1.6,0.4c0,0,0,0-0.2,0c0,0,0,0,0-0.2
		c0.2-0.2,0.2-0.4,0.4-0.6C107,115.8,107.4,115.8,107.6,115.8z M107.2,110.5L107.2,110.5c0-0.2,0.2-0.2,0.2-0.2
		C107.4,110.3,107.4,110.5,107.2,110.5L107.2,110.5z M108,122.6L108,122.6c-0.8,0.4-1.4,0.6-2,0.6c0.4-0.4,0.8-0.8,1-1.2
		c0.4,0,0.8-0.2,1.2-0.4c0.2,0,0.2,0,0.4-0.2C108.4,122,108.2,122.4,108,122.6z M111,123c-0.2,0.2-0.2,0.4-0.4,0.6
		c-0.8,0.4-1.6,0.8-2.4,1.2c-0.4,0.2-0.8,0.2-1.2,0.4c0.4-0.4,0.8-0.8,1.2-1.2c0.2,0,0.2,0,0.4,0C109.2,123.8,110,123.4,111,123z
		 M107.8,118.4c0.2-0.2,0.2-0.4,0.4-0.4c0.2-0.2,0.2-0.4,0.2-0.4c0.2,0,0.6-0.2,0.8-0.2c-0.2,0.2-0.2,0.4-0.4,0.8
		C108.4,118,108.2,118.2,107.8,118.4z M107.4,114.5c0.2-0.2,0.2-0.6,0.4-0.8c0.2,0,0.4-0.2,0.4-0.2c0.2,0.2,0.2,0.4,0.4,0.4l0,0
		C108.4,114.1,108,114.3,107.4,114.5C107.6,114.5,107.6,114.5,107.4,114.5z M106.4,120.2c0.4,0,0.8-0.2,1.2-0.4
		c-0.2,0.4-0.4,0.8-0.8,1c-0.6,0.2-1,0.4-1.6,0.4C105.6,121,106,120.6,106.4,120.2z M105.6,122.4c-0.4,0.4-0.6,0.8-1,1.2
		c-0.4,0-0.8,0-1.2,0.2c0-0.4-0.2-0.8-0.4-1.2h0.2l0,0c0,0.2,0.2,0.2,0.4,0C104.5,122.6,105.2,122.6,105.6,122.4z M104.5,124.7
		c0.6,0,1.4-0.2,2-0.2c-0.2,0.4-0.6,0.6-0.8,1l-0.2,0.2c-0.6,0.2-1.2,0.2-1.6,0.2c0-0.2,0-0.4-0.2-0.6
		C103.9,125.3,104.1,125.1,104.5,124.7z M113.2,122.8c-0.2-0.2-0.4-0.2-0.8,0l0.2-0.2c0.2,0,0.2-0.2,0.4-0.2c0,0,0.2,0,0.2-0.2
		C113.2,122.4,113.2,122.6,113.2,122.8z M112.4,118.2C112.4,118.2,112.2,118.2,112.4,118.2c0,0,0-0.2,0.2-0.2s0.2-0.2,0.4-0.2
		s0.2-0.2,0.2-0.2c0,0.2,0,0.2,0.2,0.4C113,118,112.6,118,112.4,118.2z M112,115.6C112,115.8,112,115.8,112,115.6
		c-0.2,0-0.2,0-0.4,0h-0.2c0-0.2,0-0.2-0.2-0.4c0.2-0.4,0.4-0.6,0.6-1c0.2,0.2,0.2,0.4,0.4,0.6c0,0.2,0.2,0.2,0.2,0.2
		C112.2,115.4,112.2,115.6,112,115.6z M110.2,119.4c-0.4,0.2-1,0.4-1.4,0.6c0.2-0.4,0.4-0.6,0.6-1c0.4-0.2,0.8-0.2,1-0.4
		C110.4,119,110.2,119.2,110.2,119.4z M108.6,111.9L108.6,111.9c0.2-0.2,0.4-0.2,0.6-0.4C109,111.7,108.8,111.9,108.6,111.9z
		 M108.4,107.7C108.4,107.7,108.2,107.7,108.4,107.7c-0.6,0-0.8,0-1,0.8c0,0.2,0,0.2,0,0.4c-0.2,0.2-0.2,0.2-0.4,0.4
		c0,0-0.2,0-0.2-0.2c0-0.2,0-0.2-0.2-0.4c0-0.2-0.2-0.4-0.2-0.4c0.4-0.4,0.6-0.6,0.8-1c0.8-1,1.4-2,1.8-3.2h0.2c0.2,0,0.4,0,0.8,0
		C109.6,105.5,109.2,106.7,108.4,107.7z M106.6,112.3c0.2,0,0.4,0,0.6,0c0,0.2,0,0.2,0,0.4v0.2c-0.2,0-0.4,0.2-0.8,0.2
		C106.4,112.7,106.4,112.5,106.6,112.3z M106.4,114.8L106.4,114.8c-0.4,0.2-0.8,0.4-1,0.4l-0.2-0.2c0.2-0.2,0.2-0.4,0.4-0.6
		c0,0,0-0.2,0.2-0.2c0,0,0,0,0.2,0C106,114.3,106.2,114.5,106.4,114.8z M105.8,110.5c-0.2,0.2-0.2,0.2-0.4,0.4l0,0
		c-0.2,0-0.4,0-0.6,0c0-0.2,0.2-0.4,0.2-0.6c0.2,0,0.6-0.2,0.8-0.2C105.8,110.3,105.8,110.5,105.8,110.5z M104.8,113.3L104.8,113.3
		c-0.4,0.2-0.6,0.2-1,0.2c-0.2,0-0.2-0.2-0.4-0.2c0.2-0.2,0.2-0.4,0.4-0.8c0,0,0,0,0.2,0.2C104.3,112.9,104.5,113.1,104.8,113.3z
		 M104.1,108.9c-0.2,0-0.6,0.2-0.8,0.2c0.2-0.4,0.2-1,0.4-1.4c0.2-0.2,0.6-0.4,0.8-0.8C104.5,107.7,104.3,108.3,104.1,108.9z
		 M103.5,110.5C103.7,110.5,103.7,110.5,103.5,110.5c0,0.2,0,0.2,0,0.4l0,0c-0.2,0-0.4,0-0.8,0v-0.2
		C103.1,110.7,103.3,110.7,103.5,110.5z M103.1,112.1c-0.2,0.2-0.2,0.6-0.4,0.8c-0.2-0.2-0.4-0.4-0.6-0.4c0-0.2,0.2-0.2,0.2-0.4
		C102.5,112.1,102.9,112.1,103.1,112.1z M102.5,107.9L102.5,107.9c-0.4,0.2-0.6,0.4-0.6,0.6c0.2-0.8,0.4-1.4,0.6-1.8
		C102.7,107.1,102.5,107.5,102.5,107.9z M102.3,108.9c0,0.2,0,0.4-0.2,0.6c-0.2,0-0.4,0-0.6,0.2c0-0.4,0.2-0.6,0.2-1l0,0
		C101.9,108.9,102.1,108.9,102.3,108.9z M101.9,110.7c0,0.2,0,0.2-0.2,0.4h-0.2c0,0,0,0-0.2,0c0-0.2,0-0.2,0-0.4
		C101.7,110.7,101.9,110.7,101.9,110.7z M101.5,111.9L101.5,111.9L101.5,111.9L101.5,111.9L101.5,111.9z M102.1,113.9
		c-0.2,0-0.4,0-0.4,0h-0.2c0-0.2,0-0.4,0-0.4C101.7,113.5,101.9,113.7,102.1,113.9z M101.7,114.5h0.2
		C101.9,114.8,101.9,114.8,101.7,114.5c0.2,0.2,0.2,0.2,0,0.2l0,0C101.5,114.8,101.5,114.8,101.7,114.5
		C101.5,114.8,101.5,114.8,101.7,114.5C101.5,114.5,101.5,114.5,101.7,114.5z M101.7,116.4c0.2,0.2,0.4,0.2,0.8,0.4l-0.2,0.2
		c-0.2,0.2-0.4,0.2-0.4,0.4C101.7,117.2,101.7,116.8,101.7,116.4L101.7,116.4z M101.9,125.9c0-0.4,0-0.6,0-1c0.4,1.4,0.6,3,0.8,4.6
		c0,1.6,0,3.4-0.2,5.1c-0.2-1.2-0.4-2.4-0.6-3.4C101.7,129.3,101.7,127.5,101.9,125.9z M101.9,121c0-0.2,0-0.4,0-0.6
		c0.2,0,0.2,0,0.4,0c-0.2,0.2-0.2,0.4,0,0.4c0.2,0.2,0.2,0.2,0.6,0c0.2-0.2,0.4-0.2,0.6-0.4c0.6,0,1,0,1.6,0c-0.2,0.4-0.6,0.8-1,1.2
		c-0.4,0-0.8,0-1,0c0,0,0,0-0.2,0C102.5,121.2,102.3,121,101.9,121z M114.3,131.3v0.2c0.2,1.4,0.2,2.8,0.2,4c0,1.4-0.2,2.6-0.6,4
		c0,0,0,0,0,0.2C113.4,137.2,113.6,134.2,114.3,131.3z M86.4,154.2C86.4,154.4,86.4,154.4,86.4,154.2c-1.2,1-3,1.6-4.6,1.4h-0.2
		c0-0.2,0.2-0.2,0.2-0.6c0-0.8,0-1.6-0.2-2.6c0-0.4,0.2-0.6,0.2-0.8c0.2-0.4,0.6-0.8,0.8-1c0.2-0.2,0.2-0.2,0.2-0.2s0,0-0.4,0
		c-0.4,0.2-0.8,0.6-1,1c0,0.2-0.2,0.2-0.2,0.4v-0.2c-0.2-0.6-0.6-1-1.2-1.4c-0.6-0.4-1.2-0.4-1.8-0.2c-0.8,0.2-0.8,0.4-0.8,0.4
		c0,0.2,0.2,0.2,0.8,0c0.6,0,1,0,1.4,0.2s0.6,0.6,0.8,1.2c0.4,1,0.4,2,0.2,3c0,0.2,0,0.2,0,0.4l0,0c-0.6,0.4-1.2,0.6-2,0.6
		c-0.6,0.2-1.4,0.2-1.8-0.2l-0.2-0.2c0-0.2-0.2-0.4-0.2-0.4v-0.2c0-1.2-0.2-2.4-0.6-3.4c-0.2-0.6-0.6-1.2-1-1.4
		c-0.6-0.4-1.2-0.4-1.8-0.2c-0.2,0-0.2,0.2-0.4,0.2c0-1,0.2-2.2,0.2-3.4c0.2-2,0.2-3.8,0.2-5.9c0-2.6-0.2-5.1-0.2-7.7
		c0.2,0.2,0.2,0.4,0.4,0.8c0.2,0.4,0.2,0.4,0.4,0.2c0.2,0,0.4-0.2,0.2-0.4c-0.2-1-0.8-2-1.2-2.8c0-0.2,0-0.6,0-0.8
		c0.4,0.4,0.6,0.8,0.8,1.2c0.2,0.4,0.2,0.4,0.4,0.2c0.2,0,0.4-0.2,0.2-0.4c-0.2-1-0.8-2-1.6-2.8c0-0.6-0.2-1.2-0.2-1.8
		c0.4,0.4,1,1,1.2,1.6c0.2,0.4,0.4,0.4,0.4,0.2c0.2,0,0.2-0.2,0.2-0.6c-0.4-1.2-1.2-2.4-2.2-3.2h-0.2c0-0.2-0.2-0.4-0.2-0.8
		c0-0.4-0.2-0.6-0.2-1c0.6,0.4,1,0.6,1.6,1c0.2,0.2,0.4,0.2,0.4,0c0.2-0.2,0.2-0.2,0-0.4c-0.6-0.8-1.4-1.6-2.4-2.4h-0.2
		c-0.2-1-0.6-1.8-0.8-2.8c-0.6-1.8-0.8-3.6-1.2-5.5c0-0.4-0.2-1-0.2-1.4c0,0,0,0,0.2,0h0.2c0,0,0.2,0,0.2-0.2c0-0.2,0.2-0.4,0-0.4
		l-0.2-0.2l-0.2-0.2c0,0,0,0,0-0.2h-0.2c0-0.6-0.2-1.2-0.2-1.6c0.2,0.4,0.6,0.6,0.8,1c0.2,0.2,0.4,0.4,0.4,0.6l0,0
		c-0.2,0.2-0.2,0.2,0,0.4c0,0,0.2,0.2,0.4,0c0,0,0,0,0.2,0c0.2,0.2,0.4,0.4,0.6,0.6c-0.2,0.2-0.2,0.4-0.2,0.4c0,0.2,0.2,0.2,0.6,0
		c0,0,0,0,0.2,0.2c0.4,0.4,0.6,0.4,0.8,0.2c0-0.2,0.2-0.2-0.2-0.6h0.2c0.2,0,0.6-0.2,0.8-0.2c0.2,0.2,0.4,0.4,0.4,0.4
		c0.6,0.6,0.8,0.6,1,0.4s0-0.4-0.6-1c0,0,0-0.2-0.2-0.2c0.4,0,0.8,0,1.2,0c0.2,0.2,0.4,0.2,0.6,0.4c0.6,0.6,1,0.4,1,0.2
		c0-0.2,0-0.2-0.4-0.6c0.6,0,1,0.2,1.4,0.4c0,0,0,0,0.2,0.2c0.6,0.6,0.8,0.6,1,0.4c0,0,0,0,0-0.2c1.8,1,3.4,2.6,4.4,4.4
		c0,0,0,0.2,0.2,0.2c-0.2-0.4-0.6-0.6-1-1c-1-0.8-2-1.6-3-2c-0.8-0.4-0.8-0.2-1,0c0,0.2,0,0.4,0.6,0.6c1,0.6,1.8,1.4,2.6,2.2
		c0.8,0.8,1.4,1.8,1.8,2.8c0,0.2,0.2,0.2,0.2,0.4c-0.4-0.6-1-1-1.4-1.4c-1-0.8-2-1.2-3.2-1.6c-0.6-0.2-0.8-0.2-0.8,0
		c0,0.2,0,0.4,0.6,0.6c1,0.4,2,1,2.8,1.8c0.8,0.8,1.4,1.6,1.8,2.6c0.2,0.4,0.2,0.4,0.4,0.6c0,0.2,0,0.4,0,0.6
		c-0.4-0.4-0.6-0.8-1-1.2c-0.8-0.6-1.6-1.2-2.4-1.6c-0.4-0.4-0.6-0.2-0.8,0c0,0.2,0,0.4,0.4,0.6c0.8,0.6,1.4,1.2,2,1.8
		c0.6,0.6,1,1.4,1.4,2.2c0,0.2,0.2,0.4,0.4,0.4c0,0.2,0,0.4,0,0.6c-0.2-0.2-0.6-0.6-0.8-0.8c-0.8-0.6-1.4-1-2.2-1.4
		c-0.4-0.4-0.6-0.2-0.6,0c-0.2,0.2-0.2,0.4,0.4,0.6c0.6,0.6,1.4,1,2,1.6c0.6,0.6,1,1.2,1.2,2c0,0.2,0.2,0.2,0.2,0.4
		c0,0.2,0,0.4,0,0.6c-0.2-0.2-0.4-0.4-0.6-0.6c-0.8-0.6-1.6-1-2.4-1.2c-0.4-0.2-0.6-0.2-0.6,0s0,0.4,0.4,0.6c0.8,0.4,1.4,0.8,2,1.4
		c0.6,0.6,1,1.2,1.2,1.8l0,0v0.2c-0.6-0.4-1.2-0.6-1.8-0.6c-0.4,0-0.4,0-0.4,0.2s0,0.4,0.2,0.4c0.8,0.4,1.6,1,2,1.6c0,0,0,0,0.2,0
		v0.2c0,0.2,0,0.2,0,0.4c-0.4-0.2-0.8-0.6-1.4-0.6c-0.2,0-0.2,0-0.2,0.2s0,0.2,0.2,0.2c0.6,0.4,1,0.8,1.4,1.2c0,0,0.2,0,0.4,0
		c0.4,3.8,1.2,7.7,2.4,11.3c0.4,1,0.8,1.6,1,2c-0.2,1.4-0.6,2.8-0.6,4.2c0,0.6,0,1.4,0,1.8C86.2,153.4,86.2,153.8,86.4,154.2z
		 M75.4,155.4c-0.6,0.2-1.4,0.2-2,0.2c0,0,0,0-0.2-0.2s-0.6-0.6-0.8-1c-0.2-0.4-0.2-1.2-0.2-2.2c0-0.6,0-1.2,0.2-2
		c0.2,0,0.2,0,0.6-0.2c0.6-0.2,1,0,1.4,0.2c0.4,0.4,0.6,0.8,0.8,1.2c0.4,1,0.4,2.2,0.4,3.2C75.4,155.2,75.4,155.2,75.4,155.4z
		 M75.8,106.7c0.2,0.2,0.4,0.6,0.6,0.8c0,0,0,0,0,0.2c-0.4,0-0.6,0-1,0c0,0,0-0.2-0.2-0.2c0,0,0-0.2,0-0.4c0-0.2-0.2-0.2-0.2-0.4
		C75.4,106.7,75.6,106.7,75.8,106.7z M75.8,103.8c0.2-0.2,0.2-0.4,0.4-0.4v0.2C76,103.6,76,103.6,75.8,103.8L75.8,103.8z
		 M83.1,113.1c0.4,0.6,0.6,0.8,0.8,1c0,0.4,0.2,0.8,0.2,1.2c0,0,0-0.2-0.2-0.2c0-0.2-0.2-0.4-0.6-1.2c-0.2-0.4-0.6-1-0.8-1.4
		C82.7,112.7,82.9,112.9,83.1,113.1z M82.9,110.9h0.2v0.2C83.1,111.1,83.1,111.1,82.9,110.9z M83.9,116.8c0,0,0,0.2-0.2,0.4
		c0-0.2-0.2-0.2-0.2-0.4C83.7,116.8,83.7,116.8,83.9,116.8z M83.5,119C83.5,119.2,83.5,119.2,83.5,119c-0.2,0-0.2,0-0.4-0.2
		C83.1,119,83.3,119,83.5,119C83.3,119,83.3,119,83.5,119z M80.9,109.3c0-0.2-0.2-0.2-0.2-0.4c-0.2-0.4-0.2-0.6-0.4-1
		c0.8,0.4,1.4,1,1.8,1.8c0.2,0.4,0.4,0.6,0.6,0.8C82.1,110.1,81.5,109.7,80.9,109.3z M81.7,101.8c-0.2,0.2-0.2,0.4-0.4,0.6
		c-0.2-0.2-0.2-0.4-0.4-0.4c0.2-0.2,0.4-0.4,0.4-0.8c0.2,0.2,0.4,0.2,0.4,0.2C81.7,101.6,81.7,101.8,81.7,101.8z M81.7,103.2
		L81.7,103.2L81.7,103.2L81.7,103.2z M81.7,105.7c-0.2-0.2-0.6-0.4-0.8-0.8c0,0,0-0.2,0.2-0.2c0.2,0.2,0.4,0.4,0.6,0.2
		C81.7,105.3,81.7,105.5,81.7,105.7z M81.3,107.1c0.2,0.2,0.4,0.4,0.6,0.4c0,0.2,0,0.2,0,0.4c-0.6-0.4-1-0.8-1.6-1
		c0,0-0.2,0-0.2-0.2c0.2-0.2,0.2-0.4,0.2-0.4C80.7,106.3,80.9,106.7,81.3,107.1z M80.3,104.2c-0.2-0.2-0.2-0.4-0.4-0.6
		c0.2-0.2,0.2-0.2,0.4-0.4c0.2,0.2,0.2,0.4,0.4,0.6C80.5,103.8,80.3,104,80.3,104.2z M80.5,110.5c0.2,0.4,0.6,1,0.8,1.4
		c-0.4-0.4-1-0.8-1.6-1.2c-0.2-0.4-0.6-0.8-0.8-1.2C79.5,109.9,79.9,110.1,80.5,110.5z M82.1,100c0-0.2,0.2-0.2,0.2-0.4
		C82.3,99.8,82.3,99.8,82.1,100C82.3,100,82.3,100.2,82.1,100C82.1,100.2,82.1,100.2,82.1,100z M82.3,98.4c-0.2,0.2-0.2,0.2-0.4,0.6
		c0,0.2-0.2,0.2-0.2,0.4c-0.2-0.4-0.4-0.6-0.4-1c0.2-0.2,0.2-0.6,0.4-0.8C81.7,97.8,81.9,98,82.3,98.4L82.3,98.4z M82.1,96.4
		c0-0.2,0.2-0.4,0.2-0.6c0.2,0.2,0.2,0.2,0.4,0.4c0,0,0.2,0,0.2,0.2s-0.2,0.4-0.2,0.6C82.7,96.8,82.5,96.6,82.1,96.4z M81.9,95.3
		c0,0.2-0.2,0.4-0.2,0.4c-0.4-0.4-0.6-0.8-0.8-1.4c0-0.4,0-0.6,0.2-1C81.1,94.1,81.5,94.7,81.9,95.3L81.9,95.3z M81.1,96.8
		c0,0.2-0.2,0.2-0.2,0.4V97c0-0.2,0-0.4,0-0.8C80.9,96.4,81.1,96.6,81.1,96.8z M80.9,100.6c-0.2,0.2-0.2,0.4-0.4,0.6
		c-0.2-0.2-0.2-0.6-0.4-0.8c0.2-0.2,0.2-0.4,0.4-0.6C80.5,100,80.7,100.4,80.9,100.6z M79.5,99.4c0-0.2-0.2-0.4-0.2-0.6
		c0.2-0.4,0.4-0.8,0.6-1c0,0.4,0,0.6,0.2,1C79.9,98.8,79.7,99.2,79.5,99.4z M79.7,102.2C79.5,102.2,79.5,102.2,79.7,102.2
		c-0.2,0.2-0.4,0.4-0.4,0.4c-0.2-0.2-0.2-0.4-0.4-0.6c0.2-0.2,0.2-0.4,0.4-0.6C79.5,101.8,79.5,102,79.7,102.2z M79.7,105
		c0,0.2-0.2,0.2-0.2,0.4c-0.2-0.4-0.2-0.6-0.2-1l0,0C79.3,104.6,79.5,104.8,79.7,105z M79.1,107.9c0.2,0.2,0.2,0.4,0.4,0.6
		c-0.2-0.2-0.4-0.2-0.8-0.2c0,0,0,0,0.2-0.2C78.9,108.1,78.9,107.9,79.1,107.9z M78.7,100.6c-0.2,0.2-0.2,0.4-0.4,0.4
		c0,0,0-0.2-0.2-0.4l0,0c0.2-0.2,0.4-0.6,0.4-0.8c0,0.2,0,0.4,0.2,0.4C78.9,100.4,78.7,100.4,78.7,100.6z M77.7,99.6L77.7,99.6
		c-0.2,0-0.2,0-0.2,0c0.4-0.6,0.6-1.2,0.8-2c0,0.2,0,0.6,0,0.8C78.3,98.8,77.9,99.2,77.7,99.6z M77.9,107.1L77.9,107.1
		c-0.2,0.2-0.2,0.2-0.2,0.2s-0.2-0.2-0.2-0.4C77.7,106.9,77.9,106.9,77.9,107.1z M77.1,104.6L77.1,104.6c0.2-0.4,0.4-0.6,0.6-0.8
		c0,0,0,0,0,0.2v0.2C77.5,104.4,77.3,104.4,77.1,104.6z M77.7,105.9c0.2,0,0.2-0.2,0.4-0.2c0,0.2,0,0.2,0.2,0.4
		C78.1,105.9,77.9,105.9,77.7,105.9z M77.7,101.4v0.2c-0.2,0.2-0.4,0.6-0.8,0.8v-0.2C77.3,102,77.5,101.8,77.7,101.4z M76.7,101
		c0.2-0.4,0.4-0.6,0.6-1v0.2C77.1,100.4,76.9,100.8,76.7,101z M77.5,108.9c0.2,0.4,0.6,0.8,0.8,1c-0.4-0.2-0.8-0.2-1-0.4
		c-0.2-0.4-0.6-0.6-0.8-1C76.7,108.7,77.1,108.9,77.5,108.9z M75.8,109.5c-0.4,0-0.6,0-1,0h-0.2c-0.2-0.2-0.4-0.6-0.8-0.8
		c0.4,0,0.8,0,1,0C75.4,108.9,75.6,109.1,75.8,109.5z M74,107.7c-0.2,0-0.4,0-0.6,0c-0.2-0.2-0.4-0.4-0.4-0.6c0,0,0,0,0-0.2
		c0.2,0,0.6,0,0.8-0.2c0,0,0,0.2,0.2,0.2C74,107.3,74,107.5,74,107.7L74,107.7z M72.8,106.1c0-0.2-0.2-0.4-0.2-0.6
		c0,0,0.2,0,0.2-0.2c0.2,0.2,0.2,0.4,0.4,0.8C73,106.1,72.8,106.1,72.8,106.1z M73,108.7c0.2,0.2,0.4,0.6,0.8,0.8
		c-0.4,0-0.6,0-1,0.2c-0.2-0.2-0.4-0.6-0.6-0.8C72.4,108.7,72.6,108.7,73,108.7z M71.8,108.3c-0.2-0.4-0.4-0.6-0.6-1
		c0.2,0,0.4,0,0.6-0.2c0,0,0,0,0.2,0c0.2,0.2,0.2,0.4,0.4,0.4c0,0.2,0.2,0.2,0.2,0.4C72.2,108.1,72,108.1,71.8,108.3z M72,109.9
		c-0.2,0-0.4,0.2-0.6,0.2s-0.4,0.2-0.4,0.2c-0.2-0.2-0.4-0.4-0.4-0.6c0.2,0,0.2-0.2,0.4-0.2c0.2,0,0.4-0.2,0.6-0.2
		C71.6,109.3,71.8,109.7,72,109.9z M71.6,102.8c-0.2,0-0.2,0.2-0.4,0.2c0,0,0,0,0-0.2H71c0.2-0.2,0.6-0.4,0.8-0.6
		C71.6,102.4,71.6,102.6,71.6,102.8z M71,105.9c0.2,0.2,0.2,0.4,0.4,0.6c-0.2,0-0.4,0.2-0.6,0.2c-0.2-0.2-0.4-0.6-0.4-0.8
		c0,0,0,0,0-0.2c0-0.4-0.2-0.8-0.2-1.2l0,0l0.2,0.2C70.6,105.3,70.8,105.5,71,105.9z M70.8,108.5c-0.2,0-0.2,0.2-0.4,0.2
		s-0.2,0.2-0.4,0.2c-0.2-0.2-0.2-0.4-0.4-0.6c-0.2-0.2-0.2-0.4-0.4-0.8c0.2,0,0.2,0,0.4-0.2c0.2,0,0.2,0,0.4-0.2l0,0
		C70.4,107.9,70.6,108.3,70.8,108.5z M68.4,105.7c0-0.4-0.2-0.6-0.2-1l0,0c0.2,0.4,0.4,0.6,0.6,1l0,0c0,0.4,0.2,0.6,0.4,0.6
		c0.2,0.2,0.2,0.4,0.4,0.6h-0.2c-0.2,0-0.4,0.2-0.6,0.2c-0.2-0.4-0.4-0.6-0.4-1c0,0,0-0.2-0.2-0.2C68.4,105.9,68.4,105.9,68.4,105.7
		z M69.4,102.4c-0.2,0.2-0.4,0.2-0.6,0.4c0-0.2,0-0.2,0-0.2l0,0c0.4-0.4,0.8-0.8,1.2-1.2C69.8,101.6,69.6,102,69.4,102.4z
		 M84.5,131.9c0-0.8-0.2-1.6-0.2-2.4c0,0,0-0.2,0-0.4c-0.2-3.2-0.2-6.5,0-9.7c0-0.8,0.2-1.4,0.2-1.8c0,0.4,0.2,0.8,0.2,1.2
		c0.4,2.2,0.8,4.2,1,6.5c0.4,2,0.6,4.2,0.8,6.5c0.2,2.2,0.4,4.2,0.8,6.5c0.2,1.6,0.2,3.4,0.2,5.1C86,139.6,84.9,135.8,84.5,131.9z"
		/>
	<path class="st0" d="M97.5,70.3c-0.8,0.2-0.8,0.4-0.8,0.6s0.2,0.4,1,0c1.4-0.4,2.6-1.4,3.4-2.4c1-1,1.8-2.2,2.4-3.6
		c0.4-0.8,0-1-0.4-1.2c-0.4-0.2-0.6,0-1,0.6c-0.4,1.2-1,2.4-1.8,3.4C99.7,68.9,98.7,69.9,97.5,70.3z"/>
	<path class="st0" d="M99.1,72.3c-0.8,0.2-0.8,0.2-0.8,0.4c0,0,0,0.2,0.2,0.2s0.4,0,0.8,0c1.4-0.4,2.6-1.2,3.8-2.2
		c1-1,1.8-2.2,2.6-3.6c0.4-0.8,0-1-0.4-1.2c-0.4,0-0.6,0-1,0.6c-0.4,1.2-1.2,2.4-2,3.4C101.3,70.9,100.3,71.9,99.1,72.3z"/>
	<path class="st0" d="M101.3,74.7c-0.6,0.2-0.8,0.2-0.8,0.4c0,0,0,0.2,0.2,0.2s0.4,0,0.8,0c1.4-0.4,2.4-1.2,3.4-2.2
		c0.8-1,1.6-2,2.2-3.2c0.4-0.8,0-1-0.4-1c-0.4-0.2-0.6-0.2-1,0.6c-0.4,1.2-1,2.2-1.8,3.2C103.3,73.3,102.3,74.3,101.3,74.7z"/>
	<path class="st0" d="M105.2,75.5c-0.8,0.8-1.8,1.6-3,2c-0.8,0.2-0.8,0.4-0.8,0.6c0,0.2,0.2,0.4,1,0c1.2-0.4,2.4-1,3.4-1.8
		c1-0.8,1.8-2,2.4-3.2c0.2-0.8-0.2-1-0.4-1c-0.4,0-0.6,0-0.8,0.6C106.8,73.7,106.2,74.7,105.2,75.5z"/>
	<path class="st0" d="M107.2,77.2c-0.6,0.6-1.2,1-2.2,1.4c-0.6,0.2-0.6,0.4-0.6,0.6s0.2,0.4,0.8,0.2c0.8-0.2,1.8-0.6,2.6-1.2
		c0.8-0.6,1.4-1.6,1.6-2.4c0.2-0.6,0-0.8-0.4-0.8c-0.4-0.2-0.6-0.2-0.8,0.4C108,75.7,107.6,76.5,107.2,77.2z"/>
	<path class="st0" d="M106,80.6c-0.4,0-0.6-0.2-0.8,0.2c-0.2,1-0.6,2-1.2,3c-0.2,0.2-0.2,0.4,0,0.6c0.2,0.2,0.2,0.2,0.6,0
		c0.8-0.8,1.6-1.8,2-3C106.6,80.8,106.4,80.8,106,80.6z"/>
	<path class="st0" d="M107.8,83.8c0.4-0.8,0.8-1.6,1-2.6c0-0.6-0.2-0.6-0.6-0.6c-0.4,0-0.6,0-0.8,0.4c-0.2,1.6-0.6,3.2-1.8,4.2
		c-0.4,0.4-0.4,0.6-0.4,0.8s0.2,0.2,0.6,0C106.8,85.4,107.4,84.6,107.8,83.8z"/>
	<path class="st0" d="M106.4,88.1c-0.6,0.4-0.8,0.4-0.6,0.6c0,0.2,0.2,0.4,1,0c1.2-0.6,2.2-1.6,2.8-2.6c0.8-1,1.2-2.4,1.4-3.6
		c0.2-0.8-0.2-1-0.6-1s-0.6,0-0.8,0.8C109.4,84.4,108.4,86.9,106.4,88.1z"/>
	<path class="st0" d="M107.4,90.9c-0.6,0.4-0.6,0.6-0.6,0.8c0,0.2,0.2,0.2,1-0.2c2.2-1.4,3.8-3.6,4.9-6.3c0.2-0.8-0.2-1-0.4-1
		c-0.4,0-0.6,0-0.8,0.6C110.6,87.3,109.2,89.5,107.4,90.9z"/>
	<path class="st0" d="M111.6,88.9c-0.2,1.2-0.8,2.2-1.4,3.2s-1.6,1.8-2.6,2.6c-0.6,0.4-0.8,0.4-0.6,0.6c0,0.2,0.2,0.4,1,0
		c1.2-0.6,2.2-1.4,3.2-2.4c0.8-1,1.6-2.2,2-3.6c0.2-0.8-0.2-1-0.4-1C112.2,88.1,111.8,88.3,111.6,88.9z"/>
	<path class="st0" d="M112.6,92.1c-0.2,1-0.6,2-1.2,3c-0.6,0.8-1.4,1.6-2.4,2.2c-0.6,0.4-0.6,0.6-0.6,0.6c0,0.2,0.2,0.2,0.8-0.2
		c1-0.6,2-1.4,2.8-2.2c0.8-1,1.4-2,1.8-3.2c0.2-0.8,0-0.8-0.4-1C113,91.3,112.8,91.5,112.6,92.1z"/>
	<path class="st0" d="M98.3,86.3c-0.4-0.6-0.6-0.4-1-0.2c-0.2,0.4-0.4,0.6-0.2,1c1.2,1.6,2.2,3.2,3,5.1c0.2,0.6,0.4,0.6,0.6,0.4
		c0.2,0,0.2-0.2,0-0.8C100.1,89.9,99.3,88.1,98.3,86.3z"/>
	<path class="st0" d="M96.7,87.7c-0.4-0.6-0.6-0.4-1-0.2c-0.4,0.2-0.6,0.4-0.2,1c1.2,1.6,2.2,3,3.2,4.9c0.2,0.6,0.4,0.6,0.6,0.4
		c0.2,0,0.2-0.2,0-0.8C98.7,91.1,97.7,89.3,96.7,87.7z"/>
	<path class="st0" d="M95.5,90.3c-0.2-0.4-0.6-0.2-0.8,0c-0.4,0.2-0.6,0.4-0.2,0.8c1,1.2,2,2.6,3,3.6c0.4,0.4,0.4,0.4,0.6,0.2
		c0.2-0.2,0.2-0.2-0.2-0.6C97.1,93.1,96.3,91.7,95.5,90.3z"/>
	<path class="st0" d="M94.8,93.5c-0.2-0.2-0.4,0-0.8,0.2s-0.6,0.4-0.4,0.6c0.6,0.8,1.4,1.4,2.2,1.8c0.2,0.2,0.4,0.2,0.4,0
		c0.2-0.2,0.2-0.2,0-0.4C95.9,95.1,95.3,94.3,94.8,93.5z"/>
	<path class="st0" d="M101.9,87.9c-0.4-1-0.6-2-1-3c-0.2-0.6-0.6-0.6-0.8-0.4c-0.4,0.2-0.6,0.2-0.4,1c0.4,1,0.8,2,1.4,2.8
		c0.4,1,0.8,1.8,1.2,2.8c0.2,0.6,0.2,0.6,0.4,0.6c0.2,0,0.4-0.2,0.2-0.8C102.5,89.9,102.1,88.9,101.9,87.9z"/>
	<path class="st0" d="M121.1,87.3c0.2,0,0.4,0,0.6-0.4c0.8-0.8,1-1.8,1.4-2.6c0.2-1,0.4-1.8,0.6-2.8c0-0.6-0.2-0.6-0.6-0.8
		c-0.4,0-0.6,0-0.8,0.6c0,1-0.2,1.8-0.2,2.8c-0.2,0.8-0.4,1.8-0.8,2.4c-0.2,0.2-0.2,0.2-0.4,0.4v0.2
		C120.9,87.3,120.9,87.3,121.1,87.3z"/>
	<path class="st0" d="M121.5,91.7c0.2,0.2,0.4,0,1-0.8c2-2.6,3.2-5.7,3.6-8.9c0-1-0.2-1.2-0.6-1.2c-0.4,0-0.6,0-0.8,1
		c-0.2,3-1.2,6.1-2.8,8.7C121.3,91.3,121.3,91.5,121.5,91.7z"/>
	<path class="st0" d="M122.9,95.1c-0.6,1.2-0.6,1.4-0.4,1.4c0.2,0,0.4,0,1-1.2c1.2-1.8,2.2-3.6,3.2-5.7c0.8-2,1.6-4,1.8-6.3
		c0.2-1.4-0.2-1.6-0.6-1.6c-0.4,0-0.6,0.2-0.8,1.4c-0.2,2-0.6,4-1.4,6.1C124.8,91.5,124,93.3,122.9,95.1z"/>
	<path class="st0" d="M120.1,105.7c2.4-2.4,4.4-5.1,6.1-8.1c1.6-3,3-6.1,3.8-9.5c0.4-2,0-2.4-0.2-2.4c-0.4,0-0.6,0.2-1,2
		c-0.6,3.2-1.8,6.3-3.2,9.3c-1.6,2.8-3.4,5.7-5.7,8.1c-1.4,1.4-1.6,1.8-1.4,1.8C118.3,107.1,118.7,107.1,120.1,105.7z"/>
	<path class="st0" d="M124.6,104.6c1.2-1.8,2.4-3.6,3.4-5.5c0.6-1.2,0.2-1.4,0-1.6c-0.4-0.2-0.6,0-1.2,1c-0.8,1.8-1.8,3.8-3,5.5
		c-1.2,1.8-2.4,3.4-4.2,4.6c-1,0.8-1.2,0.8-1,1c0,0.2,0.4,0.2,1.4-0.4C121.7,107.9,123.3,106.3,124.6,104.6z"/>
	<path class="st0" d="M129.2,99.4c-0.6,1.8-1.4,3.6-2.6,5.3c-1,1.6-2.4,3.2-3.8,4.4c-1,0.8-1,1-0.8,1.2s0.4,0.2,1.4-0.6
		c1.6-1.2,3-2.8,4.2-4.4c1.2-1.6,2.2-3.4,3-5.5c0.4-1.2,0.2-1.4-0.2-1.6C130,98.2,129.6,98.2,129.2,99.4z"/>
	<path class="st0" d="M130.2,103.2c-0.6,1.6-1.6,3.2-2.6,4.6c-1.2,1.4-2.4,2.6-3.8,3.8c-1,0.6-1,0.8-1,1s0.4,0.2,1.4-0.4
		c1.6-1,3-2.2,4.2-3.6s2.4-3,3.2-4.9c0.4-1.2,0.2-1.4-0.2-1.4C130.8,102.2,130.6,102.2,130.2,103.2z"/>
	<path class="st0" d="M130.8,107.1c-0.6,1.4-1.6,2.8-2.6,3.8c-1,1.2-2.2,2.2-3.6,3c-0.8,0.4-1,0.4-1,0.6c0,0,0,0.2,0.2,0.2
		s0.4,0,1-0.2c1.6-0.6,3-1.6,4.2-2.8c1.2-1.2,2.2-2.4,3.2-4c0.4-1,0.2-1.2-0.2-1.4C131.4,106.3,131.2,106.3,130.8,107.1z"/>
	<path class="st0" d="M130.4,112.1c-0.4-0.2-0.6-0.2-1,0.2c-1,1.6-2.4,3-4.2,3.8c-0.6,0.2-0.6,0.4-0.6,0.6s0.2,0.2,0.8,0
		c2-0.6,3.8-1.8,5.3-3.6C131,112.5,130.8,112.3,130.4,112.1z"/>
	<path class="st0" d="M129.8,116.6c0.2-0.4,0-0.6-0.2-0.8c-0.4-0.2-0.6-0.4-0.8,0c-0.8,1-1.6,2.2-2.8,2.8c-0.4,0.2-0.4,0.2-0.4,0.4
		s0.2,0.4,0.6,0.2c0.8-0.2,1.4-0.6,2-1C128.8,117.6,129.4,117.2,129.8,116.6z"/>
	<path class="st0" d="M130,118.2c-0.4-0.2-0.6-0.2-0.8,0c-0.4,1-1.6,1.6-2.4,2.4c-0.4,0.2-0.2,0.4-0.2,0.6c0.2,0.2,0.2,0.2,0.6,0
		c1-0.6,2.2-1,3.2-2.2C130.6,118.6,130.4,118.4,130,118.2z"/>
	<path class="st0" d="M53.8,78.6c0,0.6,0.2,1.2,0.4,1.8c0.2,0.2,0.4,0.6,0.8,0.8c0.4,0.2,0.6,0.2,1,0.2c0.4,0,0.4-0.2,0.4-0.6
		c0-0.2-0.2-0.4-0.4-0.4c-0.4,0-0.8,0-1.2-0.4c-0.2-0.4-0.4-1-0.6-1.4c0-0.4-0.2-0.4-0.2-0.4C53.8,78.2,53.8,78.2,53.8,78.6z"/>
	<path class="st0" d="M55.6,79.8c0.2,0.2,0.6,0.4,1,0.6c0.4,0,0.4-0.2,0.4-0.6c0-0.2-0.2-0.4-0.4-0.4s-0.4,0-0.6-0.2
		c-0.2-0.2-0.2-0.4-0.4-0.6c-0.2-0.4-0.2-1-0.2-1.6c0-0.4,0-0.4-0.2-0.4c-0.2,0-0.2,0-0.4,0.4c-0.2,0.6-0.2,1.2,0,1.8
		C55.2,79.2,55.4,79.6,55.6,79.8z"/>
	<path class="st0" d="M57,78.8c0.2,0.4,0.6,0.6,1,0.6c0.4,0.2,0.6-0.2,0.6-0.6s0-0.6-0.2-0.8c-0.4,0-0.6-0.2-0.8-0.6
		c-0.2-0.4-0.2-1,0-1.4c0.2-0.2,0-0.4-0.2-0.4S57,75.3,57,75.7c-0.2,0.6-0.4,1.2-0.2,2C56.6,78.2,56.8,78.6,57,78.8z"/>
	<path class="st0" d="M59.5,79c0.4,0.2,0.4,0,0.6-0.2c0-0.2,0-0.4-0.2-0.6c-0.2,0-0.4-0.4-0.6-0.8c0-0.4,0-1,0-1.4
		c0-0.2,0-0.4,0-0.4c-0.2,0-0.2,0-0.4,0.2c0,0.6-0.2,1-0.2,1.6c0,0.2,0,0.6,0.2,0.8C59.1,78.6,59.3,78.8,59.5,79z"/>
	<path class="st0" d="M61.1,78.8c0.2,0.2,0.4,0,0.4-0.2c0.2-0.2,0.2-0.4,0.2-0.4c-0.4-0.2-0.8-0.6-0.8-1.2c0-0.2,0-0.2-0.2-0.2
		c0,0-0.2,0-0.2,0.2c-0.2,0.4,0,0.8,0.2,1.2C60.5,78.2,60.7,78.6,61.1,78.8z"/>
	<path class="st0" d="M66.1,69.9c0.4,0.2,0.6-0.2,0.6-0.6c0-0.4,0-0.6-0.2-0.8c-1.2-0.2-2.4-1-3.2-2c0-0.2-0.2-0.2-0.4-0.2
		c-0.2,0-0.2,0.2,0,0.6C63.7,68.3,64.7,69.3,66.1,69.9z"/>
	<path class="st0" d="M64.5,71.1c0.6,0.4,1.6,0.8,2.4,1c0.6,0,0.6-0.2,0.6-0.6c0-0.4,0-0.6-0.4-0.8c-1.4,0-2.6-0.6-3.8-1.6
		c-0.4-0.4-0.4-0.2-0.6-0.2c-0.2,0.2-0.2,0.2,0.2,0.6C63.1,70.1,63.7,70.7,64.5,71.1z"/>
	<path class="st0" d="M68,73.1c-0.8,0.2-1.6,0-2.2-0.4c-0.8-0.4-1.6-1-2.4-1.6c-0.6-0.4-0.6-0.2-0.8,0c0,0.2,0,0.4,0.4,0.6
		c0.8,0.6,1.4,1.2,2.2,1.8c0.4,0.4,0.8,0.6,1.4,0.8c0.6,0.2,1.2,0.2,1.6,0.2c0.6-0.2,0.6-0.4,0.6-0.8C68.6,73.3,68.4,73.1,68,73.1z"
		/>
	<path class="st0" d="M67.4,75.1c-0.4,0.2-1.2,0.2-1.8,0.2c-0.6-0.2-1.2-0.4-1.8-0.8c-0.2-0.2-0.4-0.2-0.6-0.2
		c-0.2,0.2-0.2,0.2,0.2,0.6c0.6,0.6,1.2,1,1.8,1.4c0.8,0.4,1.6,0.4,2.4,0.2c0.6-0.2,0.4-0.6,0.2-0.8C67.8,75.1,67.6,74.9,67.4,75.1z
		"/>
	<path class="st0" d="M66.7,77.4c-0.8,0.2-1.6,0-2.2-0.4c-0.2-0.2-0.2,0-0.4,0c0,0-0.2,0.2,0.2,0.4c0.4,0.2,0.8,0.4,1.2,0.6
		c0.4,0.2,0.8,0.2,1.4,0.2c0.4,0,0.4-0.2,0.2-0.4C67.2,77.6,67.2,77.4,66.7,77.4z"/>
	<path class="st0" d="M64.5,66.4c0.2,0.4,0.6,0.6,1,0.8c0.2,0.2,0.4,0,0.4-0.2c0-0.2,0.2-0.4,0-0.6c-0.6-0.2-1.2-0.8-1.6-1.2
		c0-0.2-0.2-0.2-0.2-0.2c-0.2,0-0.2,0-0.2,0.4C64.1,65.6,64.3,66,64.5,66.4z"/>
	<path class="st0" d="M58.3,81c-0.2,0.2-0.2,0.2-0.2,0.4s-0.2,0.4-0.2,0.4c-0.2,0.4-0.2,0.6-0.2,1c0,0.6,0,1.2-0.2,1.4
		c-0.2,0.4-0.4,0.4-0.2,0.8c0,0.2,0.2,0.2,0.2,0.2c0.2,0,0.4,0,0.6-0.4c0,0,0-0.2,0.2-0.2c0.4,0.2,1,0.2,1.4,0.2
		c0.6,0,1-0.4,1.4-0.6c0.4-0.4,0.6-0.8,0.8-1.2c0.2-0.4,0.4-0.8,0.4-1.4l0,0c0.2-0.2,0.2-0.4,0.2-0.8c0-0.6,0-1-0.8-1
		c-0.6,0-1.2,0-1.8,0.2C59.3,80.2,58.7,80.6,58.3,81z M58.5,82.8c0-0.2,0.2-0.2,0.2-0.4l0,0c0,0,0,0,0,0.2s0,0.4,0.2,0.6
		C58.9,83,58.9,82.8,58.5,82.8C58.7,82.8,58.7,82.8,58.5,82.8z M61.3,81.6c-0.2,0.4-0.4,0.8-0.6,1c0,0,0,0,0-0.2s0-0.2,0-0.4l0,0
		c0-0.2-0.2-0.4-0.4-0.4l0,0c0,0,0,0-0.2,0h0.2C60.5,81.6,60.9,81.6,61.3,81.6z"/>
	<path class="st0" d="M59.5,89.3c-1-0.6-1.8-0.6-2.8-0.8c-0.6-0.2-0.6,0-0.8,0.2c0,0.2,0,0.4,0.6,0.4c0.8,0.2,1.8,0.6,2.4,1
		c0.6,0.4,0.8,1.2,1,2c0,0.4,0.4,0.6,0.8,0.6s0.8,0,0.6-0.8c-0.2-0.6-0.2-1-0.6-1.4C60.3,89.9,59.9,89.5,59.5,89.3z"/>
	<path class="st0" d="M60.7,87.7c-0.6-0.6-1.4-0.8-2.2-1c-0.4-0.2-0.6,0-0.6,0.2s0,0.4,0.4,0.4c1.2,0.4,2.2,1.6,2.2,2.6
		c0,0.4,0.4,0.4,0.8,0.4c0.4,0,0.8,0,0.6-0.6C61.9,88.9,61.3,88.1,60.7,87.7z"/>
	<path class="st0" d="M63.3,84.2c0,0.4,0,0.8,0.2,1c0.2,0.4,0.6,0.2,0.8,0c0.4-0.2,0.6-0.4,0.4-0.6c-0.2-0.4-0.4-0.8-0.4-1.4
		c0-0.6,0.2-1.2,0-2c0-0.4-0.2-0.4-0.4-0.4c-0.2,0-0.2,0.2-0.2,0.4c0,0.4-0.2,1-0.4,1.6C63.3,83.6,63.3,84,63.3,84.2z"/>
	<path class="st0" d="M65.7,83c0.2,0,0.4-0.2,0.4-0.2c0-0.2,0-0.6-0.2-1c0-0.4-0.2-0.8-0.4-1s-0.2-0.2-0.4,0c-0.2,0-0.2,0.2,0,0.4
		c0.2,0.2,0.2,0.6,0.2,1s0,0.6,0,1C65.3,83,65.5,83,65.7,83z"/>
	<path class="st0" d="M62.7,84c0-0.2-0.2-0.2-0.4-0.2s-0.4,0-0.2,0.4c0,0.4,0,0.8,0,1.4c0,0.4,0,1,0.4,1.6c0.2,0.4,0.4,0.2,0.8-0.2
		c0.2-0.2,0.4-0.6,0.4-0.6c-0.2-0.2-0.4-0.6-0.4-0.8C62.9,85,62.7,84.4,62.7,84z"/>
	<path class="st0" d="M48.8,92.1c-0.4-0.6-0.8-1.4-1.6-1.8c-0.4-0.2-0.6,0-0.6,0c0,0.2,0,0.4,0.4,0.4c0.6,0.4,0.8,1,1,1.6
		c0.2,0.6,0.4,1.4,0.6,2.2c0.2,0.2,0.4,0.4,0.4,0.4c0.2,0,0.2-0.2,0.4-0.2c0.2-0.2,0.2-0.2,0.4-0.4c0-0.2,0-0.2,0-0.4
		C49.4,93.5,49.2,92.7,48.8,92.1z"/>
	<path class="st0" d="M50.8,92.5c-0.2-0.4-0.4-1.2-1-1.6c-0.4-0.2-0.4-0.2-0.6,0c0,0.2-0.2,0.4,0,0.4c0.2,0.4,0.4,0.8,0.4,1.2
		s0,1,0.4,1.6c0.2,0.4,0.6,0.2,0.8,0c0.4-0.2,0.6-0.4,0.4-0.6C51.2,93.5,51,93.1,50.8,92.5z"/>
	<path class="st0" d="M52.4,92.3c0-0.2-0.2-0.2-0.4-0.2c-0.2,0-0.4,0.2-0.2,0.4c0,0.4,0.2,0.8,0.4,1c0.2,0.4,0.2,0.6,0.2,0.8
		c0,0.2,0.4,0.2,0.8,0.2c0.4,0,0.8,0,0.6-0.4c-0.2-0.4-0.4-0.8-0.6-1.2C52.6,92.9,52.4,92.7,52.4,92.3z"/>
	<path class="st0" d="M54.4,93.1c0-0.2-0.2-0.2-0.2-0.2c-0.2,0-0.2,0-0.2,0.2s0,0.6,0.2,0.8c0,0.2,0,0.4-0.2,0.6
		c0,0,0.2,0.2,0.4,0.4c0.2,0.2,0.4,0.2,0.6,0c0.2-0.4,0-0.8,0-1C54.8,93.5,54.6,93.3,54.4,93.1z"/>
	<path class="st0" d="M58.9,91.9c-0.6-0.4-1.2-0.6-1.8-0.8c-0.4-0.2-0.4-0.2-0.4,0c0,0,0,0.2,0.2,0.4c0.6,0.2,1.2,0.4,1.4,0.8
		c0.4,0.4,0.4,0.8,0.4,1.4c0,0.4,0.2,0.4,0.4,0.4s0.4,0,0.4-0.4s0-0.6-0.2-1C59.5,92.5,59.1,92.1,58.9,91.9z"/>
	<path class="st0" d="M72.8,91.7c0,0.2,0.2,0.2,0.4,0.2c0.2,0,0.4,0.2,0.4,0s0-0.4,0-0.6c0-0.2-0.2-0.4-0.2-0.4
		c-0.2-0.2-0.4-0.4-0.6-0.4c0-0.2-0.2-0.2-0.2,0c-0.2,0-0.2,0.2-0.2,0.2c0,0.2,0.2,0.6,0.4,0.6C72.8,91.5,72.8,91.5,72.8,91.7z"/>
	<path class="st0" d="M70.6,61.6c0.4,0,0.4-0.2,0.4-0.4c0-0.2-0.2-0.4-0.4-0.4c-0.4,0-0.8,0-1-0.4c-0.2-0.2-0.4-0.8-0.4-1.2
		c0-0.2,0-0.4-0.2-0.4c-0.2,0-0.2,0-0.2,0.4c0,0.6,0,1.2,0.4,1.6C69.4,61.4,70,61.6,70.6,61.6z"/>
	<path class="st0" d="M71.4,60.6c0.4,0.2,0.6-0.2,0.6-0.6s0-0.6-0.2-0.8c-0.4,0-0.6-0.2-0.8-0.6c-0.2-0.4-0.2-0.8-0.2-1.2
		c0-0.2,0-0.4-0.2-0.4c-0.2,0-0.4,0-0.4,0.4c-0.2,0.6-0.2,1.2,0,1.8C70.4,59.6,70.8,60.2,71.4,60.6z"/>
	<path class="st0" d="M72.8,59.2c0.2,0.2,0.4,0,0.8-0.2c0.4-0.2,0.6-0.4,0.4-0.6c-0.6-0.6-0.8-1-0.8-1.8c0-0.2,0-0.2-0.2-0.4
		c-0.2,0-0.4,0-0.4,0.2c-0.2,0.4-0.2,1-0.2,1.4C72.4,58.4,72.6,58.8,72.8,59.2z"/>
	<path class="st0" d="M75.2,58.8c0.4-0.2,0.6-0.4,0.6-0.6c-0.4-0.6-0.8-1.2-0.6-1.8c0.2-0.2,0-0.2-0.2-0.4s-0.2-0.2-0.4,0
		c-0.2,0.4-0.4,1-0.4,1.4c0,0.6,0.2,1,0.2,1.4C74.6,59,74.8,59,75.2,58.8z"/>
	<path class="st0" d="M76.9,59c0.2,0,0.4,0,0.4-0.2c0-0.6-0.2-1.2,0-1.8c0-0.2,0-0.2-0.2-0.2c-0.2,0-0.2,0-0.2,0.2
		c-0.2,0.6-0.2,1.2-0.4,1.8C76.5,59,76.7,59,76.9,59z"/>
	<path class="st0" d="M78.3,59.6c0.2,0,0.4,0,0.4,0c0-0.4,0-0.8,0.2-1.2c0-0.2,0-0.2-0.2-0.2c-0.2,0-0.2,0-0.2,0
		c-0.2,0.4-0.4,0.8-0.6,1.2C77.9,59.4,78.1,59.4,78.3,59.6z"/>
	<path class="st0" d="M52.4,61c0.4,0.2,0.8,0.2,1.4,0.4c0.2,0,0.2-0.2,0.2-0.4s0-0.4,0-0.4c-0.4,0-1,0-1.6,0c-0.2,0-0.2,0-0.2,0.2
		C52.2,61,52.2,61,52.4,61z"/>
	<path class="st0" d="M51,63c0.8,0.2,1.4,0.4,2,0.8c0.2,0.2,0.4-0.2,0.6-0.4c0.2-0.4,0.4-0.6,0.2-0.8c-0.8-0.4-1.8-0.4-2.6-0.4
		c-0.2,0-0.2,0.2-0.2,0.4C50.6,63,50.8,63,51,63z"/>
	<path class="st0" d="M49.8,65.8c0.8-0.2,1.4,0.2,2,0.6c0.2,0.2,0.4-0.2,0.6-0.4c0.2-0.4,0.4-0.6,0.2-0.8c-0.4-0.2-1-0.4-1.4-0.4
		c-0.4,0-1,0-1.4,0.2c-0.2,0-0.2,0.2-0.2,0.4C49.6,65.8,49.6,66,49.8,65.8z"/>
	<path class="st0" d="M51.4,67.7l-1.8,0.4c-0.2,0-0.2,0.2-0.2,0.4c0,0.2,0,0.4,0.2,0.4l1.8,0.4c0.2,0,0.2-0.4,0.2-0.6
		S51.6,67.7,51.4,67.7z"/>
	<path class="st0" d="M50.8,71.5c0,0,0-0.2,0-0.4c0-0.2,0-0.4,0-0.4L50,70.9c0,0,0,0,0,0.2c0,0.2,0,0.2,0,0.2L50.8,71.5z"/>
	<path class="st0" d="M62.9,138c0.4,0.4,0.8,1,1,1.4c0,0.2,0.2,0.2,0.6,0c0.2,0,0.4-0.2,0.4-0.4c-0.4-0.6-0.8-1.2-1.4-1.4
		c-0.2-0.2-0.2,0-0.4,0C62.7,137.8,62.7,137.8,62.9,138z"/>
	<path class="st0" d="M83.7,93.3c0.2-0.2,0.4-0.4,0.2-0.6c-0.6-0.8-1.2-1.6-1.2-2.4c0-0.2,0-0.4-0.2-0.4s-0.2,0-0.2,0.4
		c0,1.2,0.4,2.2,1,3C83.3,93.5,83.5,93.3,83.7,93.3z"/>
	<path class="st0" d="M84.1,91.9c0.2,0.2,0.4,0,0.6,0c0.2-0.2,0.4-0.4,0.2-0.4c-0.4-0.4-0.8-1-1-1.6c0-0.2-0.2-0.2-0.2-0.2
		c-0.2,0-0.2,0-0.2,0.2C83.5,90.3,83.9,91.1,84.1,91.9z"/>
	<path class="st0" d="M64.5,94.1c-0.6-0.4-1.4-0.4-2,0c-0.4,0.2-0.4,0.4-0.2,0.6s0.2,0.2,0.4,0.2c1-0.2,1.8,0.6,2,1.6
		c0,0.2,0.4,0.2,0.8,0.2c0.4,0,0.6-0.2,0.6-0.6C65.7,95.1,65.1,94.5,64.5,94.1z"/>
	<path class="st0" d="M65.3,92.1c-0.4-0.2-1-0.2-1.4,0c-0.2,0-0.2,0.2-0.2,0.4c0,0.2,0.2,0.4,0.4,0.2c0.8,0,1.2,0.4,1.6,1
		c0.2,0.2,0.4,0,0.8-0.2s0.6-0.4,0.4-0.6C66.1,92.5,65.7,92.3,65.3,92.1z"/>
	<path class="st0" d="M65.3,90.5c-0.2,0-0.2,0-0.2,0.2s0,0.2,0.2,0.2c0.4,0,0.8,0.4,1,0.6c0,0,0.2,0,0.4-0.2
		c0.2-0.2,0.4-0.4,0.2-0.4C66.3,90.5,65.7,90.5,65.3,90.5z"/>
	<path class="st0" d="M55.6,81.6c-0.2-0.2-0.4-0.2-0.4-0.2c-0.4,0.4-1,0.4-1.4,0c-0.2-0.2-0.2-0.2-0.4,0c-0.2,0-0.2,0.2,0,0.4
		c0.2,0.4,0.6,0.6,1,0.6c0.4,0,1,0,1.2-0.4C56,81.8,55.8,81.6,55.6,81.6z"/>
	<path class="st0" d="M92.4,62.4c1.2,0.6,2.6,1,4.2,1.2c1.4,0.2,3,0,4.4-0.4c0.8-0.4,0.8-0.8,0.6-1c-0.2-0.4-0.4-0.4-1.2-0.2
		c-1.2,0.6-2.4,0.8-3.8,0.8c-1.4,0-2.6-0.2-3.8-0.8c-0.8-0.4-1-0.4-1-0.2C91.6,61.8,91.6,62,92.4,62.4z"/>
	<path class="st0" d="M95.9,68.1c0.4,0,0.6,0,0.8,0c-0.2,0-0.4,0.2-0.6,0.2c-0.6,0.2-0.6,0.2-0.6,0.4c0,0,0,0.2,0.2,0.2s0.4,0,0.6,0
		c1.2-0.2,2-1,2.8-1.8c0.8-0.8,1.4-1.6,2-2.4c0.4-0.6,0.2-0.8-0.2-1c-0.2-0.2-0.6-0.2-0.8,0c-0.2,0-0.4,0-0.6,0.2
		c-0.8,0.6-2,0.8-3,0.8c-1,0-2.2-0.2-3.2-0.6c-0.6-0.4-0.8-0.2-0.8,0c0,0.2,0,0.4,0.6,0.6c1,0.6,2.2,1,3.6,1c0.8,0,1.6,0,2.4-0.2
		c-0.2,0.2-0.4,0.6-0.6,0.8l-0.2,0.2c0,0-0.2-0.2-0.4-0.2c-0.6,0.2-1.2,0.2-1.8,0.2s-1.2-0.2-1.8-0.4c-0.4-0.2-0.4,0-0.6,0.2
		c0,0.2,0,0.4,0.2,0.4C94.4,67.5,95,67.9,95.9,68.1z"/>
	<path class="st0" d="M87.8,65.6c0.8,1,1.8,1.8,3.2,2c0.4,0,0.6,0,0.8-0.2c0.2-0.2,0.2-0.4,0-0.4c0-0.4-0.2-0.6-0.8-0.6
		c-1,0-1.8-0.6-2.6-1.4c-0.6-0.8-1-1.8-1.4-2.8c-0.2-0.6-0.2-0.8-0.4-0.8s-0.4,0.2-0.2,0.8C86.6,63.6,87,64.6,87.8,65.6z"/>
	<path class="st0" d="M92.6,69.9c0-0.4,0-0.6-0.6-0.8c-1.6,0-3.2-0.8-4.4-2.2c-0.2-0.6-0.4-0.6-0.6-0.4c-0.2,0-0.2,0.2,0,0.8
		c1,1.6,2.8,3,4.9,3.2C92.4,70.5,92.6,70.1,92.6,69.9z"/>
	<path class="st0" d="M92.4,71.5c-0.8,0.2-1.8,0-2.6-0.4c-0.2-0.2-0.4,0-0.4,0c-0.2,0.2-0.2,0.2,0.2,0.4c0.4,0.4,0.8,0.6,1.4,1
		c0.6,0.2,1.2,0.4,1.8,0.4c0.4,0,0.4-0.4,0.2-0.8C92.8,71.7,92.6,71.5,92.4,71.5z"/>
	<path class="st0" d="M91.4,36.7c0.2,0.2,0.4,0.2,0.6,0c0.2,0,0.2-0.2,0.2-0.6c0-0.2-0.2-0.8-0.4-1.6c-0.2-0.6-0.2-1.2,0-1.8
		c0.2-0.6,0.6-1.2,1-1.6c1-1,2.2-1.8,3.4-2.6c2.6-1.4,5.5-2.4,8.3-3.6c1.8-0.8,1.8-1,1.8-1.2s-0.4-0.2-2,0.6c-2.8,1-5.7,2-8.5,3.4
		C94.4,28.2,93,29,92,30.3c-0.6,0.6-1,1.2-1.4,2.2c-0.2,0.8-0.4,1.8-0.2,2.6C90.8,36.1,91.2,36.5,91.4,36.7z"/>
	<path class="st0" d="M101.5,31.7c0.8-1,1.4-2.2,1.6-3.4c0.2-0.8,0-1-0.2-1c-0.2,0-0.2,0.2-0.2,0.8c-0.2,1.2-0.8,2.2-1.8,3
		c-0.8,0.8-1.6,1.2-2.6,1.6c0-0.2,0.2-0.4,0.2-0.6c0-0.4-0.2-0.4-0.4-0.4s-0.4,0-0.6,0.4c0,0.4-0.2,0.8-0.2,1.2l-0.2,0.2l0,0
		c-0.2,0.4-0.6,0.8-1.2,0.8c-0.2,0-0.4,0-0.4,0.2s0,0.2,0.4,0.2s0.8,0,1-0.2s0.6-0.4,0.8-0.6l0,0c0.2,0,0.2,0,0.4-0.2
		c1-0.4,2-1,2.8-1.8v0.2c-0.6,3-3,5.7-5.9,6.5c-0.2,0-0.2,0-0.2,0c0.2-0.2,0.2-0.6,0.4-0.8c0-0.2-0.2-0.4-0.4-0.4s-0.4,0-0.4,0.2
		c0,0.8-0.4,1.6-1,2c-0.2,0.2-0.2,0.2-0.2,0.4c0,0.2,0.2,0.2,0.4,0c0.2-0.2,0.6-0.4,0.8-0.6c0.2,0.2,0.4,0.2,1.2,0
		c1.4-0.6,2.8-1.6,3.8-2.8c-0.2,1.2-0.6,2.6-1.2,3.6c-0.6,1.2-1.8,2-3,2.6c0-0.2,0.2-0.4,0.2-0.6c0-0.2-0.2-0.4-0.4-0.4
		c-0.2,0-0.4,0-0.6,0.2c0,0.8-0.2,1.4-0.6,2.2c-0.2,0.2,0,0.2,0,0.4c0,0,0.2,0.2,0.4-0.2c0.2-0.2,0.2-0.4,0.4-0.4c0.2,0,0.4,0,1-0.2
		c0.8-0.6,1.6-1.2,2.4-2c0,0,0,0,0,0.2c0.2,1,0,2.2-0.4,3s-1.2,1.6-1.8,2.2l0,0c0-0.2-0.2-0.2-0.4-0.2c-0.2,0-0.4,0-0.4,0.2
		c0,0.6,0.2,1.4-0.2,1.8c-0.2,0.2-0.2,0.2,0,0.4c0,0.2,0.2,0.2,0.4,0c0.4-0.2,0.4-0.6,0.6-1c0.2,0,0.4,0,0.6-0.4
		c0.8-0.8,1.6-1.6,2.2-2.8c0.4-1,0.6-2.4,0.4-3.4c0-0.2,0-0.4-0.2-0.4c0.2-0.2,0.4-0.6,0.4-0.8c0.8-1.4,1-2.8,1-4.2
		c0-0.2,0-0.2,0-0.4c0.8-1.2,1.4-2.4,1.6-3.8C101.5,32.3,101.5,31.9,101.5,31.7z"/>
	<path class="st0" d="M91.4,39.2c0.4,0.2,0.6,0,0.8-0.2c0.2-0.4,0.4-0.6,0-0.8c-0.6-0.4-1-0.8-1.2-1.2c-0.4-0.6-0.4-1.2-0.6-1.8
		c0-0.4-0.2-0.4-0.2-0.6c-0.2,0-0.4,0-0.4,0.4c0,0.8,0,1.6,0.2,2.2C90.4,37.9,90.8,38.5,91.4,39.2z"/>
	<path class="st0" d="M90,39.8c0.4,0.6,1,1,1.8,1.2c0.6,0,0.6-0.4,0.4-0.6c0-0.4-0.2-0.6-0.4-0.6c-0.4,0-0.8-0.2-1.2-0.4
		c-0.4-0.4-0.8-0.8-1-1.4c-0.2-0.4-0.2-0.4-0.4-0.2c-0.2,0-0.4,0.2-0.2,0.6C89.4,38.5,89.6,39.2,90,39.8z"/>
	<path class="st0" d="M90.2,42.2c0.6,0.4,1.4,0.6,2.2,0.6c0.4-0.2,0.4-0.4,0.2-0.8c-0.2-0.4-0.2-0.6-0.6-0.6c-0.8,0.4-2-0.2-2.6-1
		c0-0.4-0.2-0.4-0.4-0.4s-0.4,0.2-0.2,0.6C89.2,41.2,89.6,41.8,90.2,42.2z"/>
	<path class="st0" d="M90.4,44.2c0.6,0.4,1.4,0.6,2,0.4c0.4-0.2,0.4-0.4,0.2-0.8c-0.2-0.4-0.4-0.6-0.6-0.6c-0.4,0.2-0.8,0.2-1.2,0
		c-0.4-0.2-0.8-0.4-1.2-0.8C89.4,42,89.2,42,89,42.2c-0.2,0-0.2,0.2,0,0.6C89.4,43.2,89.8,43.8,90.4,44.2z"/>
	<path class="st0" d="M90.8,46.2c0.6,0.2,1.4,0,2-0.4c0.4-0.2,0.2-0.6,0-0.8c-0.2-0.2-0.6-0.4-0.6-0.4c-0.6,0.6-1.8,0.8-2.4,0
		c-0.2-0.2-0.2-0.2-0.4-0.2c-0.2,0-0.4,0.2-0.2,0.6C89.4,45.6,90,46,90.8,46.2z"/>
	<path class="st0" d="M92.8,46.8c-0.4-0.2-0.6-0.4-0.8-0.2c-0.2,0.2-0.4,0.4-0.8,0.6c-0.4,0-0.8,0-1.2-0.2c-0.2-0.2-0.4-0.2-0.4,0
		c-0.2,0.2-0.2,0.2,0,0.6c0.4,0.4,1,0.8,1.6,0.8c0.6,0,1.4-0.2,1.8-0.6C93.4,47.2,93.2,47,92.8,46.8z"/>
	<path class="st0" d="M92.6,49.1c-0.2-0.2-0.6-0.4-0.6-0.4c-0.4,0.6-1,0.8-1.6,0.4c-0.2-0.2-0.2,0-0.4,0c-0.2,0.2-0.2,0.2,0,0.4
		c0.2,0.4,0.8,0.6,1.4,0.6c0.6,0,1.2-0.2,1.6-0.6C93.2,49.5,93,49.3,92.6,49.1z"/>
	<path class="st0" d="M91.8,51.1c-0.4,0.4-0.6,0.6-1.2,0.6c-0.2,0-0.2,0-0.4,0.2c-0.2,0.2-0.2,0.2,0,0.4c0.4,0.2,0.8,0.4,1.2,0.4
		s0.8-0.2,1.2-0.4c0.2-0.2,0-0.4-0.2-0.6C92,51.3,91.8,51.1,91.8,51.1z"/>
	<path class="st0" d="M92,53.9c-0.2-0.2-0.6-0.4-0.6-0.4c0,0.2,0,0.2-0.2,0.2s-0.2,0.2-0.4,0c0,0-0.2,0-0.2,0.2c0,0.2-0.2,0.2,0,0.4
		s0.6,0.4,0.8,0.4c0.4,0,0.8,0,1-0.2C92.6,54.5,92.4,54.3,92,53.9z"/>
	<path class="st0" d="M103.9,42.6c0.6,0,1-0.2,1.6-0.4c0.2-0.2,0-0.2-0.2-0.4c-0.2-0.2-0.4-0.4-0.4-0.2c-0.2,0.4-0.6,0.6-1,0.6
		c-0.2,0-0.2,0.2-0.2,0.2C103.7,42.4,103.7,42.6,103.9,42.6z"/>
	<path class="st0" d="M101.7,37.7c-0.2-0.2-0.4-0.2-0.4-0.2c-0.2,0.4-0.4,0.6-0.8,0.8c-0.2,0-0.2,0.2-0.2,0.2c0,0.2,0,0.2,0.2,0.2
		c0.6,0,1.2-0.2,1.6-0.6C102.1,37.9,101.9,37.7,101.7,37.7z"/>
	<path class="st0" d="M103.9,31.9c-0.2-0.2-0.4-0.2-0.4,0c-0.2,0.4-0.4,0.8-1,0.8c-0.2,0-0.2,0.2-0.2,0.2c0,0.2,0,0.2,0.2,0.2
		c0.4,0,0.6,0,1-0.2c0.4-0.2,0.6-0.4,0.8-0.6C104.3,32.1,104.1,31.9,103.9,31.9z"/>
	<path class="st0" d="M104.3,27.8c-0.2,0-0.4,0-0.4,0c0,0.4-0.2,0.8-0.6,1c-0.2,0-0.2,0.2,0,0.2c0,0.2,0,0.2,0.2,0.2
		c0.6-0.2,1-0.6,1.2-1.2C104.8,28,104.5,27.8,104.3,27.8z"/>
	<path class="st0" d="M94.6,34.9c0.6-0.4,1.2-0.8,1.6-1.6c0.2-0.2,0-0.4-0.4-0.4c-0.2,0-0.4-0.2-0.6,0c-0.2,0.6-0.6,1.2-1,1.6
		c-0.2,0-0.2,0.2-0.2,0.4C94.2,34.9,94.4,34.9,94.6,34.9z"/>
	<path class="st0" d="M78.1,50.7c-0.4-0.4-1-0.8-1.6-1c-0.6-0.2-1.2-0.4-2-0.2c-0.4,0.2-0.4,0.4-0.2,0.8c0.2,0.4,0.2,0.6,0.6,0.6
		c0.8-0.4,1.8-0.2,2.8,0.4c0.2,0.2,0.4,0,0.6,0C78.3,50.9,78.5,50.9,78.1,50.7z"/>
	<path class="st0" d="M76.9,47.4c-0.6-0.4-1.4-0.4-2.2-0.2c-0.4,0.2-0.4,0.6-0.2,0.8c0.2,0.4,0.4,0.6,0.6,0.4c0.4-0.2,0.8-0.2,1.4,0
		c0.6,0.2,1,0.4,1.4,0.8c0.2,0.2,0.4,0.2,0.6,0.2c0.2-0.2,0.2-0.2,0-0.6C78.1,48.2,77.7,47.6,76.9,47.4z"/>
	<path class="st0" d="M74.8,45.6c0.2-0.2,1-0.2,1.4,0c0.6,0.2,1.2,0.6,1.6,1c0.2,0.2,0.4,0.2,0.6,0.2c0.2-0.2,0.2-0.2,0-0.6
		c-0.4-0.6-1-1-1.6-1.4c-0.4-0.2-0.6-0.4-1-0.4s-0.8-0.2-1.4,0c-0.2,0.2-0.4,0.4-0.4,0.4c0,0.2,0.2,0.2,0.2,0.4
		C74.4,45.6,74.6,45.8,74.8,45.6z"/>
	<path class="st0" d="M79.3,45.2c0.2,0,0.4-0.2,0.2-0.6c-0.2-0.8-0.8-1.6-1.8-2.2c-0.8-0.6-1.8-0.6-2.8-0.4
		c-0.6,0.2-0.6,0.4-0.4,0.8c0.2,0.4,0.2,0.6,0.6,0.6c0.6-0.2,1.4-0.2,2,0c0.6,0.2,1.2,0.8,1.6,1.4C78.9,45.2,79.1,45.2,79.3,45.2z"
		/>
	<path class="st0" d="M75.6,40.6c0.6-0.2,1.4,0,2.2,0.4s1.4,1,2,1.6c0.4,0.4,0.6,0.4,0.6,0.4c0.2-0.2,0.2-0.2-0.2-0.8
		c-0.6-0.8-1.2-1.4-2-2c-0.4-0.2-0.8-0.6-1.4-0.6c-0.6-0.2-1.2-0.2-1.6,0c-0.4,0.2-0.4,0.2-0.6,0.4c0,0.2,0,0.4,0.2,0.4
		C75,40.6,75.2,40.8,75.6,40.6z"/>
	<path class="st0" d="M77.3,38.5c0.4-0.2,1.2,0.2,1.8,0.6s1,1,1.4,1.6c0.2,0.4,0.4,0.4,0.6,0.4s0.4-0.2,0-0.6
		c-0.4-0.8-0.8-1.4-1.4-2c-0.4-0.4-0.6-0.6-1-0.8c-0.4-0.2-0.8-0.4-1.4-0.4c-0.4,0-0.6,0.2-0.6,0.4c0,0.2,0,0.4,0,0.4
		C76.9,38.3,76.9,38.5,77.3,38.5z"/>
	<path class="st0" d="M79.1,36.7c1.2,0.2,2,1.4,2.4,2.6c0,0.4,0.2,0.4,0.4,0.4s0.4,0,0.2-0.6c0-0.8-0.4-1.6-0.8-2.2s-1.2-1.2-2-1.6
		c-0.2-0.2-0.4,0.2-0.4,0.6S78.9,36.5,79.1,36.7z"/>
	<path class="st0" d="M82.7,37.1c0,0.2,0.2,0.2,0.4,0.2c0.2,0,0.4-0.2,0.2-0.4c-0.2-0.8-0.6-1.8-1.4-2.6c-0.2-0.2-0.4,0-0.6,0.4
		s-0.2,0.6-0.2,0.8C81.9,35.9,82.3,36.5,82.7,37.1z"/>
	<path class="st0" d="M83.3,47.4c-1.2-0.6-2.6-0.6-4-0.4c-0.4,0.2-0.4,0.4-0.2,0.8c0.2,0.4,0.4,0.6,0.6,0.4c1-0.4,2.2-0.6,3.2-0.4
		c0.4,0.2,0.4,0,0.6-0.2C83.7,47.8,83.7,47.6,83.3,47.4z"/>
	<path class="st0" d="M80.5,45.2c0.2,0.4,0.2,0.6,0.4,0.6c0.6-0.2,1.4-0.2,2,0.2c0.2,0.2,0.2,0,0.4,0c0.2-0.2,0.2-0.2,0-0.4
		c-0.6-0.6-1.6-1.2-2.6-1C80.3,44.6,80.3,45,80.5,45.2z"/>
	<path class="st0" d="M82.1,43c0,0,0-0.2,0.2-0.2s0.2,0,0.4,0c0.2,0,0.2,0,0.2-0.2c0-0.2,0-0.4,0-0.4c-0.2-0.2-0.4-0.2-0.6-0.4
		c-0.2,0-0.6,0-0.8,0c-0.2,0,0,0.4,0.2,0.6C81.9,42.8,82.1,43,82.1,43z"/>
	<path class="st0" d="M116.1,113.1c0-0.4-0.4-0.4-0.8-0.2c-0.4,0.2-0.6,0.2-0.6,0.4c0,0.2,0,0.8-0.2,1.2c-0.2,0.4-0.4,0.8-0.6,1.2
		c-0.2,0.2-0.2,0.4,0,0.4c0.2,0.2,0.2,0.2,0.4,0c0.4-0.4,0.8-0.8,1-1.2C115.7,114.3,116.1,113.7,116.1,113.1z"/>
	<path class="st0" d="M113,96.2c-0.4-0.2-0.6-0.2-0.8,0.2c-0.2,0.6-0.6,1.4-1,1.8c-0.4,0.6-1.2,1-1.8,1.2c-0.4,0.2-0.4,0.2-0.4,0.4
		c0,0.2,0.2,0.4,0.6,0.2c0.8-0.2,1.6-0.6,2.4-1.2c0.6-0.6,1.2-1.2,1.6-2.2C113.8,96.4,113.4,96.2,113,96.2z"/>
	<path class="st0" d="M116.9,115c-0.4-0.2-0.6-0.2-0.8,0c-0.2,0.6-0.4,1.2-1,1.2c-0.2,0-0.2,0.2-0.2,0.4c0,0.2,0,0.4,0.2,0.4
		c0.4,0,1,0,1.4-0.4c0.4-0.4,0.6-0.8,0.8-1C117.5,115.2,117.1,115.2,116.9,115z"/>
	<path class="st0" d="M117.1,117c-0.4,0.4-0.6,0.6-0.8,1c0,0,0,0.2,0,0.4c0.2,0.2,0.2,0.2,0.2,0.2c0.4-0.2,0.8-0.2,1-0.2
		c0,0,0-0.4-0.2-0.6C117.5,117.4,117.3,117,117.1,117z"/>
	<path class="st0" d="M30.6,169.9v6.7H32V175h0.4c1.8,0,3-1,3-2.6c0-1.6-1.2-2.6-3-2.6h-1.8V169.9z M34,172.6c0,1-0.4,1.4-1.6,1.4
		H32v-2.8h0.4C33.4,171.1,34,171.6,34,172.6z"/>
	<path class="st0" d="M40.3,169.9c-2,0-3.4,1.4-3.4,3.4s1.6,3.4,3.4,3.4c2,0,3.4-1.4,3.4-3.4C43.9,171.3,42.3,169.9,40.3,169.9z
		 M40.3,175.6c-1.2,0-2-1-2-2.2s0.8-2.2,2-2.2c1.2,0,2,1,2,2.2C42.5,174.6,41.7,175.6,40.3,175.6z"/>
	<rect x="45.7" y="169.9" class="st0" width="1.4" height="6.7"/>
	<path class="st0" d="M54.6,176.6L54.6,176.6l0.2-6.7h-1.2v2.8c0,0.4,0,1.2,0,1.2s-0.4-0.6-0.8-1l-3.4-3.2h-0.2v6.7h1.4v-2.8
		c0-0.4,0-1.2,0-1.2s0.4,0.6,0.8,1L54.6,176.6z"/>
	<path class="st0" d="M62.9,175.2l-1-0.8c-0.4,0.6-0.8,1-1.8,1c-1.2,0-2-1-2-2.2c0-1.2,0.8-2.2,2-2.2c0.8,0,1.4,0.4,1.6,0.8l1-0.8
		c-0.6-1-1.4-1.4-2.6-1.4c-2,0.4-3.4,1.8-3.4,3.8c0,1.8,1.2,3.2,2.8,3.4v1h0.4c0.2,0,0.4,0.2,0.4,0.4s-0.2,0.4-0.4,0.4
		s-0.4-0.2-0.4-0.2l-0.6,0.4c0.2,0.4,0.6,0.6,1.2,0.6c0.6,0,1-0.4,1-1c0-0.6-0.4-1-0.8-1v-0.2C61.5,176.6,62.3,176.2,62.9,175.2z"/>
	<path class="st0" d="M67.8,169.9c-2,0-3.4,1.4-3.4,3.4s1.6,3.4,3.4,3.4s3.4-1.4,3.4-3.4S69.8,169.9,67.8,169.9z M67.8,175.6
		c-1.2,0-2-1-2-2.2s0.8-2.2,2-2.2s2,1,2,2.2S69,175.6,67.8,175.6z"/>
	<path class="st0" d="M78.5,176.6L78.5,176.6l0.2-6.7h-1.2v2.8c0,0.4,0,1.2,0,1.2s-0.4-0.6-0.8-1l-3.4-3.2H73v6.7h1.2v-2.8
		c0-0.4-0.2-1.2-0.2-1.2s0.4,0.6,0.8,1L78.5,176.6z"/>
	<path class="st0" d="M83.5,169.9v6.7h2c2,0,3.4-1.4,3.4-3.4c0-2-1.4-3.4-3.4-3.4h-2V169.9z M87.8,173.4c0,1.2-0.6,2.2-2.2,2.2h-0.6
		v-4.2h0.6C87.2,171.1,87.8,172,87.8,173.4z"/>
	<polygon class="st0" points="95.5,171.1 95.5,169.9 91,169.9 91,176.6 95.7,176.6 95.7,175.4 92.4,175.4 92.4,174.4 95,174.4 
		95,173.4 92.4,173.4 92.4,171.1 	"/>
	<path class="st0" d="M103.7,171.1c0.8,0,1.2,0.2,1.4,0.6l1-1c-0.6-0.6-1.4-1-2.4-1c-2,0-3.4,1.4-3.4,3.4c0,2,1.4,3.4,3.6,3.4
		c1.2,0,2.2-0.4,2.6-0.8V173h-2.8v1.2h1.4v1c-0.4,0.2-0.8,0.2-1.2,0.2c-1.4,0-2.2-1-2.2-2.2C101.7,172,102.5,171.1,103.7,171.1z"/>
	<path class="st0" d="M110.8,169.9l-3,6.7h1.4l0.4-0.8h2.6l0.4,0.8h1.4L110.8,169.9L110.8,169.9z M111.6,174.8h-1.8l0.4-1.2
		c0.2-0.4,0.4-1.2,0.4-1.2s0.2,0.8,0.4,1.2L111.6,174.8z"/>
	<path class="st0" d="M120.3,172.6c0-1.6-1.2-2.6-3-2.6h-1.8v6.7h1.4V175h0.4c0.2,0,0.2,0,0.4,0l1,1.6h1.6l-1.4-2
		C119.9,174.2,120.3,173.6,120.3,172.6z M117.3,173.8h-0.4v-2.6h0.4c1,0,1.6,0.4,1.6,1.4C118.9,173.4,118.5,173.8,117.3,173.8z"/>
	<path class="st0" d="M124.6,169.9l-3,6.7h1.4l0.4-0.8h2.6l0.4,0.8h1.4L124.6,169.9L124.6,169.9z M125.6,174.8h-1.8l0.4-1.2
		c0.2-0.4,0.4-1.2,0.4-1.2s0.2,0.8,0.4,1.2L125.6,174.8z"/>
	<path class="st0" d="M134.9,176.6L134.9,176.6l0.2-6.7h-1.2v2.8c0,0.4,0,1.2,0,1.2s-0.4-0.6-0.8-1l-3.4-3.2h-0.2v6.7h1.2v-2.8
		c0-0.4,0-1.2,0-1.2s0.4,0.6,0.8,1L134.9,176.6z"/>
	<polygon class="st0" points="139.9,176.6 139.9,171.1 141.9,171.1 141.9,169.9 136.7,169.9 136.7,171.1 138.5,171.1 138.5,176.6 	
		"/>
	<rect x="143.6" y="169.9" class="st0" width="1.4" height="6.7"/>
	<polygon class="st0" points="151.4,171.1 151.4,169.9 147,169.9 147,176.6 151.6,176.6 151.6,175.4 148.4,175.4 148.4,174.4 
		151.2,174.4 151.2,173.4 148.4,173.4 148.4,171.1 	"/>
</g>
</svg>
