<svg width="143" height="72"  id="Layer_1" data-name="Layer 1" xmlns="http://www.w3.org/2000/svg" viewBox="0 0 142.69944 71.29642"><defs><style>.cls-1{fill:#ce0e2d;}.cls-2{fill:#001689;}.cls-3{fill:#fff;}</style></defs><path class="cls-1" d="M421.72353,355.365c39.397,0,71.3511-15.9643,71.3511-35.65006,0-19.68722-31.95414-35.64636-71.3511-35.64636-39.41078,0-71.34834,15.95914-71.34834,35.64636C350.37519,339.40072,382.31275,355.365,421.72353,355.365Z" transform="translate(-350.37519 -284.0686)"/><path class="cls-2" d="M477.57982,323.68528a19.32869,19.32869,0,0,1-6.51479,7.05009c-4.81453,3.41894-11.85987,6.42907-20.35455,8.52425a122.02813,122.02813,0,0,1-28.987,3.31676c-16.12932.00711-30.7241-2.83719-41.03277-7.287a37.556,37.556,0,0,1-11.8816-7.5479,15.29581,15.29581,0,0,1-2.94441-4.05622,8.88011,8.88011,0,0,1,0-7.93982,19.26946,19.26946,0,0,1,6.50613-7.04791c4.81451-3.42318,11.879-6.4331,20.36248-8.52446a121.98951,121.98951,0,0,1,28.99017-3.31883c16.12105-.00629,30.71317,2.83936,41.02985,7.28925a37.43748,37.43748,0,0,1,11.87944,7.5478,15.44117,15.44117,0,0,1,2.947,4.05415,8.93108,8.93108,0,0,1,0,7.93982Z" transform="translate(-350.37519 -284.0686)"/><path class="cls-3" d="M482.63918,313.33841a24.76432,24.76432,0,0,0-8.32545-9.21694c-5.64308-3.99-13.272-7.16359-22.25187-9.38956a127.24408,127.24408,0,0,0-30.33833-3.485c-16.7978.00692-31.9938,2.90561-43.25184,7.74928a42.85949,42.85949,0,0,0-13.66447,8.76085,20.76226,20.76226,0,0,0-4.005,5.58137,14.45278,14.45278,0,0,0,0,12.756,24.72279,24.72279,0,0,0,8.32556,9.21694c5.63782,3.98792,13.272,7.15936,22.25751,9.39163a127.63871,127.63871,0,0,0,30.33826,3.48322c16.78108-.00424,31.99337-2.90775,43.25212-7.74319a42.93719,42.93719,0,0,0,13.65313-8.767,20.803,20.803,0,0,0,4.0104-5.58158,14.47714,14.47714,0,0,0,0-12.756Zm-5.05936,10.34687a19.32869,19.32869,0,0,1-6.51479,7.05009c-4.81453,3.41894-11.85987,6.42907-20.35455,8.52425a122.02813,122.02813,0,0,1-28.987,3.31676c-16.12932.00711-30.7241-2.83719-41.03277-7.287a37.556,37.556,0,0,1-11.8816-7.5479,15.29581,15.29581,0,0,1-2.94441-4.05622,8.88011,8.88011,0,0,1,0-7.93982,19.26946,19.26946,0,0,1,6.50613-7.04791c4.81451-3.42318,11.879-6.4331,20.36248-8.52446a121.98951,121.98951,0,0,1,28.99017-3.31883c16.12105-.00629,30.71317,2.83936,41.02985,7.28925a37.43748,37.43748,0,0,1,11.87944,7.5478,15.44117,15.44117,0,0,1,2.947,4.05415,8.93108,8.93108,0,0,1,0,7.93982Z" transform="translate(-350.37519 -284.0686)"/><path class="cls-3" d="M377.27832,310.31787h3.7707l-2.17984,9.99707-.55034,2.44105c-.02544.21023-.06468.48215-.11815.80517a1.963,1.963,0,0,0,.863,1.64432,4.14879,4.14879,0,0,0,2.51015.64377,5.27406,5.27406,0,0,0,2.45072-.50925,3.55509,3.55509,0,0,0,1.495-1.53266,15.65761,15.65761,0,0,0,1.08573-3.44574l2.08714-10.04373h3.77606l-2.163,10.40692a18.16773,18.16773,0,0,1-1.59346,4.66034,6.736,6.736,0,0,1-2.70461,2.62571,9.41864,9.41864,0,0,1-4.59463,1.00985,7.40529,7.40529,0,0,1-5.09334-1.57409,5.18494,5.18494,0,0,1-1.77134-4.05384,10.30336,10.30336,0,0,1,.12423-1.11037c.03645-.26111.19445-1.02272.468-2.27048Z" transform="translate(-350.37519 -284.0686)"/><path class="cls-3" d="M398.81441,313.411h4.13429a4.94565,4.94565,0,0,1,2.163.2982,1.652,1.652,0,0,1,.81527,1.49383,2.72139,2.72139,0,0,1-.56138,1.63095,3.29814,3.29814,0,0,1-1.56211,1.13785,14.188,14.188,0,0,1-4.01905.35834H397.785Zm-1.60519,7.67624H398.744a3.47566,3.47566,0,0,1,1.87228.36524,5.77868,5.77868,0,0,1,1.6471,2.39418q1.42188,3.283,1.90368,4.83977h4.06972a45.58917,45.58917,0,0,0-2.82278-6.08981,7.38982,7.38982,0,0,0-1.35973-1.7125,6.75335,6.75335,0,0,0,4.24462-1.88824,5.47075,5.47075,0,0,0,1.416-3.86535,5.15464,5.15464,0,0,0-.7305-2.79271,3.62312,3.62312,0,0,0-1.89-1.58428,9.60519,9.60519,0,0,0-3.274-.43569h-8.13942l-3.84137,18.36858h3.77667Z" transform="translate(-350.37519 -284.0686)"/><polygon class="cls-3" points="74.575 44.618 71.055 44.618 66.103 32.287 63.528 44.618 60 44.618 63.841 26.249 67.369 26.249 72.324 38.522 74.893 26.249 78.411 26.249 74.575 44.618"/><polygon class="cls-3" points="78.402 44.618 82.243 26.249 95.854 26.249 95.211 29.342 85.374 29.342 84.479 33.461 94.021 33.461 93.375 36.548 83.806 36.548 82.723 41.527 93.406 41.527 92.763 44.618 78.402 44.618"/><path class="cls-3" d="M448.98189,328.68645H444.072l8.08278-9.25907-4.54908-9.10951h3.9425l1.788,3.35467c.06212.12114.46824.94907,1.23839,2.47628l.16068.33135c1.004-1.20995,1.8389-2.20641,2.52119-2.976l2.86006-3.18627h4.80021l-8.38489,9.65645,4.51243,8.71213h-4.25584l-1.399-2.671c-.73574-1.4165-1.2182-2.42312-1.45263-3.03857-.32127.4736-1.15032,1.46489-2.46763,2.94792Z" transform="translate(-350.37519 -284.0686)"/><path class="cls-3" d="M467.92305,313.05484l-.017-.05356-.01422-.11269v-.28366l-.01379-.09229-.01114-.07333-.03141-.05985-.04491-.04162-.03656-.0309-.04841-.029-.045-.0239.05943-.0312.06469-.038.03987-.05077.045-.04852.03647-.06211.017-.06623.01442-.07261.00783-.07335-.00783-.06632-.01442-.08468-.03121-.08817-.05366-.08189-.07056-.07951-.107-.062-.13245-.04666-.17182-.01327h-.93351v1.85228h.38327v-.72761h.40079l.096.00393.07045.01575.03935.02667.04233.0374.02544.04459.01369.06325.01175.07353v.21437l.01372.09568.00854.07911.01957.07333h.423v-.053Zm-.3636-1.20853-.01173.06624-.01371.05088-.01708.04656-.03648.04016-.045.02175-.04831.01833-.06468.00844-.06212.00722h-.45424v-.49864h.47135l.07889.00514.05635.02165.05345.02615.03976.03112.02812.03367.01371.04666.01173.03955Z" transform="translate(-350.37519 -284.0686)"/><path class="cls-3" d="M469.01993,312.05015l-.0308-.1927-.03976-.17882-.07046-.178-.08693-.17158-.08488-.15328-.12132-.15306-.11826-.13668-.13834-.11979-.15532-.11927-.14967-.09219-.17158-.08467-.186-.06192-.17243-.04881-.19126-.026-.18933-.01554-.20042.01554-.19458.026-.18015.04881-.17222.06192-.17511.08467-.14935.09219-.15481.11927-.14689.11979-.11813.13668-.11032.15306-.09868.15328-.079.17158-.062.178-.05346.17882-.02544.1927-.01443.19047.01443.20384.02544.18734.05346.17779.062.183.079.17089.09868.15665.11032.14781.11813.13555.14689.12617.15481.11259.14935.08817.17511.0889.17222.06.18015.04584.19458.03377.20042.0066.18933-.0066.19126-.03377.17243-.04584.186-.06.17158-.0889.14967-.08817.15532-.11259.13834-.12617.11826-.13555.12132-.14781.08488-.15665.08693-.17089.07046-.183.03976-.17779.0308-.18734.01688-.20384Zm-.31283.36319-.028.16058-.03986.14874-.05345.14606-.0647.146-.079.13307-.09868.11929-.10752.11083-.10393.0994-.12988.09948-.13248.08025-.13832.06624-.13524.05284-.16059.04016-.158.02606-.16389.00514-.1718-.00514-.15274-.02606-.15781-.04016-.14636-.05284-.141-.06624-.13832-.08025-.11826-.09948-.10762-.0994-.1098-.11083-.09332-.11929-.09-.13307-.05613-.146-.05345-.14606-.03987-.14874-.02544-.16058-.00536-.17272.00536-.15728.02544-.16657.03987-.152.05345-.14389.05613-.14616.09-.12813.09332-.11784.1098-.11927.10762-.09931.11826-.09734.13832-.08022.141-.06634.14636-.053.15781-.04006.15274-.02626.1718-.00218.16389.00218.158.02626.16059.04006.13524.053.13832.06634.13248.08022.12988.09734.10393.09931.10752.11927.09868.11784.079.12813.0647.14616.05345.14389.03986.152.028.16657.00268.15728Z" transform="translate(-350.37519 -284.0686)"/></svg>
